<?xml version="1.0" encoding="UTF-8" standalone="no"?>
<svg
   xmlns:dc="http://purl.org/dc/elements/1.1/"
   xmlns:cc="http://creativecommons.org/ns#"
   xmlns:rdf="http://www.w3.org/1999/02/22-rdf-syntax-ns#"
   xmlns:svg="http://www.w3.org/2000/svg"
   xmlns="http://www.w3.org/2000/svg"
   viewBox="0 0 627.20001 528.77332"
   height="528.77332"
   width="627.20001"
   xml:space="preserve"
   id="svg2"
   version="1.1"><metadata
     id="metadata8"><rdf:RDF><cc:Work
         rdf:about=""><dc:format>image/svg+xml</dc:format><dc:type
           rdf:resource="http://purl.org/dc/dcmitype/StillImage" /></cc:Work></rdf:RDF></metadata><defs
     id="defs6" /><g
     transform="matrix(1.3333333,0,0,-1.3333333,0,528.77333)"
     id="g10"><g
       transform="scale(0.1)"
       id="g12"><path
         id="path14"
         style="fill:#dadbd8;fill-opacity:1;fill-rule:nonzero;stroke:none"
         d="m 3783.61,2068.44 c 0,0 -5.54,-11.07 -21.83,-26.01 -16,-14.59 -45.11,-32.57 -85.22,-34.45 -19.77,-0.79 -42.01,2.29 -63.37,12.15 -21.13,9.88 -42.04,25.36 -56.98,47.31 -7.73,10.72 -13.85,23 -18.15,36.15 -4.5,13.1 -7.02,27.21 -7.16,41.61 -0.9,28.84 8.21,58.79 25.65,83.9 17.88,24.82 43.1,43.39 70.61,52.13 13.63,4.67 27.77,6.98 41.62,7.1 13.84,0.31 27.46,-1.36 40.15,-5.1 25.67,-6.78 47.22,-21.35 63.57,-38 16.4,-16.86 26.7,-36.81 32.53,-55.72 11.56,-38.46 4.3,-71.89 -4.15,-91.82 -8.66,-20.33 -17.27,-29.25 -17.27,-29.25 -0.83,0.51 6.83,10.15 14.42,30.35 7.4,19.85 13.47,52.34 1.69,89.06 -5.93,18.05 -16.07,36.96 -31.91,52.84 -15.79,15.67 -36.41,29.33 -60.81,35.55 -12.05,3.46 -24.96,4.95 -38.05,4.58 -13.11,-0.18 -26.49,-2.44 -39.36,-6.9 -25.99,-8.37 -49.7,-25.93 -66.61,-49.36 -16.47,-23.74 -25.13,-51.94 -24.37,-79.22 0.07,-13.62 2.39,-26.99 6.59,-39.4 4,-12.47 9.7,-24.15 16.97,-34.37 13.97,-20.92 33.72,-35.83 53.75,-45.51 20.23,-9.66 41.44,-12.92 60.44,-12.51 38.54,1.08 67.18,17.62 83.43,31.21 16.53,13.88 23.07,24.3 23.82,23.68" /><path
         id="path16"
         style="fill:#dadbd8;fill-opacity:1;fill-rule:nonzero;stroke:none"
         d="m 3876.72,1910.46 c -0.01,0.11 1.51,-0.42 4.56,-1.57 3.34,-1.31 7.82,-3.05 13.62,-5.31 12.44,-5 30.37,-12.19 53.65,-21.51 l -1.51,-0.44 c 18.75,26.82 43.4,62.09 73.21,104.75 l 0.15,-2.49 c -15.71,17.34 -33.17,36.6 -51.84,57.21 l -0.94,1.03 0.49,1.33 c 8.96,24.37 15.46,51.56 18,80.69 l 0.13,1.55 1.46,0.61 c 22.22,9.27 46.27,19.3 71.3,29.74 l -1.69,-3.06 c -6.89,39.65 -14.18,81.73 -21.86,125.91 l 2.89,-2.57 c -23.89,1.23 -50.18,2.58 -77.15,3.96 l -1.97,0.1 -0.82,1.79 c -10.68,23.32 -25.48,47.6 -44.04,69.7 l -1.31,1.57 0.78,1.91 c 9.14,22.12 19.21,46.52 29.47,71.36 l 1.21,-4.2 c -32.79,23.15 -68.16,48.12 -104.41,73.7 l 4.56,0.26 c -17.87,-16.08 -37.49,-33.76 -57.37,-51.66 l -1.68,-1.51 -2.13,0.78 c -24.19,9 -51.85,15.62 -80.3,18.13 l -2.29,0.2 -0.89,2.14 c -9.26,22.35 -19.36,46.73 -29.57,71.36 l 4.21,-2.32 c -39.88,-6.84 -82.64,-14.18 -125.97,-21.62 l 3.24,3.65 c -1.29,-24.36 -2.68,-50.66 -4.1,-77.15 l -0.11,-2.38 -2.17,-0.99 c -23.8,-10.85 -47.9,-25.66 -69.56,-43.79 l -0.04,-0.02 -0.01,-0.02 c -0.64,-0.09 -0.33,-0.04 -0.01,0 0.58,0.09 1.17,0.18 -4.03,-0.62 l -0.07,0.03 -0.15,0.06 -0.27,0.11 -0.57,0.24 -1.12,0.46 -2.25,0.94 -4.49,1.86 -8.97,3.72 -17.89,7.42 c -11.9,4.93 -23.76,9.85 -35.55,14.75 l 4.7,1.36 c -24.95,-35.26 -49.58,-70.04 -73.85,-104.32 l -0.29,4.85 c 17.38,-19.34 34.58,-38.49 51.61,-57.45 l 1.57,-1.74 -0.82,-2.19 c -9.74,-26.09 -15.8,-53.18 -18.25,-80.26 l -0.21,-2.3 -2.13,-0.88 c -24.15,-9.97 -47.92,-19.79 -71.4,-29.48 l 2.26,4.09 c 7.33,-43.01 14.47,-85.02 21.44,-125.98 l -3.37,3 c 26.17,-1.43 51.87,-2.83 77.14,-4.2 l 2.13,-0.12 0.88,-1.94 c 11.66,-25.62 26.56,-49.09 43.79,-69.8 l 1.33,-1.6 -0.79,-1.89 c -10.19,-24.44 -20.06,-48.13 -29.69,-71.27 l -1.13,3.92 c 36.64,-26.05 71.23,-50.65 104.16,-74.06 l -3.75,-0.21 c 20.24,18.1 39.24,35.1 57.56,51.48 l 1.28,1.15 1.59,-0.6 c 27.63,-10.33 54.61,-16.05 80.52,-18.48 l 1.57,-0.14 0.58,-1.45 c 10.65,-25.97 20.24,-49.37 29.3,-71.47 l -2.54,1.4 c 48.84,8.14 90.45,15.07 126.08,21.01 l -1.47,-1.65 c 1.84,30.8 3.35,56.06 4.6,77.12 l 0.05,0.77 0.69,0.31 c 25.59,11.55 43.05,23.17 54.36,31.07 5.37,3.94 9.48,6.96 12.5,9.17 2.81,2.15 4.16,3.1 4.17,2.99 0.02,-0.09 -1.27,-1.3 -3.76,-3.51 -2.62,-2.21 -6.59,-5.55 -12.15,-9.71 -11.09,-8.28 -28.44,-20.3 -54.06,-32.31 l 0.73,1.08 c -0.98,-21.06 -2.17,-46.35 -3.6,-77.17 l -0.07,-1.39 -1.4,-0.25 c -35.57,-6.25 -77.12,-13.55 -125.89,-22.12 l -1.81,-0.32 -0.73,1.73 c -9.2,22.04 -18.95,45.37 -29.77,71.28 l 2.16,-1.59 c -26.36,2.31 -53.85,7.96 -82.02,18.34 l 2.87,0.54 c -18.24,-16.47 -37.16,-33.56 -57.31,-51.76 l -1.78,-1.62 -1.98,1.4 c -33.02,23.27 -67.72,47.73 -104.47,73.62 l -2.13,1.51 1,2.42 c 9.56,23.17 19.35,46.9 29.45,71.38 l 0.53,-3.49 c -17.69,21.11 -32.98,45.07 -44.98,71.24 l 3.01,-2.05 c -25.25,1.31 -50.96,2.65 -77.14,4.01 l -2.88,0.15 -0.5,2.86 c -7.05,40.94 -14.29,82.94 -21.69,125.93 l -0.51,2.95 2.77,1.16 c 23.46,9.73 47.22,19.59 71.35,29.6 l -2.33,-3.18 c 2.47,27.74 8.65,55.51 18.6,82.27 l 0.75,-3.93 c -17.05,18.94 -34.26,38.08 -51.66,57.4 l -2.08,2.31 1.8,2.54 c 24.26,34.3 48.87,69.1 73.8,104.36 l 1.81,2.57 2.91,-1.21 c 11.8,-4.89 23.66,-9.8 35.56,-14.74 l 17.89,-7.42 8.97,-3.71 4.49,-1.87 2.24,-0.93 1.13,-0.47 0.56,-0.23 0.28,-0.11 0.13,-0.06 0.07,-0.03 c -5.18,-0.79 -4.6,-0.7 -4.01,-0.61 0.32,0.05 0.64,0.1 0.01,0 l 0.01,0.02 0.03,0.02 c 22.22,18.6 46.94,33.79 71.35,44.9 l -2.3,-3.36 c 1.43,26.48 2.83,52.78 4.13,77.15 l 0.17,3.12 3.07,0.52 c 43.35,7.4 86.11,14.7 125.99,21.51 l 3.05,0.52 1.17,-2.85 c 10.17,-24.64 20.25,-49.04 29.49,-71.4 l -3.17,2.33 c 29.14,-2.61 57.46,-9.44 82.21,-18.7 l -3.79,-0.72 c 19.91,17.86 39.57,35.5 57.47,51.55 l 2.18,1.96 2.39,-1.69 c 36.19,-25.68 71.49,-50.73 104.23,-73.95 l 2.3,-1.63 -1.07,-2.59 c -10.35,-24.81 -20.49,-49.18 -29.69,-71.27 l -0.53,3.47 c 18.9,-22.65 33.94,-47.49 44.75,-71.35 l -2.79,1.9 c 26.96,-1.49 53.27,-2.94 77.14,-4.26 l 2.48,-0.14 0.41,-2.43 c 7.46,-44.22 14.57,-86.33 21.27,-126.01 l 0.38,-2.22 -2.07,-0.85 c -25.07,-10.29 -49.19,-20.2 -71.47,-29.34 l 1.59,2.16 c -2.75,-29.6 -9.55,-57.18 -18.83,-81.84 l -0.45,2.34 c 18.52,-20.76 35.82,-40.17 51.39,-57.62 l 1.07,-1.2 -0.92,-1.29 c -30.32,-42.32 -55.37,-77.3 -74.43,-103.9 l -0.59,-0.83 -0.92,0.39 c -22.84,9.79 -40.44,17.32 -52.66,22.54 -5.78,2.54 -10.24,4.5 -13.56,5.96 -3.06,1.37 -4.62,2.12 -4.64,2.22" /><path
         id="path18"
         style="fill:#dadbd8;fill-opacity:1;fill-rule:evenodd;stroke:none"
         d="m 3622.35,3085.07 c 61.84,87.39 41.15,208.38 -46.26,270.23 -87.39,61.85 -208.38,41.13 -270.22,-46.26 -61.86,-87.4 -41.13,-208.38 46.26,-270.23 87.4,-61.84 208.38,-41.14 270.22,46.26 z m 131.64,-223.36 c -30.63,-25.56 -64.21,-46.55 -99.68,-62.76 l -5.81,-109.07 -178.12,-30.49 -41.77,100.92 c -38.83,3.49 -77.49,12.1 -114.91,26.03 l -81.2,-72.99 -147.5,104.4 41.81,100.85 c -25.59,30.64 -46.56,64.24 -62.76,99.72 l -109.08,5.81 -30.49,178.09 100.93,41.78 c 3.49,38.84 12.12,77.48 26.05,114.9 l -73,81.19 104.39,147.54 100.86,-41.83 c 30.64,25.59 64.22,46.55 99.7,62.77 l 5.81,109.08 178.12,30.49 41.76,-100.95 c 38.84,-3.49 77.47,-12.12 114.9,-26.02 l 81.2,72.97 147.52,-104.38 -41.83,-100.85 c 25.59,-30.64 46.57,-64.24 62.77,-99.71 l 109.08,-5.82 30.49,-178.1 -100.93,-41.77 c -3.49,-38.84 -12.11,-77.48 -26.04,-114.9 l 72.99,-81.19 -104.39,-147.51 -100.87,41.8" /><path
         id="path20"
         style="fill:#dadbd8;fill-opacity:1;fill-rule:evenodd;stroke:none"
         d="m 1313.31,2758.27 c -85.78,53.64 -198.85,27.6 -252.5,-58.21 -53.65,-85.8 -27.58,-198.85 58.21,-252.5 85.8,-53.65 198.85,-27.59 252.5,58.21 53.65,85.8 27.6,198.84 -58.21,252.5 z m 203.68,136.25 c 25.77,-27.54 47.39,-58.09 64.6,-90.69 l 103.23,0.39 38.36,-166.43 -92.98,-44.85 c -1.21,-36.83 -7.25,-73.77 -18.38,-109.83 l 73.26,-72.69 -90.58,-144.81 -97.41,34.02 c -27.53,-25.79 -58.11,-47.39 -90.71,-64.59 l 0.39,-103.24 -166.41,-38.37 -44.86,92.99 c -36.84,1.2 -73.77,7.26 -109.83,18.39 l -72.68,-73.26 -144.834,90.56 34.032,97.43 c -25.79,27.53 -47.383,58.09 -64.59,90.69 l -103.25,-0.39 -38.36,166.44 92.996,44.84 c 1.207,36.84 7.266,73.76 18.375,109.83 l -73.23,72.68 90.555,144.83 97.414,-34.04 c 27.527,25.8 58.109,47.41 90.702,64.6 l -0.39,103.25 166.42,38.37 44.85,-93 c 36.83,-1.2 73.77,-7.25 109.83,-18.39 l 72.68,73.25 144.81,-90.55 -34.01,-97.43" /><path
         id="path22"
         style="fill:#dadbd8;fill-opacity:1;fill-rule:evenodd;stroke:none"
         d="m 1504.79,3519.1 c -47.5,29.7 -110.1,15.28 -139.8,-32.22 -29.7,-47.51 -15.27,-110.1 32.23,-139.8 47.5,-29.71 110.09,-15.27 139.79,32.23 29.7,47.5 15.28,110.08 -32.22,139.79 z m 112.76,75.44 c 14.27,-15.25 26.23,-32.17 35.77,-50.22 l 57.15,0.23 21.23,-92.15 -51.47,-24.83 c -0.67,-20.39 -4.01,-40.85 -10.18,-60.81 l 40.56,-40.24 -50.15,-80.18 -53.93,18.84 c -15.24,-14.28 -32.17,-26.24 -50.22,-35.76 l 0.22,-57.16 -92.13,-21.24 -24.84,51.48 c -20.39,0.66 -40.84,4.02 -60.81,10.19 l -40.23,-40.56 -80.19,50.13 18.84,53.94 c -14.28,15.24 -26.23,32.16 -35.76,50.21 l -57.17,-0.21 -21.24,92.14 51.49,24.84 c 0.67,20.39 4.03,40.83 10.18,60.8 l -40.55,40.24 50.14,80.17 53.93,-18.83 c 15.24,14.27 32.17,26.24 50.22,35.76 l -0.22,57.16 92.14,21.24 24.83,-51.48 c 20.4,-0.67 40.84,-4.02 60.81,-10.18 l 40.24,40.55 80.17,-50.13 -18.83,-53.94" /><path
         id="path24"
         style="fill:#dadbd8;fill-opacity:1;fill-rule:nonzero;stroke:none"
         d="m 815.832,3424.21 c 0.098,0.15 1.668,-0.73 4.609,-2.57 2.961,-1.78 7.09,-4.9 11.778,-9.55 9.308,-9.06 21.105,-25.88 23.633,-49.87 1.16,-11.83 0.086,-25.28 -5.09,-38.43 -5.196,-13.03 -13.758,-26.1 -26.418,-35.83 -6.168,-5.01 -13.332,-9.1 -21.071,-12.14 -7.707,-3.15 -16.085,-5.14 -24.726,-5.72 -17.281,-1.54 -35.574,2.9 -51.242,12.52 -15.512,9.88 -27.52,24.38 -33.707,40.59 -3.266,8.02 -5.141,16.43 -5.68,24.74 -0.66,8.29 -0.117,16.52 1.691,24.26 3.2,15.64 11.211,29.07 20.645,39.45 9.562,10.41 21.184,17.26 32.332,21.39 22.676,8.24 42.957,4.99 55.184,0.58 6.23,-2.17 10.835,-4.52 13.73,-6.4 2.945,-1.84 4.43,-2.87 4.332,-3.02 -0.293,-0.54 -6.34,3.68 -18.687,7.49 -12.125,3.73 -31.75,6.22 -53.262,-2.09 -10.582,-4.18 -21.52,-10.88 -30.449,-20.88 -8.809,-9.97 -16.258,-22.75 -19.129,-37.52 -1.653,-7.31 -2.102,-15.07 -1.426,-22.87 0.551,-7.82 2.355,-15.72 5.461,-23.25 5.879,-15.22 17.164,-28.77 31.723,-38.06 14.73,-9.01 31.847,-13.23 48.097,-11.84 8.129,0.49 16.024,2.33 23.289,5.26 7.309,2.81 14.082,6.61 19.934,11.29 12.019,9.05 20.254,21.34 25.359,33.63 5.086,12.4 6.321,25.17 5.442,36.51 -1.938,22.98 -12.77,39.53 -21.426,48.81 -8.844,9.43 -15.289,13.02 -14.926,13.52" /><path
         id="path26"
         style="fill:#dadbd8;fill-opacity:1;fill-rule:nonzero;stroke:none"
         d="m 907.203,3485.33 c -0.066,-0.01 0.192,0.92 0.77,2.78 0.672,2.07 1.558,4.82 2.699,8.34 2.562,7.66 6.238,18.64 11.004,32.86 l 0.34,-0.97 c -16.715,10.3 -38.668,23.84 -65.219,40.2 l 1.637,0.19 c -9.836,-10 -20.762,-21.11 -32.454,-33 l -0.64,-0.66 -0.895,0.27 c -14.886,4.53 -31.367,7.48 -48.875,8 l -1.027,0.03 -0.461,0.94 c -6.309,12.98 -13.144,27.03 -20.246,41.65 l 2.082,-1 c -23.496,-5.48 -48.426,-11.29 -74.605,-17.4 l 1.589,2.01 c 0.086,-14.34 0.18,-30.13 0.278,-46.32 l 0.004,-1.3 -1.153,-0.61 c -13.578,-7.18 -27.582,-16.87 -40.16,-28.71 l -0.984,-0.93 -1.289,0.44 c -13.555,4.71 -28.504,9.91 -43.727,15.2 l 2.734,0.96 c -12.734,-20.42 -26.464,-42.45 -40.539,-65.02 l -0.343,3.01 c 10.242,-10.15 21.488,-21.29 32.882,-32.58 l 1.067,-1.05 -0.442,-1.43 c -4.55,-14.77 -7.566,-31.53 -8.089,-48.62 l -0.047,-1.53 -1.379,-0.66 c -13.063,-6.31 -27.309,-13.19 -41.703,-20.14 l 1.375,2.86 c 5.461,-23.63 11.312,-48.96 17.246,-74.65 l -2.528,2.01 c 14.622,0.06 30.415,0.12 46.313,0.18 l 1.578,0.02 0.731,-1.4 c 7.296,-13.85 16.972,-27.76 28.55,-40.09 l 0.016,-0.01 0.004,-0.01 c 0.254,-1.18 -0.547,2.63 0.566,-2.65 l -0.015,-0.04 -0.028,-0.09 -0.062,-0.17 -0.117,-0.35 -0.243,-0.69 -0.48,-1.37 -0.965,-2.75 -1.918,-5.49 -3.828,-10.96 c -2.551,-7.3 -5.09,-14.56 -7.617,-21.79 l -1.074,3.06 c 21.953,-13.73 43.613,-27.29 64.961,-40.64 l -3.196,-0.37 c 10.981,11.05 21.852,22 32.617,32.84 l 1.094,1.1 1.477,-0.45 c 15.926,-4.93 32.328,-7.64 48.594,-8.18 l 1.527,-0.05 0.664,-1.37 c 6.793,-14.11 13.48,-28.01 20.086,-41.73 l -2.789,1.34 c 25.488,5.85 50.39,11.56 74.668,17.13 l -1.856,-2.34 c -0.039,15.71 -0.078,31.14 -0.113,46.3 l -0.004,1.42 1.25,0.66 c 14.922,7.85 28.442,17.54 40.238,28.55 l 1,0.94 1.282,-0.45 c 14.972,-5.26 29.492,-10.37 43.672,-15.35 l -2.551,-0.89 c 14.347,22.82 27.886,44.35 40.777,64.86 l 0.289,-2.47 c -11.527,11.5 -22.344,22.29 -32.773,32.7 l -0.809,0.8 0.34,1.08 c 5.238,16.87 7.738,33.2 8.312,48.77 l 0.04,1.05 0.929,0.44 c 15.188,7.25 28.863,13.79 41.785,19.96 l -0.828,-1.73 c -6.527,28.95 -12.086,53.62 -16.847,74.75 l 1.14,-0.91 c -18.488,0.06 -33.656,0.11 -46.308,0.15 h -0.512 l -0.231,0.45 c -7.781,14.92 -15.308,24.98 -20.41,31.48 -2.523,3.07 -4.465,5.43 -5.902,7.19 -1.391,1.62 -1.992,2.39 -1.926,2.4 0.067,0.02 0.844,-0.71 2.25,-2.12 1.418,-1.49 3.555,-3.74 6.242,-6.92 5.34,-6.36 13.145,-16.32 21.227,-31.25 l -0.742,0.45 c 12.648,0.14 27.82,0.31 46.3,0.51 l 0.93,0.01 0.215,-0.92 c 4.969,-21.08 10.77,-45.7 17.575,-74.58 l 0.28,-1.19 -1.11,-0.54 c -12.878,-6.27 -26.511,-12.9 -41.64,-20.27 l 0.969,1.48 c -0.48,-15.86 -2.918,-32.53 -8.172,-49.76 l -0.468,1.88 c 10.492,-10.36 21.363,-21.09 32.953,-32.52 l 1.129,-1.12 -0.844,-1.36 c -12.801,-20.57 -26.242,-42.17 -40.488,-65.05 l -0.907,-1.46 -1.64,0.56 c -14.199,4.93 -28.739,9.98 -43.731,15.18 l 2.278,0.48 c -12.039,-11.32 -25.868,-21.3 -41.137,-29.39 l 1.246,2.07 c 0.078,-15.16 0.156,-30.59 0.238,-46.31 l 0.012,-1.91 -1.871,-0.44 c -24.27,-5.62 -49.156,-11.38 -74.633,-17.29 l -1.93,-0.44 -0.863,1.78 c -6.633,13.72 -13.34,27.59 -20.156,41.7 l 2.187,-1.43 c -16.711,0.54 -33.566,3.29 -49.941,8.33 l 2.566,0.65 c -10.757,-10.86 -21.617,-21.82 -32.586,-32.89 l -1.453,-1.46 -1.746,1.09 c -21.355,13.35 -43.023,26.89 -64.984,40.61 l -1.758,1.1 0.684,1.96 c 2.523,7.23 5.062,14.5 7.605,21.79 l 3.828,10.96 1.918,5.5 0.965,2.75 0.48,1.38 0.243,0.68 0.117,0.35 0.062,0.17 0.032,0.08 0.011,0.05 c 1.118,-5.27 0.305,-1.46 0.551,-2.63 l -0.004,0.01 -0.019,0.02 c -11.903,12.68 -21.852,26.97 -29.34,41.21 l 2.305,-1.38 c -15.899,-0.06 -31.692,-0.11 -46.313,-0.17 h -2.07 l -0.465,2.01 c -5.906,25.69 -11.735,51.03 -17.172,74.67 l -0.461,1.99 1.836,0.88 c 14.406,6.94 28.664,13.8 41.734,20.09 l -1.422,-2.19 c 0.567,17.56 3.692,34.77 8.395,49.91 l 0.621,-2.48 c -11.375,11.31 -22.594,22.48 -32.816,32.64 l -1.375,1.37 1.027,1.64 c 14.137,22.53 27.926,44.52 40.711,64.91 l 0.988,1.57 1.746,-0.61 c 15.207,-5.34 30.133,-10.58 43.672,-15.34 l -2.273,-0.48 c 12.922,12.09 27.297,21.96 41.219,29.25 l -1.149,-1.91 c -0.023,16.18 -0.047,31.97 -0.07,46.31 l -0.004,1.64 1.594,0.37 c 26.211,5.97 51.172,11.65 74.695,17.01 l 1.453,0.34 0.637,-1.34 c 7.015,-14.66 13.758,-28.75 19.988,-41.77 l -1.484,0.96 c 17.828,-0.64 34.574,-3.78 49.664,-8.5 l -1.535,-0.38 c 11.796,11.78 22.828,22.8 32.75,32.71 l 0.757,0.75 0.883,-0.56 c 26.332,-16.7 48.114,-30.51 64.703,-41.03 l 0.567,-0.36 -0.227,-0.62 c -5.07,-13.97 -8.988,-24.74 -11.722,-32.27 -1.321,-3.51 -2.348,-6.25 -3.122,-8.32 -0.722,-1.87 -1.121,-2.83 -1.195,-2.85" /><path
         id="path28"
         style="fill:#33535f;fill-opacity:1;fill-rule:nonzero;stroke:none"
         d="M 3188.55,49.9414 1859.92,56.082 c -159.79,0.7266 -288.75,130.84 -288.08,290.629 l 14.08,3330.889 c 0.68,159.88 130.87,288.93 290.75,288.2 l 1328.63,-6.14 c 159.8,-0.74 288.75,-130.85 288.07,-290.64 L 3479.3,338.121 C 3478.61,178.238 3348.43,49.1914 3188.55,49.9414" /><path
         id="path30"
         style="fill:#fafaf9;fill-opacity:1;fill-rule:nonzero;stroke:none"
         d="m 3203.4,3844.7 -257.6,1.19 c -34.54,0.16 -62.67,-29 -62.82,-65.1 l -0.21,-46.73 c -0.14,-36.11 -28.28,-65.26 -62.82,-65.1 l -502.11,2.32 c -34.54,0.16 -62.42,29.56 -62.27,65.68 l 0.19,46.73 c 0.15,36.11 -27.73,65.52 -62.27,65.68 l -90.6,0.42 -225.46,1.03 c -111.97,0.52 -203.15,-89.85 -203.63,-201.83 L 1660.06,397.801 c -0.47,-111.93 89.84,-203.039 201.76,-203.563 l 1325.96,-6.109 c 111.97,-0.527 203.15,89.851 203.63,201.832 l 13.75,3251.199 c 0.47,111.91 -89.85,203.02 -201.76,203.54" /><path
         id="path32"
         style="fill:#f03d5f;fill-opacity:1;fill-rule:nonzero;stroke:none"
         d="m 2815.69,2261.5 h -520.41 c -53.92,0 -97.63,43.71 -97.63,97.63 v 520.42 c 0,53.92 43.71,97.63 97.63,97.63 h 520.41 c 53.93,0 97.64,-43.71 97.64,-97.63 v -520.42 c 0,-53.92 -43.71,-97.63 -97.64,-97.63" /><path
         id="path34"
         style="fill:#f03d5f;fill-opacity:1;fill-rule:nonzero;stroke:none"
         d="m 2008.81,2716.84 17.26,-34.96 38.58,-5.61 -27.92,-27.21 6.59,-38.43 -34.51,18.14 -34.51,-18.14 6.59,38.43 -27.92,27.21 38.58,5.61 17.26,34.96" /><path
         id="path36"
         style="fill:#f03d5f;fill-opacity:1;fill-rule:nonzero;stroke:none"
         d="m 3123.79,3063.36 13.34,-27.03 29.83,-4.34 -21.59,-21.04 5.1,-29.72 -26.68,14.04 -26.69,-14.04 5.1,29.72 -21.59,21.04 29.83,4.34 13.35,27.03" /><path
         id="path38"
         style="fill:#f03d5f;fill-opacity:1;fill-rule:nonzero;stroke:none"
         d="m 3097.55,2414.83 11.57,-15.69 19.48,0.64 -11.34,-15.85 6.63,-18.34 -18.59,5.89 -15.39,-11.96 -0.13,19.49 -16.14,10.94 18.5,6.15 5.41,18.73" /><path
         id="path40"
         style="fill:#f03d5f;fill-opacity:1;fill-rule:nonzero;stroke:none"
         d="m 1995.56,2975.42 c -4.55,0 -8.25,-3.7 -8.25,-8.25 0,-4.55 3.7,-8.25 8.25,-8.25 4.55,0 8.25,3.7 8.25,8.25 0,4.55 -3.7,8.25 -8.25,8.25 z m 0,-26.5 c -10.07,0 -18.25,8.18 -18.25,18.25 0,10.06 8.18,18.25 18.25,18.25 10.06,0 18.25,-8.19 18.25,-18.25 0,-10.07 -8.19,-18.25 -18.25,-18.25" /><path
         id="path42"
         style="fill:#f03d5f;fill-opacity:1;fill-rule:nonzero;stroke:none"
         d="m 3027.35,2723.14 c -4.55,0 -8.25,-3.7 -8.25,-8.25 0,-4.55 3.7,-8.25 8.25,-8.25 4.56,0 8.26,3.7 8.26,8.25 0,4.55 -3.7,8.25 -8.26,8.25 z m 0,-26.5 c -10.06,0 -18.25,8.18 -18.25,18.25 0,10.06 8.19,18.25 18.25,18.25 10.07,0 18.26,-8.19 18.26,-18.25 0,-10.07 -8.19,-18.25 -18.26,-18.25" /><path
         id="path44"
         style="fill:#f03d5f;fill-opacity:1;fill-rule:nonzero;stroke:none"
         d="m 2789.18,3108.34 c -4.55,0 -8.25,-3.71 -8.25,-8.26 0,-4.55 3.7,-8.25 8.25,-8.25 4.55,0 8.25,3.7 8.25,8.25 0,4.55 -3.7,8.26 -8.25,8.26 z m 0,-26.51 c -10.07,0 -18.25,8.19 -18.25,18.25 0,10.07 8.18,18.26 18.25,18.26 10.07,0 18.25,-8.19 18.25,-18.26 0,-10.06 -8.18,-18.25 -18.25,-18.25" /><path
         id="path46"
         style="fill:#f03d5f;fill-opacity:1;fill-rule:nonzero;stroke:none"
         d="m 1909.52,2373.92 c 0,-7.32 -5.94,-13.25 -13.25,-13.25 -7.32,0 -13.26,5.93 -13.26,13.25 0,7.32 5.94,13.25 13.26,13.25 7.31,0 13.25,-5.93 13.25,-13.25" /><path
         id="path48"
         style="fill:#f03d5f;fill-opacity:1;fill-rule:nonzero;stroke:none"
         d="m 2520.66,2184.78 c 0,-7.32 -5.93,-13.25 -13.25,-13.25 -7.32,0 -13.25,5.93 -13.25,13.25 0,7.32 5.93,13.25 13.25,13.25 7.32,0 13.25,-5.93 13.25,-13.25" /><path
         id="path50"
         style="fill:#f03d5f;fill-opacity:1;fill-rule:nonzero;stroke:none"
         d="m 2392.14,3234.56 c 0,-7.32 -5.94,-13.25 -13.25,-13.25 -7.33,0 -13.25,5.93 -13.25,13.25 0,7.32 5.92,13.25 13.25,13.25 7.31,0 13.25,-5.93 13.25,-13.25" /><path
         id="path52"
         style="fill:#17282f;fill-opacity:1;fill-rule:nonzero;stroke:none"
         d="m 2240.92,1178.83 v 56.18 h 10.37 v -55.76 c 0,-23.25 10.92,-33.89 29.97,-33.89 19.19,0 30.12,10.64 30.12,33.89 v 55.76 h 10.09 v -56.18 c 0,-28.15 -15.14,-42.72 -40.21,-42.72 -25.07,0 -40.34,14.57 -40.34,42.72" /><path
         id="path54"
         style="fill:#17282f;fill-opacity:1;fill-rule:nonzero;stroke:none"
         d="m 2419.04,1201.38 c 0,15.7 -10.37,24.66 -29.98,24.66 h -26.05 v -49.03 h 26.05 c 19.61,0 29.98,8.96 29.98,24.37 z m 10.37,0 c 0,-20.87 -15.13,-33.47 -40.06,-33.47 h -26.34 v -30.96 h -10.37 v 98.06 h 36.71 c 24.93,0 40.06,-12.61 40.06,-33.63" /><path
         id="path56"
         style="fill:#17282f;fill-opacity:1;fill-rule:nonzero;stroke:none"
         d="m 2491.13,1145.91 c 26.06,0 42.87,16.54 42.87,40.06 0,23.54 -16.81,40.07 -42.87,40.07 h -28.99 v -80.13 z m -39.36,89.1 h 39.92 c 31.38,0 52.53,-20.18 52.53,-49.04 0,-28.85 -21.15,-49.02 -52.53,-49.02 h -39.92 v 98.06" /><path
         id="path58"
         style="fill:#17282f;fill-opacity:1;fill-rule:nonzero;stroke:none"
         d="m 2623.72,1171.55 -23.53,52.66 -23.54,-52.66 z m 3.78,-8.41 h -54.63 l -11.77,-26.19 h -10.78 l 44.83,98.06 h 10.22 l 44.83,-98.06 h -10.93 l -11.77,26.19" /><path
         id="path60"
         style="fill:#17282f;fill-opacity:1;fill-rule:nonzero;stroke:none"
         d="m 2680.55,1226.04 h -34.47 v 8.97 h 79.29 v -8.97 h -34.46 v -89.09 h -10.36 v 89.09" /><path
         id="path62"
         style="fill:#17282f;fill-opacity:1;fill-rule:nonzero;stroke:none"
         d="m 2811.19,1145.91 v -8.96 h -69.33 v 98.06 h 67.23 v -8.97 h -56.86 v -34.88 h 50.7 v -8.83 h -50.7 v -36.42 h 58.96" /><path
         id="path64"
         style="fill:#fafaf9;fill-opacity:1;fill-rule:nonzero;stroke:none"
         d="m 2588.38,2683.1 c -34.02,13.67 -72.7,-2.83 -86.36,-36.85 -13.67,-34.03 2.83,-72.7 36.86,-86.37 34.02,-13.66 72.68,2.84 86.36,36.86 13.67,34.03 -2.84,72.69 -36.86,86.36 z m 63.97,61.58 c 10.95,-8.18 20.61,-17.7 28.82,-28.23 l 36.8,6.72 24.3,-56.92 -30.32,-21.93 c 1.92,-13.22 2.12,-26.78 0.44,-40.35 l 30.77,-21.26 -23.08,-57.43 -36.92,5.93 c -8.18,-10.96 -17.7,-20.61 -28.24,-28.82 l 6.72,-36.8 -56.91,-24.3 -21.94,30.32 c -13.21,-1.92 -26.76,-2.12 -40.34,-0.44 l -21.26,-30.77 -57.44,23.08 5.94,36.92 c -10.96,8.17 -20.61,17.7 -28.83,28.23 l -36.81,-6.72 -24.28,56.93 30.32,21.92 c -1.93,13.22 -2.11,26.78 -0.45,40.35 l -30.75,21.26 23.06,57.43 36.93,-5.93 c 8.17,10.95 17.7,20.61 28.23,28.83 l -6.72,36.8 56.93,24.29 21.92,-30.31 c 13.21,1.92 26.78,2.11 40.35,0.44 l 21.26,30.76 57.42,-23.07 -5.92,-36.93" /><path
         id="path66"
         style="fill:#fafaf9;fill-opacity:1;fill-rule:nonzero;stroke:none"
         d="m 2588.38,2683.1 c 0,0 5.84,-1.38 14.71,-7.37 8.66,-5.9 20.4,-17.59 25.78,-36.28 2.6,-9.23 3.64,-20.05 1.38,-31.21 -2.27,-11.07 -7.22,-22.65 -15.88,-32.15 -4.18,-4.85 -9.29,-9.11 -14.99,-12.61 -5.67,-3.59 -12.04,-6.36 -18.8,-8.04 -13.49,-3.66 -28.62,-2.73 -42.41,2.67 -13.7,5.64 -25.27,15.44 -32.48,27.41 -3.73,5.9 -6.4,12.3 -8.01,18.81 -1.7,6.49 -2.43,13.09 -2.1,19.48 0.31,12.86 4.76,24.65 10.77,34.22 6.1,9.62 14.34,16.71 22.6,21.57 16.81,9.77 33.38,10.09 43.72,8.35 10.54,-1.8 15.71,-4.85 15.71,-4.85 -0.15,-0.45 -5.55,2.07 -15.92,3.38 -10.17,1.26 -26.16,0.48 -42.14,-9.19 -7.84,-4.82 -15.6,-11.72 -21.31,-20.96 -5.61,-9.2 -9.73,-20.45 -9.93,-32.63 -0.27,-6.07 0.48,-12.32 2.12,-18.45 1.55,-6.15 4.11,-12.2 7.67,-17.76 6.85,-11.3 17.78,-20.51 30.72,-25.84 13.04,-5.09 27.29,-6.01 40.05,-2.59 6.42,1.56 12.45,4.15 17.82,7.52 5.43,3.28 10.29,7.28 14.29,11.85 8.29,8.93 13.09,19.91 15.41,30.43 2.27,10.61 1.43,20.97 -0.89,29.88 -4.83,18.03 -15.83,29.66 -24.06,35.79 -8.39,6.23 -14.04,8.15 -13.83,8.57" /><path
         id="path68"
         style="fill:#fafaf9;fill-opacity:1;fill-rule:nonzero;stroke:none"
         d="m 2652.35,2744.68 c -0.04,-0.02 0.03,0.76 0.24,2.33 0.23,1.72 0.56,4.02 0.97,7.01 0.95,6.42 2.33,15.67 4.12,27.68 l 0.37,-0.66 c -14.74,5.83 -34.12,13.48 -57.56,22.74 l 1.15,0.35 c -6.4,-9.35 -13.51,-19.74 -21.13,-30.85 l -0.38,-0.55 -0.68,0.08 c -12.49,1.49 -26.02,1.5 -40.03,-0.57 l -0.75,-0.11 -0.45,0.61 c -6.86,9.43 -14.28,19.64 -22.01,30.25 l 1.63,-0.45 c -17.9,-7.69 -36.9,-15.85 -56.85,-24.42 l 0.88,1.65 c 2.11,-11.39 4.42,-23.93 6.79,-36.79 l 0.18,-0.94 -0.75,-0.58 c -9.8,-7.65 -19.57,-17.35 -27.9,-28.57 l -0.59,-0.8 -0.99,0.16 c -11.44,1.82 -24.07,3.83 -36.92,5.88 l 1.85,1.04 c -7.23,-18.05 -15.02,-37.51 -23.01,-57.46 l -0.64,2.12 c 9.58,-6.61 20.11,-13.87 30.77,-21.23 l 0.91,-0.62 -0.13,-1.09 c -1.53,-12.4 -1.55,-26.18 0.47,-39.86 l 0.16,-1.1 -0.91,-0.66 c -9.49,-6.87 -19.84,-14.37 -30.3,-21.94 l 0.63,2.24 c 7.69,-18.02 15.94,-37.33 24.31,-56.91 l -2.08,1.12 c 11.62,2.12 24.17,4.41 36.8,6.72 l 1.13,0.21 0.71,-0.91 c 7.79,-9.99 17.47,-19.68 28.44,-27.85 l 0.01,-0.02 h 0.01 c 0.33,-0.82 -0.73,1.83 0.74,-1.84 v -0.03 l -0.01,-0.07 -0.03,-0.15 -0.04,-0.29 -0.09,-0.58 -0.19,-1.17 -0.38,-2.32 -0.74,-4.64 -1.49,-9.26 c -0.99,-6.16 -1.98,-12.3 -2.95,-18.41 l -1.18,2.07 c 19.41,-7.8 38.56,-15.5 57.44,-23.09 l -2.26,-0.68 c 7.16,10.36 14.25,20.61 21.27,30.76 l 0.64,0.93 1.13,-0.14 c 13.39,-1.66 26.82,-1.47 39.85,0.41 l 1.11,0.16 0.66,-0.9 c 7.4,-10.26 14.7,-20.36 21.89,-30.33 l -2.18,0.6 c 19.44,8.28 38.43,16.36 56.94,24.24 l -1.04,-1.93 c -2.26,12.49 -4.48,24.76 -6.67,36.81 l -0.18,1.02 0.82,0.64 c 10.76,8.36 20.14,18.01 27.97,28.45 l 0.59,0.81 0.99,-0.16 c 12.65,-2.06 24.92,-4.05 36.9,-5.99 l -1.72,-0.98 c 8.16,20.19 15.86,39.24 23.2,57.38 l 0.52,-1.74 c -10.8,7.5 -20.93,14.54 -30.71,21.34 l -0.68,0.47 0.11,0.82 c 1.76,14.17 1.42,27.52 -0.34,40 l -0.1,0.76 0.61,0.44 c 11.04,7.93 20.99,15.07 30.38,21.82 l -0.38,-1.35 c -9.31,22.09 -17.24,40.91 -24.03,57.02 l 0.94,-0.5 c -14.72,-2.59 -26.79,-4.71 -36.85,-6.48 l -0.37,-0.07 -0.23,0.29 c -8.31,10.76 -15.74,17.69 -20.73,22.12 -2.46,2.09 -4.33,3.69 -5.72,4.86 -1.33,1.09 -1.92,1.61 -1.88,1.63 0.05,0.02 0.77,-0.45 2.08,-1.38 1.33,-0.99 3.35,-2.48 5.93,-4.63 5.15,-4.3 12.76,-11.12 21.29,-21.84 l -0.58,0.23 c 10.02,1.89 22.07,4.17 36.74,6.95 l 0.68,0.13 0.27,-0.63 c 6.93,-16.06 15.03,-34.81 24.54,-56.82 l 0.35,-0.83 -0.73,-0.53 c -9.34,-6.81 -19.25,-14.02 -30.23,-22.02 l 0.5,1.19 c 1.87,-12.67 2.29,-26.25 0.56,-40.7 l -0.58,1.3 c 9.81,-6.75 19.99,-13.74 30.82,-21.19 l 0.96,-0.66 -0.44,-1.08 c -7.25,-18.18 -14.88,-37.26 -22.96,-57.48 l -0.47,-1.17 -1.25,0.2 c -11.99,1.91 -24.26,3.85 -36.93,5.87 l 1.58,0.63 c -7.96,-10.69 -17.53,-20.59 -28.5,-29.17 l 0.62,1.65 c 2.22,-12.05 4.48,-24.32 6.77,-36.8 l 0.25,-1.37 -1.29,-0.56 c -18.5,-7.92 -37.48,-16.04 -56.89,-24.35 l -1.34,-0.57 -0.85,1.18 c -7.21,9.96 -14.53,20.05 -21.95,30.29 l 1.76,-0.74 c -13.34,-1.95 -27.12,-2.15 -40.84,-0.47 l 1.77,0.79 c -7.02,-10.15 -14.1,-20.41 -21.24,-30.77 l -0.86,-1.24 -1.4,0.56 c -18.88,7.58 -38.04,15.27 -57.44,23.06 l -1.42,0.57 0.25,1.5 c 0.97,6.11 1.96,12.25 2.95,18.41 l 1.49,9.26 0.74,4.63 0.37,2.33 0.2,1.16 0.09,0.58 0.04,0.29 0.02,0.15 0.02,0.07 v 0.04 c 1.49,-3.65 0.41,-1.01 0.74,-1.82 v 0 l -0.02,0.01 c -11.25,8.39 -21.19,18.33 -29.15,28.58 l 1.83,-0.71 c -12.63,-2.3 -25.17,-4.59 -36.8,-6.71 l -1.49,-0.27 -0.59,1.39 c -8.35,19.59 -16.59,38.91 -24.27,56.94 l -0.59,1.37 1.21,0.88 c 10.47,7.56 20.83,15.04 30.33,21.9 l -0.74,-1.76 c -2.04,14.02 -2,28.13 -0.42,40.83 l 0.76,-1.71 c -10.64,7.38 -21.16,14.66 -30.73,21.29 l -1.16,0.81 0.53,1.31 c 8.03,19.93 15.87,39.37 23.14,57.4 l 0.51,1.26 1.34,-0.21 c 12.85,-2.09 25.47,-4.13 36.9,-5.99 l -1.57,-0.64 c 8.54,11.44 18.56,21.32 28.58,29.09 l -0.57,-1.53 c -2.33,12.87 -4.59,25.42 -6.65,36.82 l -0.22,1.18 1.11,0.47 c 19.99,8.48 39.03,16.55 56.97,24.16 l 1,0.42 0.63,-0.87 c 7.67,-10.66 15.04,-20.91 21.84,-30.38 l -1.19,0.51 c 14.25,2.02 28,1.91 40.67,0.31 l -1.06,-0.47 c 7.71,11.05 14.91,21.37 21.38,30.66 l 0.45,0.64 0.71,-0.28 c 23.33,-9.53 42.62,-17.42 57.29,-23.41 l 0.46,-0.19 -0.08,-0.47 c -2.05,-11.86 -3.63,-21 -4.72,-27.33 -0.55,-3.01 -0.97,-5.33 -1.28,-7.07 -0.3,-1.59 -0.48,-2.41 -0.53,-2.43" /><path
         id="path70"
         style="fill:#17282f;fill-opacity:1;fill-rule:nonzero;stroke:none"
         d="m 3028.97,1502.35 h -730.78 v 528.64 h 730.78 v -528.64" /><path
         id="path72"
         style="fill:#33535f;fill-opacity:1;fill-rule:nonzero;stroke:none"
         d="m 2695.19,1502.35 h -637.05 v 528.64 h 637.05 v -528.64" /><path
         id="path74"
         style="fill:#33535f;fill-opacity:1;fill-rule:nonzero;stroke:none"
         d="m 2058.14,2030.99 -113.09,113.09 h 286.59 l 106.45,-113.09 h -279.95" /><path
         id="path76"
         style="fill:#33535f;fill-opacity:1;fill-rule:nonzero;stroke:none"
         d="m 2695.19,2030.99 130.09,113.09 h 356.92 l -153.23,-113.09 h -333.78" /><path
         id="path78"
         style="fill:#17282f;fill-opacity:1;fill-rule:nonzero;stroke:none"
         d="m 2695.19,2030.99 c 0,-1.43 -142.62,-2.6 -318.51,-2.6 -175.96,0 -318.54,1.17 -318.54,2.6 0,1.44 142.58,2.61 318.54,2.61 175.89,0 318.51,-1.17 318.51,-2.61" /><path
         id="path80"
         style="fill:#dadbd8;fill-opacity:1;fill-rule:nonzero;stroke:none"
         d="M 3143.68,835.809 H 1967.3 c -28.05,0 -50.78,22.73 -50.78,50.781 v 2.461 c 0,28.039 22.73,50.769 50.78,50.769 h 1176.38 c 28.05,0 50.78,-22.73 50.78,-50.769 v -2.461 c 0,-28.051 -22.73,-50.781 -50.78,-50.781" /><path
         id="path82"
         style="fill:#f03d5f;fill-opacity:1;fill-rule:nonzero;stroke:none"
         d="M 2543.78,835.809 H 1967.3 c -28.05,0 -50.78,22.73 -50.78,50.781 v 2.461 c 0,28.039 22.73,50.769 50.78,50.769 h 576.48 c 28.04,0 50.77,-22.73 50.77,-50.769 v -2.461 c 0,-28.051 -22.73,-50.781 -50.77,-50.781" /><path
         id="path84"
         style="fill:#f03d5f;fill-opacity:1;fill-rule:nonzero;stroke:none"
         d="m 2470.99,580.262 c 0,-21.301 -14.86,-37.953 -45.46,-37.953 -18.09,0 -35.27,6.273 -44.93,16.109 l 6.27,10.203 c 8.04,-8.41 22.37,-14.492 38.47,-14.492 21.3,0 32.58,10.383 32.58,25.59 0,16.109 -10.02,26.133 -41.88,26.133 h -26.67 l 6.44,62.828 h 68.56 v -11.461 h -57.28 l -4.3,-39.91 h 16.11 c 37.77,0 52.09,-14.86 52.09,-37.047" /><path
         id="path86"
         style="fill:#f03d5f;fill-opacity:1;fill-rule:nonzero;stroke:none"
         d="m 2571.39,580.262 c 0,-21.301 -14.86,-37.953 -45.46,-37.953 -18.09,0 -35.27,6.273 -44.93,16.109 l 6.27,10.203 c 8.04,-8.41 22.37,-14.492 38.47,-14.492 21.3,0 32.58,10.383 32.58,25.59 0,16.109 -10.02,26.133 -41.88,26.133 h -26.67 l 6.44,62.828 h 68.56 v -11.461 h -57.28 l -4.3,-39.91 h 16.11 c 37.77,0 52.09,-14.86 52.09,-37.047" /><path
         id="path88"
         style="fill:#f03d5f;fill-opacity:1;fill-rule:nonzero;stroke:none"
         d="m 2708.48,576.5 c 0,16.102 -7.52,25.949 -19.34,25.949 -11.63,0 -19.32,-9.66 -19.32,-25.949 0,-16.289 7.69,-25.961 19.32,-25.961 11.82,0 19.34,9.852 19.34,25.961 z m -47.61,0 c 0,20.398 11.63,34 28.27,34 16.83,0 28.28,-13.602 28.28,-34 0,-20.41 -11.45,-34.012 -28.28,-34.012 -16.64,0 -28.27,13.602 -28.27,34.012 z m 27.38,92.18 h 10.56 l -85.56,-125.301 h -10.55 z m -56.56,-33.121 c 0,16.293 -7.69,25.961 -19.33,25.961 -11.81,0 -19.33,-9.84 -19.33,-25.961 0,-16.11 7.52,-25.957 19.33,-25.957 11.64,0 19.33,9.668 19.33,25.957 z m -47.61,0 c 0,20.402 11.46,34.011 28.28,34.011 16.64,0 28.28,-13.422 28.28,-34.011 0,-20.579 -11.64,-34 -28.28,-34 -16.82,0 -28.28,13.601 -28.28,34" /><path
         id="path90"
         style="fill:#17282f;fill-opacity:1;fill-rule:nonzero;stroke:none"
         d="m 4703.96,52.8711 c 0,-1.4492 -1053.11,-2.6094 -2351.87,-2.6094 C 1052.87,50.2617 0,51.4219 0,52.8711 c 0,1.4297 1052.87,2.5898 2352.09,2.5898 1298.76,0 2351.87,-1.1601 2351.87,-2.5898" /><path
         id="path92"
         style="fill:#f8a58d;fill-opacity:1;fill-rule:nonzero;stroke:none"
         d="m 1835.61,167.012 28.72,-110.0003 321.91,2.9492 c 0,0 -44.02,33.2579 -205.78,30.8477 l -15.68,76.2034 h -129.17" /><path
         id="path94"
         style="fill:#f03d5f;fill-opacity:1;fill-rule:nonzero;stroke:none"
         d="m 1484.66,1409.67 -241.46,-22.78 -98.1,-27.76 c -41.92,-11.88 -80.28,-33.86 -111.71,-64.03 L 717.297,991.699 659.602,1463.03 501.676,1449.29 528.031,842.602 c 23.543,-73.813 92.098,-125.563 172.129,-125.774 47.379,-0.117 92.637,19.883 127.16,52.344 L 1052.4,980.719 1030.04,701.559 952.672,528.031 1505.17,216.012 c 0,0 64.89,321.226 99.73,543.437 28.19,179.77 42.51,571.341 42.51,571.341 l -162.75,78.88" /><path
         id="path96"
         style="fill:#f03d5f;fill-opacity:1;fill-rule:nonzero;stroke:none"
         d="m 1633.03,1336.33 c 0,0 122.17,-45.28 151.71,-140.95 26.2,-84.85 113.6,-561.989 113.6,-561.989 l 86.71,-504.993 -181.57,-6.898 -209.08,860.648 38.63,354.182" /><path
         id="path98"
         style="fill:#17282f;fill-opacity:1;fill-rule:nonzero;stroke:none"
         d="m 1025.45,713.93 c -1.43,0.14 6.66,96.82 18.08,215.902 11.41,119.138 21.82,215.568 23.26,215.428 1.43,-0.14 -6.67,-96.79 -18.08,-215.92 -11.41,-119.09 -21.83,-215.551 -23.26,-215.41" /><path
         id="path100"
         style="fill:#17282f;fill-opacity:1;fill-rule:nonzero;stroke:none"
         d="m 1427.57,951.289 c 0.17,-0.059 -0.39,-1.687 -1.59,-4.711 -1.5,-3.566 -3.32,-7.898 -5.53,-13.16 -2.36,-5.727 -5.46,-12.648 -9.72,-20.379 -4.16,-7.75 -8.47,-16.84 -14.54,-26.148 -2.93,-4.743 -5.98,-9.692 -9.15,-14.821 -3.22,-5.14 -7.07,-10.14 -10.79,-15.5 -7.28,-10.859 -16.31,-21.511 -25.56,-32.91 -19.25,-22.172 -42.18,-45.058 -68.63,-66.301 -26.69,-20.968 -54.19,-38.121 -80.14,-51.859 -13.2,-6.422 -25.63,-12.801 -37.85,-17.441 -6.07,-2.411 -11.81,-5.028 -17.54,-7 -5.72,-1.918 -11.23,-3.778 -16.51,-5.547 -10.43,-3.813 -20.27,-5.942 -28.77,-8.25 -8.48,-2.391 -15.93,-3.844 -22.05,-4.844 -5.61,-0.969 -10.25,-1.758 -14.06,-2.398 -3.22,-0.5 -4.92,-0.668 -4.95,-0.489 -0.03,0.168 1.61,0.688 4.76,1.508 3.75,0.91 8.31,2.02 13.83,3.359 6.03,1.301 13.36,3.032 21.72,5.68 8.37,2.551 18.07,4.922 28.35,8.922 5.2,1.871 10.63,3.801 16.27,5.82 5.64,2.059 11.3,4.75 17.27,7.231 12.05,4.75 24.29,11.23 37.3,17.699 25.58,13.852 52.71,30.941 79.13,51.68 26.18,21.039 48.96,43.582 68.24,65.351 9.25,11.219 18.33,21.66 25.69,32.328 3.76,5.25 7.67,10.153 10.95,15.18 3.24,5.039 6.36,9.891 9.35,14.531 6.23,9.11 10.73,18.008 15.11,25.59 4.47,7.551 7.82,14.301 10.46,19.879 2.55,5.07 4.66,9.262 6.39,12.711 1.52,2.879 2.4,4.359 2.56,4.289" /><path
         id="path102"
         style="fill:#da314b;fill-opacity:1;fill-rule:nonzero;stroke:none"
         d="m 1086.3,666.121 c -15.47,6.598 -23.21,26.629 -18.99,43.258 4.51,17.75 19.45,31.293 35.98,39.223 16.52,7.929 34.79,11.218 52.59,15.57 77.23,18.84 149.09,59.156 205.42,115.238 4.11,4.078 9.59,8.52 14.89,8.52 1.44,0 2.87,-0.328 4.26,-1.09 4.14,-2.262 5.07,-6.461 4.21,-11.051 -0.32,-0.5 -0.64,-1 -0.96,-1.5 -3.28,-5.027 -7.19,-9.93 -10.95,-15.18 -4.64,-6.73 -9.97,-13.371 -15.59,-20.168 -71.62,-76.089 -161.53,-134.902 -260,-169.89 -3.87,-1.153 -7.5,-2.11 -10.86,-2.93" /><path
         id="path104"
         style="fill:#111d23;fill-opacity:1;fill-rule:nonzero;stroke:none"
         d="m 1083.94,664.52 c 1.16,0.378 2.31,0.769 3.47,1.16 0.7,-0.27 1.42,-0.508 2.15,-0.711 l -5.62,-0.449 m 3.47,1.16 c -0.37,0.14 -0.74,0.281 -1.11,0.441 3.36,0.82 6.99,1.777 10.86,2.93 -3.24,-1.153 -6.5,-2.281 -9.75,-3.371 m 269.75,173.261 c 5.62,6.797 10.95,13.438 15.59,20.168 3.76,5.25 7.67,10.153 10.95,15.18 0.32,0.5 0.64,1 0.96,1.5 -0.94,-5.039 -4.04,-10.559 -7.42,-14.5 -6.52,-7.598 -13.22,-15.051 -20.08,-22.348" /><path
         id="path106"
         style="fill:#17282f;fill-opacity:1;fill-rule:nonzero;stroke:none"
         d="m 1641.19,778.621 c -0.35,-0.09 -1.65,3.57 -3.69,10.27 -2.05,6.687 -4.81,16.437 -8.07,28.527 -6.52,24.16 -14.92,57.703 -23.3,94.961 -8.38,37.269 -15.15,71.191 -19.61,95.821 -2.23,12.31 -3.9,22.3 -4.92,29.23 -1.02,6.93 -1.41,10.79 -1.06,10.86 0.35,0.06 1.42,-3.67 3.05,-10.47 1.8,-7.94 3.98,-17.58 6.54,-28.9 5.67,-25.639 12.99,-58.772 21.08,-95.4 8.37,-36.551 15.93,-69.61 21.79,-95.211 2.53,-11.329 4.69,-20.977 6.46,-28.918 1.44,-6.852 2.07,-10.68 1.73,-10.77" /><path
         id="path108"
         style="fill:#17282f;fill-opacity:1;fill-rule:nonzero;stroke:none"
         d="m 529.609,1403.98 c -1.433,-0.13 -3.504,10.54 -4.625,23.81 -1.121,13.27 -0.867,24.13 0.571,24.25 1.429,0.11 3.5,-10.54 4.621,-23.81 1.121,-13.27 0.867,-24.13 -0.567,-24.25" /><path
         id="path110"
         style="fill:#17282f;fill-opacity:1;fill-rule:nonzero;stroke:none"
         d="m 575.816,1402.52 c -1.441,-0.07 -3.183,11.27 -3.902,25.35 -0.719,14.07 -0.133,25.53 1.305,25.61 1.433,0.07 3.183,-11.28 3.894,-25.35 0.719,-14.07 0.141,-25.54 -1.297,-25.61" /><path
         id="path112"
         style="fill:#17282f;fill-opacity:1;fill-rule:nonzero;stroke:none"
         d="m 621.742,1405.46 c -1.433,-0.07 -3.308,12.57 -4.183,28.24 -0.875,15.67 -0.422,28.44 1.015,28.52 1.434,0.08 3.309,-12.56 4.188,-28.23 0.871,-15.67 0.418,-28.44 -1.02,-28.53" /><path
         id="path114"
         style="fill:#17282f;fill-opacity:1;fill-rule:nonzero;stroke:none"
         d="m 710.547,919.301 c -1.43,0.148 -0.672,18.847 1.691,41.758 2.364,22.921 5.434,41.381 6.867,41.231 1.426,-0.15 0.676,-18.841 -1.691,-41.77 -2.363,-22.911 -5.437,-41.36 -6.867,-41.219" /><path
         id="path116"
         style="fill:#17282f;fill-opacity:1;fill-rule:nonzero;stroke:none"
         d="m 1833.34,174.09 c 1.42,0.238 4.56,-11.102 7.01,-25.32 2.46,-14.231 3.3,-25.961 1.88,-26.211 -1.41,-0.239 -4.55,11.101 -7.01,25.332 -2.46,14.218 -3.3,25.949 -1.88,26.199" /><path
         id="path118"
         style="fill:#17282f;fill-opacity:1;fill-rule:nonzero;stroke:none"
         d="m 1893.05,174.129 c 1.42,0.23 4.31,-10.039 6.46,-22.949 2.15,-12.91 2.74,-23.571 1.32,-23.801 -1.42,-0.238 -4.31,10.039 -6.46,22.949 -2.15,12.91 -2.74,23.563 -1.32,23.801" /><path
         id="path120"
         style="fill:#17282f;fill-opacity:1;fill-rule:nonzero;stroke:none"
         d="m 1949.7,179.879 c 1.46,0.121 3.52,-11.578 5.96,-25.938 2.4,-14.363 4.28,-26.089 2.87,-26.453 -1.37,-0.379 -5.56,10.961 -8.01,25.582 -2.47,14.621 -2.23,26.711 -0.82,26.809" /><path
         id="path122"
         style="fill:#17282f;fill-opacity:1;fill-rule:nonzero;stroke:none"
         d="m 1731.07,1277.52 c 0.01,-0.96 -12.68,-0.2 -32.36,-4.31 -19.53,-3.98 -46.22,-14.09 -69.28,-34.2 -23.04,-20.13 -36.68,-45.21 -43.25,-64.02 -6.75,-18.95 -7.7,-31.62 -8.65,-31.48 -0.33,0.03 -0.41,3.19 0.16,8.9 0.55,5.7 2,13.9 4.99,23.75 5.83,19.57 19.41,45.89 43.33,66.78 23.93,20.86 51.84,30.77 72.02,33.88 10.15,1.64 18.48,1.96 24.2,1.74 5.72,-0.21 8.86,-0.72 8.84,-1.04" /><path
         id="path124"
         style="fill:#fafaf9;fill-opacity:1;fill-rule:nonzero;stroke:none"
         d="m 1805.74,1072.25 c 0.24,-0.65 -11.23,-5.62 -30.12,-12.77 -18.89,-7.15 -45.23,-16.38 -74.65,-25.58 -29.43,-9.18 -56.35,-16.58 -75.94,-21.45 -19.61,-4.88 -31.87,-7.31 -32.05,-6.63 -0.18,0.71 11.75,4.41 31.07,10.18 20.75,6.3 46.68,14.17 75.37,22.87 28.53,9.17 54.34,17.45 74.98,24.08 19.17,6.24 31.09,9.99 31.34,9.3" /><path
         id="path126"
         style="fill:#fafaf9;fill-opacity:1;fill-rule:nonzero;stroke:none"
         d="m 1882.76,724.172 c 0.13,-0.711 -11.85,-3.91 -31.32,-8.5 -19.48,-4.59 -46.45,-10.582 -76.29,-16.891 -29.87,-6.293 -56.95,-11.711 -76.62,-15.39 -19.67,-3.661 -31.92,-5.582 -32.08,-4.879 -0.17,0.687 11.79,3.886 31.27,8.476 19.47,4.59 46.47,10.582 76.35,16.891 29.88,6.312 56.98,11.73 76.65,15.402 19.67,3.668 31.9,5.59 32.04,4.891" /><path
         id="path128"
         style="fill:#fafaf9;fill-opacity:1;fill-rule:nonzero;stroke:none"
         d="m 1970.07,288.449 c -0.02,-0.75 -11.49,-1.058 -30,-1.551 -18.51,-0.468 -44.05,-1.257 -72.23,-2.867 -28.19,-1.633 -53.65,-3.781 -72.1,-5.429 -18.43,-1.641 -29.87,-2.653 -29.97,-1.911 -0.1,0.68 11.17,2.977 29.56,5.571 18.38,2.59 43.91,5.328 72.21,6.968 28.3,1.622 53.97,1.821 72.53,1.348 18.56,-0.457 30.01,-1.437 30,-2.129" /><path
         id="path130"
         style="fill:#fafaf9;fill-opacity:1;fill-rule:nonzero;stroke:none"
         d="m 1168.61,698.07 c -0.34,-0.64 -8.21,2.871 -20.77,8.852 -14.36,6.867 -30.8,14.75 -48.95,23.43 -18.2,8.57 -34.69,16.339 -49.1,23.128 -12.56,5.961 -20.26,9.829 -19.98,10.508 0.27,0.641 8.48,-2.027 21.45,-7.129 12.96,-5.097 30.65,-12.679 49.87,-21.808 19.2,-9.121 36.26,-18.039 48.41,-24.86 12.15,-6.832 19.41,-11.492 19.07,-12.121" /><path
         id="path132"
         style="fill:#fafaf9;fill-opacity:1;fill-rule:nonzero;stroke:none"
         d="m 1571.06,629.801 c -0.16,-0.332 -4.36,1.289 -11.81,4.469 -8.4,3.671 -18.93,8.25 -31.46,13.71 -26.54,11.61 -63.31,27.379 -104.32,43.79 -41.04,16.402 -78.55,30.332 -105.77,40.23 -12.84,4.691 -23.63,8.621 -32.24,11.77 -7.59,2.832 -11.74,4.55 -11.63,4.89 0.11,0.34 4.47,-0.73 12.27,-2.969 7.81,-2.222 19.02,-5.703 32.8,-10.222 27.58,-9.008 65.37,-22.43 106.5,-38.86 41.11,-16.449 77.73,-32.8 103.92,-45.281 13.09,-6.238 23.62,-11.449 30.8,-15.219 7.2,-3.757 11.1,-5.988 10.94,-6.308" /><path
         id="path134"
         style="fill:#fafaf9;fill-opacity:1;fill-rule:nonzero;stroke:none"
         d="m 1602.4,913.941 c -0.03,-0.179 -1.97,-0.011 -5.64,0.481 -4.22,0.629 -9.51,1.43 -15.97,2.387 -14.57,2.371 -34.43,5.582 -58.65,9.5 -49.49,8.089 -117.9,19.031 -193.6,30.179 -75.72,11.133 -144.39,20.352 -194.12,26.864 -24.32,3.226 -44.26,5.859 -58.89,7.796 -6.47,0.942 -11.76,1.704 -15.99,2.313 -3.65,0.59 -5.55,0.98 -5.54,1.16 0.02,0.18 1.97,0.129 5.66,-0.109 4.26,-0.364 9.58,-0.801 16.1,-1.352 13.98,-1.262 34.17,-3.351 59.1,-6.14 49.87,-5.59 118.67,-14.239 194.44,-25.372 75.74,-11.168 144.11,-22.687 193.47,-31.699 24.68,-4.508 44.63,-8.32 58.37,-11.148 6.4,-1.352 11.63,-2.461 15.81,-3.352 3.61,-0.82 5.49,-1.328 5.45,-1.508" /><path
         id="path136"
         style="fill:#fafaf9;fill-opacity:1;fill-rule:nonzero;stroke:none"
         d="m 1579.77,1214.05 c -0.21,-1.43 -108.42,13.56 -241.66,33.47 -133.28,19.92 -241.12,37.21 -240.91,38.64 0.21,1.41 108.4,-13.57 241.68,-33.49 133.24,-19.9 241.11,-37.21 240.89,-38.62" /><path
         id="path138"
         style="fill:#fafaf9;fill-opacity:1;fill-rule:nonzero;stroke:none"
         d="m 1012.95,951.59 c -0.68,-0.289 -6.39,12.199 -15.36,32.48 -9.567,21.54 -21.719,48.89 -35.152,79.14 -13.731,30.14 -26.141,57.37 -35.915,78.82 -9.218,20.16 -14.781,32.71 -14.121,33.04 0.325,0.16 2.149,-2.76 5.176,-8.18 3.031,-5.43 7.223,-13.37 12.262,-23.26 10.082,-19.78 23.437,-47.38 37.344,-78.28 13.89,-30.89 25.695,-59.2 33.806,-79.862 4.05,-10.328 7.22,-18.738 9.26,-24.609 2.06,-5.859 3.04,-9.16 2.7,-9.289" /><path
         id="path140"
         style="fill:#fafaf9;fill-opacity:1;fill-rule:nonzero;stroke:none"
         d="m 797.535,740.781 c -1.406,-0.301 -15.191,60.09 -30.781,134.86 -15.602,74.8 -27.102,135.649 -25.688,135.949 1.407,0.3 15.184,-60.078 30.786,-134.891 15.589,-74.769 27.093,-135.629 25.683,-135.918" /><path
         id="path142"
         style="fill:#fafaf9;fill-opacity:1;fill-rule:nonzero;stroke:none"
         d="m 708.52,1068.88 c 0.304,-1.4 -41.668,-11.59 -93.727,-22.74 -52.086,-11.15 -94.531,-19.05 -94.836,-17.65 -0.305,1.41 41.66,11.58 93.738,22.75 52.067,11.15 94.524,19.05 94.825,17.64" /><path
         id="path144"
         style="fill:#fafaf9;fill-opacity:1;fill-rule:nonzero;stroke:none"
         d="m 677.168,1342.34 c 0.102,-0.69 -9.305,-2.79 -24.652,-5.4 -15.34,-2.62 -36.625,-5.69 -60.219,-8.38 -23.602,-2.68 -45.031,-4.45 -60.567,-5.35 -15.542,-0.9 -25.179,-0.97 -25.234,-0.27 -0.058,0.74 9.477,2.1 24.906,3.94 17.301,1.96 37.731,4.29 60.309,6.86 22.57,2.56 42.996,4.88 60.297,6.84 15.453,1.68 25.055,2.49 25.16,1.76" /><path
         id="path146"
         style="fill:#33535f;fill-opacity:1;fill-rule:nonzero;stroke:none"
         d="m 758.457,1817.37 c 2.856,-5.66 77.941,-391.66 77.941,-391.66 l -177.05,-8.26 -68.555,331.94 167.664,67.98" /><path
         id="path148"
         style="fill:#17282f;fill-opacity:1;fill-rule:nonzero;stroke:none"
         d="m 836.398,1425.71 20.278,8.57 -76.613,380.5 -24.032,1.6 80.367,-390.67" /><path
         id="path150"
         style="fill:#17282f;fill-opacity:1;fill-rule:nonzero;stroke:none"
         d="m 687.277,1732.99 c 0.618,-5.03 -2.957,-9.61 -7.984,-10.22 -5.027,-0.63 -9.609,2.95 -10.23,7.98 -0.614,5.03 2.96,9.61 7.984,10.23 5.027,0.62 9.609,-2.96 10.23,-7.99" /><path
         id="path152"
         style="fill:#f8a58d;fill-opacity:1;fill-rule:nonzero;stroke:none"
         d="m 650.727,1462.02 -2.625,50.54 75.632,31.17 -29.492,70.04 c -14.367,32.67 -53.582,46.09 -84.949,29.08 -10.109,-5.48 -20.734,-11.25 -30.344,-16.48 -21.613,-11.74 -37.332,-32.04 -43.047,-55.96 -9.855,-41.27 -18.484,-127.33 -17.57,-123.45" /><path
         id="path154"
         style="fill:#f03d5f;fill-opacity:1;fill-rule:nonzero;stroke:none"
         d="m 448.273,175.148 c 0,0 -311.168,-86.1089 -323.652,-90.5074 -18.746,-6.6015 -15.598,-75.28122 13.574,-74.1992 13.797,0.5 239.008,-8.39062 267.465,-6.62109 28.453,1.78907 114.301,35.62109 114.301,35.62109 L 448.273,175.148" /><path
         id="path156"
         style="fill:#17282f;fill-opacity:1;fill-rule:nonzero;stroke:none"
         d="m 318.645,56.4219 c -1.563,-0.211 -3.668,16.25 -13.711,33.4101 -9.801,17.316 -22.973,27.398 -22.004,28.648 0.547,1.188 16.004,-7.582 26.515,-26.0503 10.692,-18.3594 10.512,-36.1406 9.2,-36.0078" /><path
         id="path158"
         style="fill:#17282f;fill-opacity:1;fill-rule:nonzero;stroke:none"
         d="m 351.09,71.1406 c -1.524,-0.2695 -4.68,14.4375 -12.965,30.6874 -8.125,16.352 -18.066,27.641 -16.941,28.703 0.851,1.028 13.011,-9.152 21.593,-26.351 8.703,-17.1292 9.641,-32.9612 8.313,-33.0394" /><path
         id="path160"
         style="fill:#17282f;fill-opacity:1;fill-rule:nonzero;stroke:none"
         d="m 381.52,79.2891 c -1.567,0.0898 -0.372,15.6406 -7.278,32.8709 -6.613,17.36 -18.035,27.961 -16.945,29.11 0.617,1.179 14.574,-8.442 21.797,-27.211 7.418,-18.6801 3.683,-35.2192 2.426,-34.7699" /><path
         id="path162"
         style="fill:#17282f;fill-opacity:1;fill-rule:nonzero;stroke:none"
         d="m 375.996,119.48 c -0.555,-0.14 -3.308,8.551 -3.34,23.149 0.028,7.281 0.86,15.98 3.157,25.371 1.136,4.699 2.675,9.551 4.628,14.449 1.008,2.469 2.157,5.313 4.985,7.621 2.898,2.61 8.183,2.071 10.687,-0.519 2.852,-2.481 3.754,-5.992 4.141,-8.801 0.316,-2.859 0.473,-5.52 0.41,-8.23 -0.078,-5.352 -0.769,-10.481 -1.922,-15.219 -2.301,-9.512 -6.008,-17.469 -9.578,-23.789 -7.25,-12.633 -13.531,-19.082 -13.976,-18.731 -0.711,0.489 4.5,7.739 10.714,20.43 3.059,6.348 6.246,14.141 8.161,23.141 0.957,4.476 1.496,9.269 1.5,14.207 -0.141,4.781 -0.075,10.769 -2.868,13.062 -1.484,1.219 -2.82,1.309 -4.117,0.34 -1.375,-1.043 -2.523,-3.172 -3.41,-5.441 -1.93,-4.649 -3.496,-9.25 -4.715,-13.731 -2.449,-8.93 -3.633,-17.258 -4.113,-24.289 -0.914,-14.09 0.508,-22.898 -0.344,-23.02" /><path
         id="path164"
         style="fill:#17282f;fill-opacity:1;fill-rule:nonzero;stroke:none"
         d="m 376.383,122.641 c -0.141,0.57 7.367,3.16 20.074,3.238 6.316,0.012 13.906,-0.649 22.074,-2.699 4.032,-1.09 8.36,-2.129 12.715,-4.692 4.262,-2.16 8.727,-8.066 7.031,-14.218 -1.332,-5.7817 -6.289,-9.8286 -11.207,-11.0981 -4.957,-1.3906 -9.754,-0.8906 -13.961,0.039 -8.535,1.9493 -15.179,6.1602 -20.214,9.9301 -9.969,7.82 -14.84,13.82 -14.465,14.25 0.547,0.66 6.437,-4.45 16.578,-11.223 5.094,-3.258 11.48,-6.7891 19.082,-8.2578 3.781,-0.7305 7.859,-0.961 11.543,0.1484 3.66,1.0117 6.703,3.8004 7.578,7.3904 0.891,3.492 -1.223,6.66 -4.625,8.699 -3.336,2.063 -7.461,3.25 -11.289,4.391 -7.699,2.199 -14.899,3.211 -20.969,3.66 -12.176,0.852 -19.812,-0.39 -19.945,0.442" /><path
         id="path166"
         style="fill:#17282f;fill-opacity:1;fill-rule:nonzero;stroke:none"
         d="m 270.832,53.0898 c -1.539,0.1797 -0.016,13.4805 -6.133,28.0704 -5.828,14.7109 -16.211,23.1488 -15.234,24.3518 0.512,1.269 13.523,-6.1018 20.058,-22.3909 6.711,-16.1992 2.567,-30.582 1.309,-30.0313" /><path
         id="path168"
         style="fill:#17282f;fill-opacity:1;fill-rule:nonzero;stroke:none"
         d="m 487.953,38.7305 c 0.141,-0.3399 -4.14,-2.3321 -12.035,-5.6602 -7.996,-3.0312 -19.691,-7.2422 -34.629,-10.7305 -29.762,-7.5 -72.187,-11.7617 -118.797,-11.2578 -46.633,0.5078 -88.648,2.6368 -119.121,3.8594 -14.426,0.7578 -26.516,1.3867 -36.062,1.8984 -8.508,0.5704 -13.207,1.0586 -13.196,1.4219 0.008,0.3594 4.731,0.5469 13.262,0.6094 9.555,-0.0703 21.66,-0.1523 36.102,-0.25 31.519,-0.6328 73.082,-1.4414 119.043,-2.3398 46.398,-0.4805 88.316,3.1484 117.96,9.6367 29.747,6.1211 47.114,13.7734 47.473,12.8125" /><path
         id="path170"
         style="fill:#17282f;fill-opacity:1;fill-rule:nonzero;stroke:none"
         d="m 497.152,31.6406 c -0.418,-0.7226 -8.933,4.25 -23.308,10.5586 -14.207,6.1016 -35.504,13.4024 -58.883,9.7891 C 391.512,48.3906 374.891,32.6484 364.063,21.7109 353.156,10.3906 346.766,2.87109 346.133,3.39063 c -0.473,0.39062 4.84,8.66017 15.226,20.82027 5.254,6.0079 11.914,12.9805 20.633,19.2891 8.617,6.3398 19.719,11.7305 32.149,13.6289 25.082,3.8399 47.183,-4.5391 61.254,-11.5898 14.273,-7.3008 22.078,-13.3985 21.757,-13.8985" /><path
         id="path172"
         style="fill:#f03d5f;fill-opacity:1;fill-rule:nonzero;stroke:none"
         d="m 778.555,261.07 c 0,0 294.445,-192.7887 305.015,-200.7692 15.85,-11.9805 -2.34,-69.03127 -29.8,-59.15236 -13,4.67187 -260.079,73.40236 -286.649,83.74216 -26.574,10.3399 -98.094,68.6404 -98.094,68.6404 L 778.555,261.07" /><path
         id="path174"
         style="fill:#17282f;fill-opacity:1;fill-rule:nonzero;stroke:none"
         d="m 866.004,108.582 c -1.297,0.27 3.934,17.258 19.695,31.508 15.629,14.41 33.02,18.07 33.172,16.762 0.551,-1.481 -15.066,-7.09 -29.66,-20.602 -14.785,-13.309 -21.789,-28.352 -23.207,-27.668" /><path
         id="path176"
         style="fill:#17282f;fill-opacity:1;fill-rule:nonzero;stroke:none"
         d="m 839.555,132.449 c -1.242,0.481 4.457,15.27 17.953,28.949 13.402,13.782 28.074,19.793 28.582,18.563 0.742,-1.359 -12.16,-9.102 -24.86,-22.199 -12.832,-12.973 -20.3,-26.032 -21.675,-25.313" /><path
         id="path178"
         style="fill:#17282f;fill-opacity:1;fill-rule:nonzero;stroke:none"
         d="m 813.039,149.461 c -1.34,-0.051 0.133,16.828 12.871,32.379 12.578,15.691 28.793,20.621 29.028,19.301 0.695,-1.411 -13.411,-8.051 -24.981,-22.571 -11.812,-14.332 -15.394,-29.5 -16.918,-29.109" /><path
         id="path180"
         style="fill:#17282f;fill-opacity:1;fill-rule:nonzero;stroke:none"
         d="m 830.504,186.07 c -0.774,0.379 3.258,8.34 6.664,22.039 1.676,6.84 3.078,15.129 3.465,24.403 0.191,4.617 0.101,9.5 -0.324,14.508 -0.161,2.421 -0.61,4.8 -1.598,6.218 -0.941,1.313 -2.242,1.641 -4.027,0.922 -3.364,-1.34 -5.114,-7.058 -6.696,-11.582 -1.5,-4.699 -2.441,-9.43 -2.89,-13.988 -0.907,-9.149 -0.239,-17.551 0.746,-24.52 2.066,-13.98 4.832,-22.468 4.004,-22.73 -0.528,-0.192 -4.555,7.859 -7.629,22.09 -1.481,7.109 -2.594,15.82 -1.903,25.582 0.344,4.859 1.247,9.968 2.801,15.097 0.754,2.582 1.711,5.082 2.879,7.7 1.227,2.562 3.149,5.632 6.621,7.132 3.176,1.707 8.371,0.618 10.344,-2.742 1.992,-3.07 2.227,-6.129 2.434,-8.781 0.371,-5.258 0.367,-10.348 0.027,-15.168 -0.668,-9.648 -2.516,-18.199 -4.703,-25.141 -4.461,-13.898 -9.727,-21.339 -10.215,-21.039" /><path
         id="path182"
         style="fill:#17282f;fill-opacity:1;fill-rule:nonzero;stroke:none"
         d="m 831.098,189.199 c -0.379,-0.75 -7.274,2.75 -19.133,5.641 -5.922,1.422 -13.086,2.64 -21.094,2.879 -3.996,0.07 -8.285,0.203 -12.09,-0.758 -3.859,-0.902 -6.836,-3.293 -7.043,-6.883 -0.261,-3.68 1.793,-7.269 4.973,-9.34 3.172,-2.179 7.125,-3.199 10.945,-3.66 7.696,-0.898 14.852,0.524 20.696,2.082 11.711,3.36 18.878,6.449 19.203,5.66 0.222,-0.531 -6.235,-4.761 -18.11,-9.179 -5.949,-2.071 -13.55,-4.051 -22.281,-3.332 -4.285,0.39 -9.008,1.382 -13.312,4.203 -4.301,2.699 -7.793,8.066 -7.301,13.976 0.254,6.371 6.297,10.66 11.012,11.422 4.929,1.11 9.367,0.789 13.542,0.61 8.403,-0.532 15.833,-2.2 21.856,-4.141 12.074,-3.938 18.445,-8.68 18.137,-9.18" /><path
         id="path184"
         style="fill:#17282f;fill-opacity:1;fill-rule:nonzero;stroke:none"
         d="m 1016.25,11.8984 c -0.34,-0.457 -4.96,2.9805 -7.21,11.4219 -2.46,8.2188 -0.91,20.8711 5.52,31.9414 3.07,5.5899 6.6,10.4375 9.86,14.7071 3.22,4.2695 6.55,8.1406 10,10.7226 3.4,2.6602 6.96,3.8477 9.4,3.9297 2.47,0.1094 3.72,-0.4922 3.69,-0.793 -0.01,-0.8086 -5.26,-0.4179 -10.71,-5.9492 -2.77,-2.6289 -5.51,-6.3203 -8.5,-10.7383 -3.01,-4.3789 -6.3,-9.1523 -9.18,-14.3789 -5.96,-10.3828 -7.74,-21.1133 -6.47,-28.7109 1.07,-7.6211 4.29,-11.6406 3.6,-12.1524" /><path
         id="path186"
         style="fill:#17282f;fill-opacity:1;fill-rule:nonzero;stroke:none"
         d="m 910.543,90.8789 c -1.367,-0.1406 -0.953,14.8121 10.367,28.2231 11.172,13.527 25.809,16.609 25.91,15.238 0.567,-1.442 -11.89,-6.34 -21.914,-18.578 -10.258,-12.043 -12.843,-25.1839 -14.363,-24.8831" /><path
         id="path188"
         style="fill:#17282f;fill-opacity:1;fill-rule:nonzero;stroke:none"
         d="m 699.313,143.129 c 0.257,0.312 4.765,-3.008 12.945,-8.879 8.281,-5.73 20.449,-13.762 36.301,-22.238 15.836,-8.512 35.382,-17.3323 57.664,-25.6722 22.297,-8.3203 47.304,-16.1601 73.75,-23.8203 52.972,-15.25 100.929,-29.1914 135.527,-39.5976 16.6,-5.1016 30.37,-9.3321 40.92,-12.5703 9.63,-3.08207 14.9,-4.94144 14.81,-5.29301 -0.1,-0.34765 -5.57,0.85938 -15.37,3.33985 -10.66,2.83986 -24.59,6.53126 -41.37,10.97266 -34.869,9.5078 -82.951,22.8789 -135.978,38.1484 -26.496,7.6797 -51.614,15.711 -73.989,24.3321 -22.371,8.6601 -41.972,17.9297 -57.746,26.9294 -15.789,9 -27.765,17.571 -35.73,23.848 -7.867,6.41 -11.942,10.269 -11.734,10.5" /><path
         id="path190"
         style="fill:#17282f;fill-opacity:1;fill-rule:nonzero;stroke:none"
         d="m 688.395,139.18 c -0.149,0.57 9.128,4.011 24.953,6.629 15.543,2.453 39.148,3.722 61.882,-7.559 11.258,-5.59 20.2,-14.09 26.489,-22.75 6.39,-8.66 10.621,-17.3203 13.801,-24.6484 6.203,-14.7305 8.753,-24.2227 8.183,-24.4532 -0.762,-0.3086 -4.566,8.793 -11.519,22.8907 -6.993,13.7109 -18.047,33.7619 -39.301,44.3129 -21.18,10.546 -43.684,10.046 -59.07,8.546 -15.614,-1.636 -25.239,-3.789 -25.418,-2.968" /><path
         id="path192"
         style="fill:#f8a58d;fill-opacity:1;fill-rule:nonzero;stroke:none"
         d="m 1468.57,1788.46 19.22,-388.9 c 3.27,-66.15 -49.47,-121.56 -115.69,-121.56 -61.79,0 -112.71,48.58 -115.7,110.3 -1.41,29.27 -2.65,53.69 -3,56.69 0,0 -99.46,4.42 -111.46,102.06 -5.79,47.17 -9.81,145.33 -12.42,234.18 -2.81,95.41 68.25,176.94 163.13,187.4 l 9.43,1.04 c 102.37,5.28 164.05,-78.72 166.49,-181.21" /><path
         id="path194"
         style="fill:#f68260;fill-opacity:1;fill-rule:nonzero;stroke:none"
         d="m 1253.08,1446.38 c 0,0 62.35,1.79 123.47,50.29 0,0 -22.37,-73.7 -120.9,-75.65 l -2.57,25.36" /><path
         id="path196"
         style="fill:#17282f;fill-opacity:1;fill-rule:nonzero;stroke:none"
         d="m 1160.59,1720.19 c 0.55,-7.39 7.28,-13.03 15.02,-12.6 7.73,0.44 13.56,6.78 13,14.18 -0.55,7.41 -7.27,13.05 -15,12.61 -7.74,-0.43 -13.57,-6.79 -13.02,-14.19" /><path
         id="path198"
         style="fill:#17282f;fill-opacity:1;fill-rule:nonzero;stroke:none"
         d="m 1155.82,1735.55 c 1.92,-1.62 11.64,7.38 26.67,8.99 14.99,1.83 26.87,-4.68 28.29,-2.66 0.71,0.9 -1.41,3.99 -6.59,6.95 -5.12,2.97 -13.55,5.46 -22.91,4.39 -9.35,-1.09 -16.84,-5.39 -20.98,-9.43 -4.23,-4.05 -5.43,-7.52 -4.48,-8.24" /><path
         id="path200"
         style="fill:#17282f;fill-opacity:1;fill-rule:nonzero;stroke:none"
         d="m 1308.12,1732.9 c 0.56,-7.41 7.28,-13.04 15.02,-12.6 7.73,0.43 13.56,6.77 13,14.17 -0.55,7.4 -7.27,13.04 -15,12.62 -7.74,-0.44 -13.57,-6.79 -13.02,-14.19" /><path
         id="path202"
         style="fill:#17282f;fill-opacity:1;fill-rule:nonzero;stroke:none"
         d="m 1303.81,1749.05 c 1.93,-1.63 11.66,7.36 26.68,8.97 14.99,1.84 26.87,-4.67 28.29,-2.65 0.71,0.89 -1.4,3.99 -6.6,6.95 -5.11,2.97 -13.54,5.46 -22.9,4.38 -9.35,-1.08 -16.84,-5.39 -20.98,-9.42 -4.22,-4.05 -5.43,-7.52 -4.49,-8.23" /><path
         id="path204"
         style="fill:#17282f;fill-opacity:1;fill-rule:nonzero;stroke:none"
         d="m 1261.57,1631.61 c -0.02,0.86 -9.54,1.44 -24.88,1.71 -3.89,-0.03 -7.6,0.33 -8.53,2.88 -1.22,2.67 -0.07,6.98 1.3,11.66 2.58,9.67 5.28,19.82 8.12,30.46 11.17,43.34 18.8,78.79 17.05,79.22 -1.74,0.44 -12.22,-34.33 -23.38,-77.66 -2.67,-10.68 -5.21,-20.85 -7.63,-30.59 -0.97,-4.52 -2.92,-9.74 -0.33,-15.28 1.35,-2.75 4.4,-4.52 6.93,-4.91 2.54,-0.48 4.7,-0.29 6.61,-0.19 15.32,0.86 24.78,1.84 24.74,2.7" /><path
         id="path206"
         style="fill:#17282f;fill-opacity:1;fill-rule:nonzero;stroke:none"
         d="m 1306.93,1626.09 c -2.45,-0.13 -0.68,-16.44 -13.37,-29.55 -12.65,-13.16 -30.24,-13.24 -30.12,-15.54 -0.11,-1.04 4.23,-2.73 11.59,-2.13 7.22,0.55 17.48,4.03 25.24,12.04 7.73,8.04 10.35,17.91 10.17,24.67 -0.14,6.89 -2.4,10.72 -3.51,10.51" /><path
         id="path208"
         style="fill:#17282f;fill-opacity:1;fill-rule:nonzero;stroke:none"
         d="m 1293.44,1807.5 c 1.93,-3.92 16.72,-0.34 34.58,-0.51 17.86,0.17 32.65,-3.42 34.58,0.51 0.85,1.86 -2.05,5.43 -8.23,8.76 -6.14,3.32 -15.64,6.06 -26.35,6.07 -10.71,-0.01 -20.22,-2.75 -26.35,-6.07 -6.18,-3.33 -9.09,-6.9 -8.23,-8.76" /><path
         id="path210"
         style="fill:#17282f;fill-opacity:1;fill-rule:nonzero;stroke:none"
         d="m 1156.54,1779.65 c 3.02,-3.12 12.98,1.57 25.41,3.1 12.37,1.98 23.24,0.24 25.27,4.08 0.87,1.85 -1.16,5.09 -6.13,7.8 -4.89,2.73 -12.77,4.53 -21.29,3.32 -8.52,-1.22 -15.6,-5.12 -19.54,-9.1 -4.01,-3.99 -5.07,-7.66 -3.72,-9.2" /><path
         id="path212"
         style="fill:#f8a58d;fill-opacity:1;fill-rule:nonzero;stroke:none"
         d="m 1468.57,1715.19 c 1.59,0.91 64.99,27.28 70.22,-39.8 5.24,-67.07 -63.18,-58.5 -63.45,-56.59 -0.26,1.92 -6.77,96.39 -6.77,96.39" /><path
         id="path214"
         style="fill:#f68260;fill-opacity:1;fill-rule:nonzero;stroke:none"
         d="m 1493.85,1645.82 c 0.28,0.24 1.23,-0.73 3.28,-1.48 1.99,-0.73 5.35,-1.08 8.74,0.5 6.89,3.15 11.98,14.87 11.36,26.99 -0.31,6.11 -2.04,11.83 -4.58,16.48 -2.43,4.74 -5.87,7.93 -9.49,8.28 -3.61,0.54 -5.97,-1.79 -6.65,-3.74 -0.75,-1.95 -0.22,-3.25 -0.56,-3.4 -0.18,-0.18 -1.53,1.01 -1.21,3.83 0.18,1.34 0.84,2.99 2.32,4.4 1.51,1.44 3.82,2.29 6.32,2.22 5.2,0.05 10.23,-4.36 13.02,-9.46 3.08,-5.09 5.17,-11.5 5.51,-18.37 0.63,-13.55 -5.3,-26.74 -14.78,-30.3 -4.62,-1.6 -8.67,-0.49 -10.83,0.94 -2.2,1.49 -2.68,2.97 -2.45,3.11" /><path
         id="path216"
         style="fill:#17282f;fill-opacity:1;fill-rule:nonzero;stroke:none"
         d="m 1505.51,1721.56 c -10.47,1.34 -27.06,-10.01 -30.36,-20.04 -3.29,-10.03 -3.05,-20.95 -6.34,-30.98 -3.27,-10.03 -12.12,-19.74 -22.59,-18.45 -7.23,0.88 -12.99,6.93 -15.61,13.72 -2.63,6.77 -2.69,14.25 -2.58,21.53 0.5,31.65 3.65,63.33 1.43,94.9 -2.21,31.58 -10.29,63.75 -29.75,88.71 -19.47,24.97 -51.96,41.32 -83.04,35.33 -20.6,-3.96 -38.45,-16.9 -58.77,-22.07 -24.09,-6.12 -50.91,-0.34 -70.34,15.17 -2.49,1.99 -13.69,7.72 -13.69,7.72 -0.18,1.62 -0.18,15.75 4.76,21.44 36.77,42.38 109.38,61.08 164.96,53.45 55.59,-7.65 110.49,-40.25 139.36,-88.36 28.85,-48.12 29.72,-119.37 22.56,-172.07" /><path
         id="path218"
         style="fill:#17282f;fill-opacity:1;fill-rule:nonzero;stroke:none"
         d="m 412.902,178.762 c 0,0 722.088,473.636 751.658,483.488 29.57,9.852 101.02,56.672 172.48,36.961 71.45,-19.711 135.51,-83.77 167.55,-177.41 32.03,-93.621 34.49,-303.063 34.49,-303.063 0,0 -56.67,-165.0778 -167.55,-199.5778 -9.24,-2.8789 -18.91,-5.2696 -28.86,-7.25 -135.35,-26.8594 -272.98,35.3789 -348.74,150.6988 l -16.114,24.532 c 0,0 -472.367,-173.5394 -479.757,-171.0707 L 412.902,178.762" /><path
         id="path220"
         style="fill:#17282f;fill-opacity:1;fill-rule:nonzero;stroke:none"
         d="m 166.652,731.25 c 0,0 -88.3317,-31.551 -88.7028,-130.602 C 77.2422,410.93 461.297,201.801 461.297,201.801 l 511.07,338.64 v 35.571 c 0,0 -657.875,236.539 -805.715,155.238" /><path
         id="path222"
         style="fill:#33535f;fill-opacity:1;fill-rule:nonzero;stroke:none"
         d="m 1306.25,309.129 c 0,0 -1.31,-0.68 -3.96,-1.75 -2.86,-1.129 -6.78,-2.699 -11.83,-4.699 -10.65,-4.098 -26.02,-10.02 -45.77,-17.629 -40.16,-15.121 -98.1,-36.949 -170.13,-64.09 C 1002.29,194.012 915.727,161.949 818.605,126.609 721.465,91.3008 613.828,52.5313 498.879,13.6211 l -2.086,-0.6992 -1.027,1.9492 c -18.043,34.457 -37.094,70.8281 -56.414,107.7309 -9.848,18.82 -19.625,37.5 -28.754,54.937 l -1.11,2.121 2,1.27 c 216.832,137.652 410.817,260.789 550.813,349.66 69.899,44.09 126.309,79.68 165.449,104.371 19.38,12.09 34.48,21.508 44.94,28.027 5.02,3.071 8.91,5.453 11.73,7.184 2.66,1.59 4.09,2.297 4.09,2.297 0,0 -1.25,-1 -3.82,-2.731 -2.76,-1.816 -6.56,-4.347 -11.46,-7.597 -10.34,-6.7 -25.27,-16.391 -44.44,-28.84 -38.93,-25.012 -95.04,-61.063 -164.579,-105.731 -139.762,-89.211 -333.43,-212.82 -549.898,-351 l 0.886,3.391 c 9.133,-17.441 18.914,-36.121 28.766,-54.941 19.312,-36.9106 38.344,-73.2895 56.379,-107.7583 l -3.106,1.2578 C 612.129,57.332 719.82,95.8984 817.035,130.918 c 97.067,35.344 183.775,66.891 256.325,93.293 72.26,26.508 130.38,47.828 170.67,62.609 19.89,7.239 35.37,12.871 46.1,16.77 5.11,1.82 9.09,3.219 11.99,4.25 2.7,0.93 4.13,1.289 4.13,1.289" /><path
         id="path224"
         style="fill:#33535f;fill-opacity:1;fill-rule:nonzero;stroke:none"
         d="m 713.48,369.398 c -0.218,-0.289 -4.945,2.942 -13.308,9.02 -8.379,6.082 -20.328,15.082 -34.957,26.402 -29.262,22.621 -69.07,54.68 -111.902,91.43 -42.829,36.789 -80.54,71.289 -107.321,96.801 -13.398,12.758 -24.109,23.211 -31.379,30.57 -7.277,7.34 -11.183,11.527 -10.933,11.789 0.246,0.262 4.629,-3.43 12.332,-10.332 8.347,-7.539 19.289,-17.406 32.48,-29.316 27.399,-24.801 65.446,-58.821 108.211,-95.563 42.77,-36.711 82.149,-69.16 110.805,-92.5 13.773,-11.238 25.187,-20.558 33.902,-27.679 7.981,-6.571 12.293,-10.34 12.07,-10.622" /><path
         id="path226"
         style="fill:#33535f;fill-opacity:1;fill-rule:nonzero;stroke:none"
         d="m 310.934,660.328 c -0.196,1.281 22.605,3.5 49.25,-4.476 26.707,-7.774 44.636,-22.024 43.789,-22.981 -0.852,-1.351 -19.485,10.508 -45.266,17.988 -25.703,7.723 -47.797,7.879 -47.773,9.469" /><path
         id="path228"
         style="fill:#33535f;fill-opacity:1;fill-rule:nonzero;stroke:none"
         d="m 354.957,690.23 c 0.457,1.231 16.84,-5.98 30.297,-22.781 13.613,-16.711 17.203,-34.238 15.902,-34.429 -1.488,-0.508 -7.074,15.398 -19.953,31.152 -12.676,15.898 -27.066,24.707 -26.246,26.058" /><path
         id="path230"
         style="fill:#17282f;fill-opacity:1;fill-rule:nonzero;stroke:none"
         d="m 138.551,89.5 c -0.274,0.5898 6.097,1.8203 13.172,-4 6.961,-5.5586 12.875,-16.6914 14.773,-29.6602 1.922,-13.0703 -0.988,-25.0781 -4.66,-32.7109 -3.617,-7.7578 -7.594,-11.4101 -8.039,-11.0391 -0.699,0.4805 2.098,4.7891 4.621,12.4102 2.602,7.5313 4.684,18.6211 2.922,30.6016 -1.75,11.9297 -6.637,22.2304 -12.086,27.6679 -5.418,5.6797 -10.813,5.8985 -10.703,6.7305" /><path
         id="path232"
         style="fill:#17282f;fill-opacity:1;fill-rule:nonzero;stroke:none"
         d="M 3683.12,634.668 V 538.82 h 697.6 v 95.848 h -697.6" /><path
         id="path234"
         style="fill:#17282f;fill-opacity:1;fill-rule:nonzero;stroke:none"
         d="m 3684.31,540.02 h 695.21 v 93.468 h -695.21 z m 697.6,-2.391 h -699.99 v 98.242 h 699.99 v -98.242" /><path
         id="path236"
         style="fill:#17282f;fill-opacity:1;fill-rule:nonzero;stroke:none"
         d="M 3747.79,570.73 3848.21,75.3516 h 371.54 l 97.07,463.4684 -569.03,31.91" /><path
         id="path238"
         style="fill:#33535f;fill-opacity:1;fill-rule:nonzero;stroke:none"
         d="m 3747.79,122.211 53.56,-73.6407 h 451.6 l 63.87,73.6407 h -569.03" /><path
         id="path240"
         style="fill:#17282f;fill-opacity:1;fill-rule:nonzero;stroke:none"
         d="m 4005.72,556.262 c -1.37,0 -3.13,229.5 -3.92,512.528 -0.8,283.14 -0.33,512.59 1.03,512.59 1.38,0 3.14,-229.44 3.94,-512.58 0.79,-283.03 0.32,-512.53 -1.05,-512.538" /><path
         id="path242"
         style="fill:#17282f;fill-opacity:1;fill-rule:nonzero;stroke:none"
         d="m 4161.11,1130.57 c 0.16,-0.08 -0.48,-1.91 -1.86,-5.33 -1.64,-3.9 -3.7,-8.82 -6.23,-14.85 -1.39,-3.28 -2.91,-6.84 -4.55,-10.7 -1.45,-4.04 -2.99,-8.4 -4.65,-13.02 -1.68,-4.7 -3.48,-9.69 -5.37,-14.96 -1.87,-5.3 -3.33,-11.07 -5.17,-17.04 -7.62,-23.78 -13.67,-52.95 -19.5,-85.408 -5.08,-32.614 -8.9,-68.742 -10.81,-106.801 -3.39,-76.223 0.92,-145.34 5.52,-195.109 2.24,-24.911 4.5,-45.043 6.16,-58.942 0.71,-6.512 1.3,-11.808 1.76,-16.019 0.35,-3.672 0.45,-5.621 0.28,-5.641 -0.18,-0.031 -0.61,1.871 -1.27,5.488 -0.71,4.184 -1.6,9.453 -2.68,15.922 -2.26,13.828 -5.05,33.918 -7.75,58.84 -5.51,49.781 -10.39,119.109 -6.98,195.691 1.92,38.239 5.89,74.559 11.25,107.329 6.11,32.61 12.57,61.89 20.66,85.69 1.96,5.97 3.55,11.74 5.54,17.03 2.03,5.25 3.95,10.22 5.76,14.9 1.8,4.61 3.49,8.93 5.06,12.95 1.72,3.91 3.48,7.39 4.97,10.57 2.88,5.91 5.24,10.71 7.09,14.51 1.67,3.29 2.63,4.98 2.77,4.9" /><path
         id="path244"
         style="fill:#17282f;fill-opacity:1;fill-rule:nonzero;stroke:none"
         d="m 4143.28,1316.19 c 0.16,-0.06 -0.6,-2.67 -2.21,-7.57 -1.81,-5.3 -4.23,-12.41 -7.27,-21.34 -1.61,-4.67 -3.4,-9.79 -5.33,-15.37 -1.74,-5.73 -3.61,-11.91 -5.62,-18.54 -4.07,-13.28 -8.81,-28.36 -13.01,-45.35 -2.23,-8.46 -4.57,-17.31 -7,-26.53 -2.1,-9.32 -4.27,-18.99 -6.53,-29.01 -4.88,-19.98 -8.39,-41.68 -12.89,-64.35 -7.69,-45.58 -14.46,-95.97 -19.13,-149.118 -4.41,-53.192 -6.33,-104.024 -7,-150.262 -0.14,-46.238 0.45,-87.91 2.34,-122.852 0.62,-17.488 1.74,-33.269 2.64,-47.128 0.8,-13.891 1.68,-25.829 2.56,-35.571 0.72,-9.41 1.28,-16.89 1.7,-22.48 0.35,-5.149 0.43,-7.86 0.27,-7.879 -0.17,-0.012 -0.6,2.66 -1.26,7.769 -0.66,5.582 -1.54,13.039 -2.64,22.411 -1.18,9.73 -2.33,21.648 -3.4,35.531 -1.17,13.867 -2.54,29.668 -3.38,47.168 -2.35,34.972 -3.3,76.711 -3.41,123.051 0.43,46.351 2.21,97.32 6.63,150.66 4.67,53.3 11.61,103.83 19.57,149.5 4.64,22.72 8.31,44.45 13.38,64.45 2.36,10.02 4.63,19.71 6.83,29.04 2.55,9.22 4.99,18.06 7.34,26.53 4.42,16.96 9.41,32.03 13.75,45.26 2.14,6.6 4.16,12.75 6.01,18.45 2.09,5.55 4.02,10.64 5.76,15.28 3.41,8.79 6.13,15.81 8.15,21.04 1.91,4.79 3,7.27 3.15,7.21" /><path
         id="path246"
         style="fill:#17282f;fill-opacity:1;fill-rule:nonzero;stroke:none"
         d="m 3961.59,515.66 c -0.08,0 -0.21,0.91 -0.39,2.692 -0.17,2.058 -0.39,4.648 -0.65,7.886 -0.5,7.313 -1.18,17.481 -2.05,30.391 -1.68,26.769 -4.07,64.871 -7,111.789 -6.06,94.371 -14.82,224.754 -30.7,368.122 -8.11,71.69 -17.52,139.76 -27.3,201.49 -5.2,30.81 -9.92,60.13 -15.27,87.41 -4.91,27.35 -10.2,52.69 -15.07,75.82 -4.58,23.19 -9.69,43.94 -13.8,62.27 -4.04,18.34 -7.95,34.02 -11.21,46.84 -3.08,12.56 -5.51,22.46 -7.25,29.57 -0.72,3.17 -1.31,5.71 -1.77,7.73 -0.37,1.75 -0.52,2.65 -0.44,2.68 0.09,0.02 0.4,-0.84 0.94,-2.55 0.58,-1.98 1.32,-4.48 2.24,-7.6 1.96,-7.06 4.68,-16.88 8.15,-29.35 3.56,-12.74 7.74,-28.38 12.04,-46.67 4.38,-18.29 9.74,-39.02 14.54,-62.18 5.09,-23.11 10.59,-48.44 15.68,-75.79 5.53,-27.28 10.41,-56.61 15.74,-87.44 10.04,-61.76 19.6,-129.92 27.72,-201.67 15.9,-143.53 24.1,-274.03 29.27,-368.471 2.56,-47.231 4.35,-85.469 5.41,-111.899 0.48,-12.941 0.85,-23.109 1.12,-30.441 0.07,-3.25 0.13,-5.848 0.17,-7.93 0.01,-1.781 -0.03,-2.687 -0.12,-2.699" /><path
         id="path248"
         style="fill:#f03d5f;fill-opacity:1;fill-rule:nonzero;stroke:none"
         d="m 4000.03,1471.06 c -3.03,32.51 -35.89,57.04 -68.53,57.37 -32.66,0.33 -63.09,-19.25 -83.06,-45.08 -19.97,-25.84 -30.99,-57.38 -40,-88.76 -21.98,-76.6 -34.01,-157.07 -24.6,-236.21 9.39,-79.14 41.5,-157.05 98.29,-212.95 9.23,-9.102 21.19,-18.192 33.87,-15.481 6.92,1.473 12.6,6.289 17.86,11.031 111.55,100.77 175.97,251.7 171.55,401.96 -0.88,30.1 -4.83,61.42 -21.5,86.49 -16.66,25.07 -55.51,51.7 -83.88,41.63" /><path
         id="path250"
         style="fill:#f03d5f;fill-opacity:1;fill-rule:nonzero;stroke:none"
         d="m 3756.21,1731.47 c -15.33,-27.76 -30.65,-55.52 -45.98,-83.28 -1.08,-1.94 -2.49,-4.12 -4.71,-4.31 -2.41,-0.19 -4.22,2.09 -5.55,4.12 -40.53,62.2 -81.05,124.4 -121.58,186.6 l 28.02,15.87 149.8,-119" /><path
         id="path252"
         style="fill:#da314b;fill-opacity:1;fill-rule:nonzero;stroke:none"
         d="m 3705.23,1643.87 c -2.27,0 -3.98,2.18 -5.26,4.13 -40.53,62.2 -81.05,124.4 -121.58,186.6 l 28.02,15.87 149.8,-119 c -15.33,-27.76 -30.65,-55.52 -45.98,-83.28 -1.08,-1.94 -2.49,-4.12 -4.71,-4.31 -0.1,-0.01 -0.2,-0.01 -0.29,-0.01" /><path
         id="path254"
         style="fill:#f03d5f;fill-opacity:1;fill-rule:nonzero;stroke:none"
         d="m 4002.83,1581.39 c -138.24,81.58 -276.49,163.16 -414.74,244.74 -4.23,2.5 -8.82,5.45 -10.1,10.18 -1.66,6.15 2.96,12.06 7.38,16.62 57.04,58.85 139.89,92.96 221.64,87.08 81.75,-5.87 160.36,-53.1 200.38,-124.62 40.03,-71.52 41.35,-166.11 -4.56,-234" /><path
         id="path256"
         style="fill:#17282f;fill-opacity:1;fill-rule:nonzero;stroke:none"
         d="m 3647.86,1904.25 c -0.01,0.17 1.86,0.4 5.43,0.68 3.58,0.18 8.86,0.83 15.68,0.75 13.63,0.33 33.44,-0.56 57.54,-4.57 24.1,-3.96 52.4,-11.71 81.96,-24.89 29.55,-13.13 60.12,-32.12 87.98,-57.08 27.61,-25.24 49.58,-53.77 65.57,-81.87 16.08,-28.1 26.6,-55.49 32.94,-79.07 6.4,-23.59 9.26,-43.21 10.29,-56.8 0.75,-6.78 0.63,-12.1 0.81,-15.67 0.08,-3.59 0.03,-5.46 -0.13,-5.47 -0.44,-0.03 -0.96,7.49 -2.61,20.94 -1.6,13.44 -4.98,32.82 -11.74,56.04 -13.1,46.18 -43.55,108.47 -98.47,158.21 -54.95,49.67 -119.95,73.75 -167.21,82.2 -23.78,4.42 -43.4,5.83 -56.94,6.1 -13.55,0.3 -21.08,0.06 -21.1,0.5" /><path
         id="path258"
         style="fill:#17282f;fill-opacity:1;fill-rule:nonzero;stroke:none"
         d="m 3946.7,1750.31 c 0.23,-0.63 -7.75,-4.32 -20.97,-9.52 -13.21,-5.22 -31.68,-11.87 -52.33,-18.44 -20.66,-6.55 -39.59,-11.78 -53.39,-15.15 -13.79,-3.37 -22.45,-4.96 -22.62,-4.31 -0.17,0.68 8.16,3.47 21.68,7.7 15.29,4.78 33.12,10.34 52.83,16.51 19.63,6.33 37.41,12.08 52.65,16.99 13.49,4.35 21.91,6.88 22.15,6.22" /><path
         id="path260"
         style="fill:#17282f;fill-opacity:1;fill-rule:nonzero;stroke:none"
         d="m 3881.39,1925.75 c 1.34,0.12 4.27,-20.56 4.91,-46.27 0.66,-25.72 -1.23,-46.52 -2.57,-46.46 -1.4,0.05 -1.74,20.79 -2.4,46.34 -0.63,25.53 -1.34,46.27 0.06,46.39" /><path
         id="path262"
         style="fill:#17282f;fill-opacity:1;fill-rule:nonzero;stroke:none"
         d="m 3584.46,1830.77 c -0.19,0.63 11.29,4.79 30.13,10.6 18.85,5.81 45.09,13.17 74.34,20.22 29.26,7.04 55.98,12.45 75.4,15.86 19.42,3.4 31.53,4.93 31.65,4.27 0.12,-0.69 -11.75,-3.43 -30.96,-7.72 -19.21,-4.29 -45.73,-10.22 -74.92,-17.25 -29.18,-7.03 -55.5,-13.82 -74.55,-18.76 -19.05,-4.93 -30.88,-7.9 -31.09,-7.22" /><path
         id="path264"
         style="fill:#f03d5f;fill-opacity:1;fill-rule:nonzero;stroke:none"
         d="m 3811.6,1548.01 c -35.67,27.05 -73.4,32.38 -118.12,30.61 -44.74,-1.78 -88.27,-15.4 -129.28,-33.36 -69.94,-30.64 -135.67,-75.78 -177.46,-139.68 -41.79,-63.9 -56.33,-148.49 -25.05,-218.14 3.13,-6.94 7.18,-14.19 14.17,-17.19 7.36,-3.15 15.79,-0.69 23.41,1.8 79.54,25.94 159.65,52.14 232.78,92.77 73.14,40.63 139.71,97.12 178.96,171.02 9.41,17.73 17.29,36.73 18.83,56.74 1.55,20.02 -3.99,41.29 -18.24,55.43" /><path
         id="path266"
         style="fill:#17282f;fill-opacity:1;fill-rule:nonzero;stroke:none"
         d="m 3812.31,1556.4 c 0.04,-0.16 -1.93,-0.96 -5.73,-2.32 -4.3,-1.49 -9.83,-3.38 -16.67,-5.73 -3.68,-1.24 -7.7,-2.57 -12.07,-4.03 -4.37,-1.57 -9.03,-3.53 -14.1,-5.49 -10.06,-4.07 -21.75,-8.14 -34.04,-14.11 -6.23,-2.84 -12.74,-5.8 -19.5,-8.88 -6.77,-3.13 -13.52,-6.97 -20.68,-10.61 -14.41,-7.08 -29,-16.12 -44.53,-25.3 -30.5,-19.28 -62.77,-42.48 -94.18,-69.85 -31.15,-27.67 -58.29,-56.73 -81.3,-84.53 -11.07,-14.25 -21.9,-27.56 -30.77,-40.95 -4.52,-6.64 -9.19,-12.85 -13.15,-19.16 -3.92,-6.31 -7.69,-12.4 -11.29,-18.21 -7.49,-11.44 -13.02,-22.51 -18.33,-31.97 -2.59,-4.78 -5.13,-9.15 -7.25,-13.29 -2,-4.14 -3.84,-7.96 -5.53,-11.46 -3.2,-6.48 -5.79,-11.72 -7.81,-15.8 -1.83,-3.58 -2.87,-5.44 -3.04,-5.38 -0.15,0.07 0.58,2.06 2.12,5.79 1.81,4.18 4.12,9.56 6.99,16.22 1.57,3.56 3.29,7.45 5.15,11.68 1.99,4.22 4.43,8.67 6.9,13.53 5.11,9.62 10.45,20.87 17.78,32.48 3.54,5.91 7.24,12.07 11.08,18.49 3.9,6.4 8.51,12.7 12.99,19.42 8.77,13.58 19.54,27.08 30.6,41.49 22.97,28.14 50.2,57.51 81.57,85.38 31.64,27.56 64.23,50.82 95.07,70.01 15.7,9.13 30.46,18.1 45.05,25.07 7.22,3.59 14.06,7.37 20.91,10.41 6.85,3 13.43,5.88 19.74,8.64 12.46,5.8 24.29,9.65 34.48,13.5 5.14,1.84 9.87,3.67 14.3,5.12 4.43,1.32 8.52,2.52 12.25,3.63 6.97,1.98 12.59,3.59 16.98,4.84 3.9,1.07 5.96,1.54 6.01,1.37" /><path
         id="path268"
         style="fill:#17282f;fill-opacity:1;fill-rule:nonzero;stroke:none"
         d="m 3533.62,1405.51 c 0.39,-1.32 -38.46,-13.83 -86.76,-27.96 -48.31,-14.13 -87.79,-24.51 -88.17,-23.19 -0.39,1.32 38.46,13.84 86.78,27.96 48.29,14.12 87.77,24.51 88.15,23.19" /><path
         id="path270"
         style="fill:#17282f;fill-opacity:1;fill-rule:nonzero;stroke:none"
         d="m 3530.06,1214.03 c -0.67,0 -1.46,10.32 -1.9,27.04 -0.46,16.71 -0.54,39.81 0.17,65.32 0.71,25.51 2.08,48.58 3.47,65.25 1.39,16.66 2.74,26.93 3.42,26.88 0.7,-0.05 0.58,-10.39 0.09,-27.08 -0.56,-18.32 -1.26,-40.58 -2.01,-65.18 -0.62,-24.61 -1.18,-46.88 -1.64,-65.19 -0.44,-16.69 -0.9,-27.03 -1.6,-27.04" /><path
         id="path272"
         style="fill:#17282f;fill-opacity:1;fill-rule:nonzero;stroke:none"
         d="m 3694.08,1297.59 c -1.36,-0.09 -5.73,46.86 -9.73,104.86 -4.02,58.01 -6.17,105.11 -4.79,105.2 1.37,0.1 5.72,-46.84 9.74,-104.86 4.01,-58 6.15,-105.1 4.78,-105.2" /><path
         id="path274"
         style="fill:#17282f;fill-opacity:1;fill-rule:nonzero;stroke:none"
         d="m 3489.91,1512.21 c 0.03,0.69 10.67,0.96 27.82,0.84 17.14,-0.12 40.82,-0.62 66.95,-1.48 26.14,-0.87 49.79,-1.94 66.91,-2.95 17.13,-1.02 27.72,-1.98 27.7,-2.67 -0.01,-0.69 -10.62,-0.95 -27.77,-0.84 -17.15,0.12 -40.85,0.62 -67.01,1.49 -26.15,0.87 -49.82,1.92 -66.94,2.94 -17.12,1.01 -27.7,1.99 -27.66,2.67" /><path
         id="path276"
         style="fill:#17282f;fill-opacity:1;fill-rule:nonzero;stroke:none"
         d="m 3899.92,923.078 c -0.17,0 -0.37,1.953 -0.59,5.684 -0.2,4.258 -0.44,9.648 -0.74,16.277 -0.62,14.16 -0.77,34.672 -0.23,59.991 0.45,25.35 2.13,55.48 5.12,88.86 3.23,33.36 7.9,69.93 14.6,108.03 6.87,38.08 15.11,74.02 23.6,106.44 8.72,32.36 17.56,61.24 25.88,85.17 8.25,23.96 15.46,43.15 20.94,56.21 2.57,6.12 4.66,11.11 6.31,15.04 1.49,3.42 2.35,5.18 2.51,5.12 0.16,-0.07 -0.4,-1.96 -1.59,-5.49 -1.41,-4.01 -3.22,-9.1 -5.43,-15.36 -4.91,-13.25 -11.61,-32.6 -19.4,-56.63 -7.88,-24.02 -16.34,-52.9 -24.79,-85.22 -8.22,-32.37 -16.29,-68.21 -23.14,-106.15 -6.67,-37.97 -11.47,-74.38 -14.93,-107.6 -3.22,-33.24 -5.27,-63.27 -6.17,-88.52 -0.98,-25.25 -1.37,-45.719 -1.34,-59.86 -0.08,-6.629 -0.15,-12.031 -0.21,-16.3 -0.09,-3.719 -0.23,-5.68 -0.4,-5.692" /><path
         id="path278"
         style="fill:#17282f;fill-opacity:1;fill-rule:nonzero;stroke:none"
         d="m 3921.8,1206.07 c 0.46,-0.48 -5.81,-7.46 -16.55,-18.16 -10.73,-10.7 -25.96,-25.06 -43.34,-40.31 -17.4,-15.24 -33.64,-28.46 -45.65,-37.7 -12.01,-9.25 -19.75,-14.55 -20.17,-14.03 -0.43,0.55 6.53,6.83 17.94,16.74 12.75,11.07 27.88,24.21 44.59,38.72 16.59,14.68 31.59,27.95 44.22,39.14 11.33,10.02 18.47,16.11 18.96,15.6" /><path
         id="path280"
         style="fill:#17282f;fill-opacity:1;fill-rule:nonzero;stroke:none"
         d="m 4053.08,1100.32 c -0.6,-0.37 -7.18,9.06 -17.63,24.4 -11.34,16.55 -25.41,37.09 -40.98,59.82 -15.89,22.5 -30.27,42.84 -41.84,59.23 -10.76,15.12 -17.32,24.57 -16.76,25 0.53,0.41 8.08,-8.29 19.57,-22.91 11.5,-14.6 26.89,-35.19 43.12,-58.48 16.2,-23.3 30.14,-44.88 39.85,-60.74 9.71,-15.87 15.23,-25.97 14.67,-26.32" /><path
         id="path282"
         style="fill:#17282f;fill-opacity:1;fill-rule:nonzero;stroke:none"
         d="m 3984.31,1432.9 c 0.74,-1.16 -42.87,-30.52 -97.4,-65.57 -54.54,-35.07 -99.34,-62.55 -100.08,-61.39 -0.75,1.16 42.85,30.51 97.4,65.57 54.52,35.06 99.34,62.54 100.08,61.39" /><path
         id="path284"
         style="fill:#17282f;fill-opacity:1;fill-rule:nonzero;stroke:none"
         d="m 4107.27,1300.18 c -0.96,-0.99 -30.49,26.31 -65.96,60.95 -35.48,34.65 -63.46,63.52 -62.49,64.51 0.96,0.98 30.49,-26.31 65.97,-60.96 35.46,-34.64 63.43,-63.52 62.48,-64.5" /><path
         id="path286"
         style="fill:#f03d5f;fill-opacity:1;fill-rule:nonzero;stroke:none"
         d="m 4138.19,1302.84 37.44,3.1 c 26.57,2.2 52.37,10.06 75.59,23.14 11.49,6.46 23.03,12.79 35.24,17.7 46.29,18.58 97.93,15.26 147.73,17.76 81.3,4.08 161.75,24.64 235.02,60.08 4.24,2.06 7.98,5.18 10.24,9.3 7.69,14.01 -6.59,26.49 -18.88,34.05 -63.07,38.87 -127.27,78.23 -198.79,97.51 -71.53,19.3 -152.72,16.04 -213.74,-25.96 -71.64,-49.3 -97.75,-150.56 -109.85,-236.68" /><path
         id="path288"
         style="fill:#17282f;fill-opacity:1;fill-rule:nonzero;stroke:none"
         d="m 4680.29,1438.52 c -0.07,-0.15 -2.26,0.87 -6.34,2.96 -4.49,2.34 -10.38,5.44 -17.75,9.29 -15.39,8.09 -37.54,20.04 -65.54,33.46 -28,13.28 -61.95,28.28 -101.44,39.1 -39.33,10.92 -84.7,16.65 -131.48,10.65 -46.6,-6.13 -89.5,-24.27 -119.87,-51.47 -30.56,-27.11 -49.23,-59.85 -62.41,-87.66 -13.15,-28.07 -21.26,-51.93 -27.16,-68.26 -2.76,-7.83 -4.98,-14.1 -6.66,-18.89 -1.56,-4.31 -2.46,-6.54 -2.63,-6.48 -0.15,0.05 0.42,2.39 1.67,6.79 1.47,4.86 3.38,11.23 5.79,19.19 5.34,16.55 12.94,40.64 25.8,69.12 12.89,28.22 31.45,61.66 62.56,89.62 30.95,28.07 74.85,46.74 122.26,52.97 47.58,6.1 93.69,0.12 133.35,-11.17 39.84,-11.19 73.85,-26.61 101.77,-40.35 27.9,-13.88 49.81,-26.31 64.93,-34.92 7.17,-4.2 12.92,-7.56 17.29,-10.12 3.93,-2.36 5.95,-3.68 5.86,-3.83" /><path
         id="path290"
         style="fill:#17282f;fill-opacity:1;fill-rule:nonzero;stroke:none"
         d="m 4590.39,1390.22 c -0.77,-1.13 -49.73,30.54 -109.34,70.73 -59.64,40.22 -107.35,73.72 -106.59,74.87 0.78,1.14 49.73,-30.53 109.36,-70.75 59.62,-40.19 107.34,-73.71 106.57,-74.85" /><path
         id="path292"
         style="fill:#17282f;fill-opacity:1;fill-rule:nonzero;stroke:none"
         d="m 4543.36,1540.5 c 0.26,-1.31 -16.73,-5.71 -38.21,-7.66 -21.5,-2 -39,-0.77 -38.98,0.56 0,1.41 17.3,2.41 38.52,4.39 21.21,1.92 38.41,4.1 38.67,2.71" /><path
         id="path294"
         style="fill:#17282f;fill-opacity:1;fill-rule:nonzero;stroke:none"
         d="m 4323.84,1579.84 c 1.18,-0.7 -6.02,-15.09 -16.07,-32.12 -10.05,-17.05 -19.16,-30.29 -20.34,-29.6 -1.18,0.7 6.01,15.08 16.07,32.12 10.05,17.04 19.16,30.29 20.34,29.6" /><path
         id="path296"
         style="fill:#17282f;fill-opacity:1;fill-rule:nonzero;stroke:none"
         d="m 4367.71,1361.38 c -0.35,-0.55 -9.42,4.19 -23.57,12.78 -14.14,8.58 -33.26,21.16 -53.68,35.98 -20.42,14.85 -38.44,28.86 -51.37,39.12 -12.93,10.29 -20.75,16.89 -20.33,17.43 0.4,0.55 8.97,-5.05 22.44,-14.61 14.69,-10.68 32.49,-23.61 52.18,-37.91 20.35,-14.78 39.05,-27.75 52.67,-37.07 13.61,-9.3 22.03,-15.11 21.66,-15.72" /><path
         id="path298"
         style="fill:#f03d5f;fill-opacity:1;fill-rule:nonzero;stroke:none"
         d="m 4193.31,1143.79 c -35.71,9.44 -78.27,-25.3 -85.63,-61.49 -7.36,-36.19 6.22,-73.2 22.11,-106.538 35.17,-73.801 83.72,-142.25 147.65,-193.211 63.95,-50.942 144.03,-83.52 225.78,-83.11 -15.09,70.118 4,143.368 -4.42,214.59 -7.34,62.168 -36.33,121.569 -80.82,165.609 -44.48,44.05 -104.17,72.44 -166.41,79.16 -22.79,2.47 -49.17,6.04 -58.26,-15.01" /><path
         id="path300"
         style="fill:#17282f;fill-opacity:1;fill-rule:nonzero;stroke:none"
         d="m 4503.22,699.441 c -0.08,-0.152 -1.82,0.661 -5.08,2.36 -3.23,1.769 -7.88,4.597 -13.35,8.98 -11.21,8.5 -24.06,24.91 -35.27,47.149 -5.69,11.05 -12.05,23.05 -18.27,36.34 -6.02,13.332 -12.45,27.539 -19.21,42.46 -6.81,14.891 -14.29,30.329 -23.6,45.391 -9.26,15.09 -20.28,29.84 -32.49,44.18 -24.45,28.719 -50.68,53.558 -73.42,77.299 -22.85,23.63 -42.08,46.41 -55.97,67.16 -14.03,20.66 -22.53,39.18 -27.35,52.23 -2.3,6.6 -3.96,11.74 -4.78,15.33 -0.89,3.55 -1.28,5.43 -1.12,5.47 0.46,0.13 2.49,-7.29 7.7,-20.09 5.34,-12.73 14.21,-30.76 28.44,-50.96 14.13,-20.27 33.43,-42.59 56.37,-65.96 22.83,-23.471 49.22,-48.249 73.92,-77.26 12.33,-14.489 23.48,-29.469 32.85,-44.86 9.41,-15.371 16.89,-31.039 23.62,-46.031 6.6,-14.981 12.88,-29.25 18.78,-42.629 6,-13.23 12.19,-25.352 17.66,-36.461 10.75,-22.301 22.76,-38.449 33.38,-47.289 10.43,-8.988 17.49,-12.32 17.19,-12.809" /><path
         id="path302"
         style="fill:#17282f;fill-opacity:1;fill-rule:nonzero;stroke:none"
         d="m 4318.58,757.711 c -0.65,0.129 0.47,9.328 3.28,24.027 2.79,14.711 7.37,34.903 13.56,56.891 6.2,22 12.83,41.609 18.12,55.609 5.29,14.012 9.13,22.453 9.75,22.211 0.67,-0.238 -2.01,-9.097 -6.42,-23.347 -4.43,-14.25 -10.49,-33.922 -16.66,-55.821 -6.17,-21.883 -11.26,-41.84 -14.93,-56.301 -3.67,-14.46 -6,-23.41 -6.7,-23.269" /><path
         id="path304"
         style="fill:#17282f;fill-opacity:1;fill-rule:nonzero;stroke:none"
         d="m 4496.46,929.82 c -0.22,-0.679 -9.78,1.75 -25.16,5.782 -15.39,4.019 -36.63,9.507 -60.26,14.839 -23.66,5.329 -45.21,9.469 -60.83,12.43 -15.63,2.957 -25.31,4.848 -25.2,5.547 0.09,0.66 9.94,-0.008 25.75,-2.09 15.82,-2.078 37.59,-5.687 61.36,-11.027 23.77,-5.36 44.98,-11.43 60.16,-16.332 15.18,-4.899 24.37,-8.528 24.18,-9.149" /><path
         id="path306"
         style="fill:#17282f;fill-opacity:1;fill-rule:nonzero;stroke:none"
         d="m 4186.08,879.809 c -0.66,0.132 0.72,10.769 3.85,27.812 3.15,17.047 8.15,40.488 14.82,66.09 6.69,25.598 13.79,48.489 19.37,64.899 5.6,16.41 9.6,26.36 10.23,26.15 0.67,-0.22 -2.14,-10.56 -6.87,-27.2 -4.73,-16.64 -11.26,-39.599 -17.92,-65.099 -6.66,-25.512 -12.18,-48.742 -16.19,-65.563 -4,-16.828 -6.6,-27.23 -7.29,-27.089" /><path
         id="path308"
         style="fill:#17282f;fill-opacity:1;fill-rule:nonzero;stroke:none"
         d="m 4414.53,1079.8 c -0.14,-1.37 -44.71,2.24 -99.55,8.06 -54.84,5.81 -99.18,11.63 -99.03,12.99 0.14,1.36 44.71,-2.24 99.56,-8.05 54.83,-5.81 99.17,-11.63 99.02,-13" /><path
         id="path310"
         style="fill:#33535f;fill-opacity:1;fill-rule:nonzero;stroke:none"
         d="m 4381.88,539.219 c 0,-1.36 -156.69,-2.481 -349.95,-2.481 -193.31,0 -349.97,1.121 -349.97,2.481 0,1.383 156.66,2.492 349.97,2.492 193.26,0 349.95,-1.109 349.95,-2.492" /><path
         id="path312"
         style="fill:#33535f;fill-opacity:1;fill-rule:nonzero;stroke:none"
         d="m 4272.86,337.578 c 0,-1.367 -105.57,-2.488 -235.78,-2.488 -130.25,0 -235.8,1.121 -235.8,2.488 0,1.371 105.55,2.481 235.8,2.481 130.21,0 235.78,-1.11 235.78,-2.481" /><path
         id="path314"
         style="fill:#33535f;fill-opacity:1;fill-rule:nonzero;stroke:none"
         d="m 4276.98,308.762 c 0,-1.383 -105.58,-2.492 -235.79,-2.492 -130.24,0 -235.8,1.109 -235.8,2.492 0,1.359 105.56,2.476 235.8,2.476 130.21,0 235.79,-1.117 235.79,-2.476" /><path
         id="path316"
         style="fill:#33535f;fill-opacity:1;fill-rule:nonzero;stroke:none"
         d="m 4276.98,361.34 c 0,-1.36 -109.21,-2.481 -243.88,-2.481 -134.73,0 -243.91,1.121 -243.91,2.481 0,1.379 109.18,2.488 243.91,2.488 134.67,0 243.88,-1.109 243.88,-2.488" /></g></g></svg>