<svg height="512" viewBox="0 0 64 64" width="512" xmlns="http://www.w3.org/2000/svg"><g id="book-earphone-education"><path d="m49 58v-37h-30a4 4 0 0 0 -4 4v33z" fill="#46f8ff"/><path d="m49 55v6h-31a3 3 0 0 1 0-6z" fill="#a78966"/><path d="m19 24h26v27h-26z" fill="#ffda44"/><path d="m40 55h4v4l-2-1-2 1z" fill="#ff5023"/><path d="m57 29h4v12h-4z" fill="#57565c"/><path d="m57 26v17a2.006 2.006 0 0 1 -2 2h-6v-20h7a1 1 0 0 1 1 1z" fill="#006df0"/><path d="m3 29h4v12h-4z" fill="#57565c"/><path d="m15 25v20h-6a2.006 2.006 0 0 1 -2-2v-17a1 1 0 0 1 1-1z" fill="#006df0"/><path d="m32 3a22 22 0 0 1 22 22h-3a19 19 0 0 0 -38 0h-3a22 22 0 0 1 22-22z" fill="#57565c"/><path d="m29 28h-6a1 1 0 0 0 -1 1v13h2v-6h4v6h2v-13a1 1 0 0 0 -1-1zm-1 6h-4v-4h4z" fill="#ff9811"/><g fill="#fff"><path d="m32 28h3v2h-3z"/><path d="m37 28h5v2h-5z"/><path d="m32 32h10v2h-10z"/><path d="m32 36h5v2h-5z"/><path d="m39 36h3v2h-3z"/><path d="m32 40h10v2h-10z"/></g><rect fill="#2488ff" height="8" rx="1" width="2" x="8" y="26"/></g></svg>