<svg height="512" viewBox="0 0 64 64" width="512" xmlns="http://www.w3.org/2000/svg"><path d="m61 52v2h-23a5 5 0 0 0 -5 5v2h-2v-2a5 5 0 0 0 -5-5h-23v-2h23a6.966 6.966 0 0 1 5.05 2.17 7.015 7.015 0 0 1 6.95-6.17h22v2h-22a5.009 5.009 0 0 0 -4.9 4.01 6.967 6.967 0 0 1 4.9-2.01z" fill="#acabb1"/><path d="m33 30 2 5h-6l2-5z" fill="#57565c"/><path d="m44 27.52v.48h-7v-12l2.81 2.41a12 12 0 0 1 4.19 9.11z" fill="#003f8a"/><path d="m27 16v12h-7v-.03a11.989 11.989 0 0 1 3.51-8.48z" fill="#003f8a"/><path d="m36.92 12h-9.84a9.873 9.873 0 0 1 1.78-4.61l3.14-4.39 3.14 4.39a9.873 9.873 0 0 1 1.78 4.61z" fill="#ffcd00"/><path d="m27 26h10v4h-10z" fill="#cd2a00"/><path d="m36.92 12h-9.84a8.065 8.065 0 0 0 -.08 1.2v12.8h10v-12.8a8.065 8.065 0 0 0 -.08-1.2zm-4.92 8a2 2 0 1 1 2-2 2.006 2.006 0 0 1 -2 2z" fill="#ff6243"/><circle cx="32" cy="18" fill="#9bfbff" r="2"/><path d="m28 38h2v4h-2z" fill="#ff5023"/><path d="m34 38h2v4h-2z" fill="#ff5023"/><path d="m20 32h2v2h-2z" fill="#ff5023"/><path d="m23 32h2v5h-2z" fill="#ff5023"/><path d="m39 32h2v5h-2z" fill="#ff5023"/><path d="m42 32h2v2h-2z" fill="#ff5023"/><g fill="#ffda44"><path d="m10 36h2v2h-2z"/><path d="m10 40h2v2h-2z"/><path d="m12 38h2v2h-2z"/><path d="m8 38h2v2h-2z"/><path d="m53 36h2v2h-2z"/><path d="m53 40h2v2h-2z"/><path d="m55 38h2v2h-2z"/><path d="m51 38h2v2h-2z"/><path d="m14 8h2v2h-2z"/><path d="m14 12h2v2h-2z"/><path d="m16 10h2v2h-2z"/><path d="m12 10h2v2h-2z"/><path d="m49 8h2v2h-2z"/><path d="m49 12h2v2h-2z"/><path d="m51 10h2v2h-2z"/><path d="m47 10h2v2h-2z"/></g><rect fill="#ff856d" height="3" rx="1" width="2" x="28" y="13"/><path d="m32.819 16.181-2.638 2.638a2.012 2.012 0 0 0 1 1l2.638-2.638a2.012 2.012 0 0 0 -1-1z" fill="#c7fdff"/><path d="m27 26h1v4h-1z" fill="#ab2300"/><path d="m36 26h1v4h-1z" fill="#ab2300"/><path d="m30 26h4v4h-4z" fill="#d3421c"/><path d="m61 57v2a2.006 2.006 0 0 1 -2 2h-54a2.006 2.006 0 0 1 -2-2v-2z" fill="#806749"/></svg>