<svg height="480pt" viewBox="0 0 480 480" width="480pt" xmlns="http://www.w3.org/2000/svg"><g fill="#ff5023"><path d="m71.992188 440c0 17.671875-14.328126 32-32 32-17.671876 0-32-14.328125-32-32s14.328124-32 32-32c17.671874 0 32 14.328125 32 32zm0 0"/><path d="m71.992188 40c0 17.671875-14.328126 32-32 32-17.671876 0-32-14.328125-32-32s14.328124-32 32-32c17.671874 0 32 14.328125 32 32zm0 0"/><path d="m471.992188 440c0 17.671875-14.328126 32-32 32-17.671876 0-32-14.328125-32-32s14.328124-32 32-32c17.671874 0 32 14.328125 32 32zm0 0"/><path d="m471.992188 40c0 17.671875-14.328126 32-32 32-17.671876 0-32-14.328125-32-32s14.328124-32 32-32c17.671874 0 32 14.328125 32 32zm0 0"/></g><path d="m215.992188 112v240c-.140626 20.570312-15.855469 37.679688-36.339844 39.5625-20.484375 1.878906-39.058594-12.082031-42.941406-32.28125-12.328126-2.269531-22.878907-10.195312-28.488282-21.40625-5.613281-11.210938-5.640625-24.402344-.070312-35.636719-13.796875-4.28125-24.210938-15.675781-27.246094-29.796875-3.03125-14.125 1.785156-28.789062 12.605469-38.363281-25.109375-18.394531-35.554688-50.839844-25.890625-80.429687 9.664062-29.589844 37.246094-49.617188 68.371094-49.648438h.800781c4.089843-20.140625 22.773437-33.902344 43.21875-31.835938 20.445312 2.0625 36 19.285157 35.980469 39.835938zm0 0" fill="#46f8ff"/><path d="m271.992188 112v240c.140624 20.570312 15.855468 37.679688 36.339843 39.5625 20.484375 1.878906 39.058594-12.082031 42.941407-32.28125 12.328124-2.269531 22.875-10.195312 28.488281-21.40625s5.640625-24.402344.070312-35.636719c13.796875-4.28125 24.210938-15.675781 27.246094-29.796875 3.03125-14.125-1.785156-28.789062-12.605469-38.363281 25.109375-18.394531 35.550782-50.839844 25.890625-80.429687-9.664062-29.589844-37.246093-49.617188-68.371093-49.648438h-.800782c-4.089844-20.140625-22.773437-33.902344-43.21875-31.835938-20.445312 2.0625-36 19.285157-35.980468 39.835938zm0 0" fill="#46f8ff"/><path d="m439.992188 400c-19 .023438-35.371094 13.386719-39.199219 32h-88.800781v-24c21.203124-.03125 39.886718-13.953125 45.976562-34.265625 25.195312-7.496094 39.542969-34.003906 32.039062-59.199219 12.625-6.488281 21.714844-18.253906 24.804688-32.109375 3.09375-13.855469-.132812-28.367187-8.804688-39.609375 23.613282-21.59375 32.046876-55.203125 21.421876-85.386718-10.625-30.183594-38.25-51.101563-70.183594-53.140626-6.679688-19.292968-24.835938-32.246093-45.253906-32.289062v-24h88.800781c4.105469 20.121094 22.78125 33.863281 43.210937 31.796875 20.429688-2.0625 35.980469-19.261719 35.980469-39.796875s-15.550781-37.734375-35.980469-39.796875c-20.429687-2.066406-39.105468 11.675781-43.210937 31.796875h-96.800781c-4.417969 0-8 3.582031-8 8v34.800781c-19.160157 6.773438-31.976563 24.878907-32 45.199219v240c.023437 20.320312 12.839843 38.425781 32 45.199219v34.800781c0 4.417969 3.582031 8 8 8h96.800781c4.207031 20.625 23.679687 34.457031 44.542969 31.640625 20.859374-2.816406 35.96875-21.316406 34.558593-42.316406-1.410156-21.003907-18.855469-37.320313-39.902343-37.324219zm0-384c13.253906 0 24 10.746094 24 24s-10.746094 24-24 24c-13.253907 0-24-10.746094-24-24s10.746093-24 24-24zm-160 344v-240c.035156-11.378906 6.132812-21.878906 16-27.550781v77.773437c-6.273438 3.621094-9.328126 11.003906-7.457032 18 1.875 6.992188 8.214844 11.859375 15.457032 11.859375 7.242187 0 13.582031-4.867187 15.453124-11.859375 1.875-6.996094-1.183593-14.378906-7.453124-18v-82.222656c13.746093 0 25.960937 8.777344 30.335937 21.808594 4.378906 13.03125-.054687 27.40625-11.015625 35.703125l9.671875 12.746093c11.863281-8.921874 18.890625-22.863281 19.007813-37.707031 33.351562 4.40625 57.601562 33.882813 55.496093 67.460938-2.109375 33.574219-29.855469 59.789062-63.496093 59.988281v16c14.519531-.007812 28.757812-4 41.167968-11.535156 5.847656 7.390625 8.101563 17 6.144532 26.222656-1.957032 9.21875-7.917969 17.085938-16.265626 21.464844-2.855468-4.019532-6.3125-7.578125-10.246093-10.550782l-9.601563 12.796876c8.660156 6.472656 13.460938 16.886718 12.75 27.671874-.710937 10.789063-6.835937 20.484376-16.269531 25.761719-.707031-8.921875-3.921875-17.460937-9.28125-24.632812l-12.796875 9.601562c4.171875 5.527344 6.421875 12.273438 6.398438 19.199219 0 17.671875-14.328126 32-32 32v-82.222656c6.269531-3.621094 9.328124-11.003906 7.453124-18-1.871093-6.992188-8.210937-11.859375-15.453124-11.859375-7.242188 0-13.582032 4.867187-15.457032 11.859375-1.871094 6.996094 1.183594 14.378906 7.457032 18v77.773437c-9.867188-5.671875-15.964844-16.171875-16-27.550781zm160 104c-13.253907 0-24-10.746094-24-24s10.746093-24 24-24c13.253906 0 24 10.746094 24 24s-10.746094 24-24 24zm0 0" fill="#231f20"/><path d="m183.992188 72.71875v-32.71875c0-4.417969-3.582032-8-8-8h-96.800782c-4.105468-20.121094-22.78125-33.863281-43.210937-31.796875-20.429688 2.0625-35.980469 19.261719-35.980469 39.796875s15.550781 37.734375 35.980469 39.796875c20.429687 2.066406 39.105469-11.675781 43.210937-31.796875h88.800782v24.71875c-17.246094 2.949219-31.53125 15.035156-37.296876 31.554688-31.9375 2.023437-59.578124 22.9375-70.210937 53.125-10.636719 30.183593-2.207031 63.804687 21.410156 85.402343-8.667969 11.238281-11.894531 25.753907-8.804687 39.609375 3.089844 13.855469 12.179687 25.621094 24.804687 32.109375-7.503906 25.195313 6.84375 51.703125 32.042969 59.199219 5.273438 17.511719 20.019531 30.519531 38.054688 33.5625v24.71875h-88.800782c-4.105468-20.121094-22.78125-33.863281-43.210937-31.796875-20.429688 2.0625-35.980469 19.261719-35.980469 39.796875s15.550781 37.734375 35.980469 39.796875c20.429687 2.066406 39.105469-11.675781 43.210937-31.796875h96.800782c4.417968 0 8-3.582031 8-8v-32.71875c23.066406-3.921875 39.957031-23.882812 40-47.28125v-240c-.042969-23.398438-16.933594-43.359375-40-47.28125zm-144-8.71875c-13.253907 0-24-10.746094-24-24s10.746093-24 24-24c13.253906 0 24 10.746094 24 24s-10.746094 24-24 24zm0 400c-13.253907 0-24-10.746094-24-24s10.746093-24 24-24c13.253906 0 24 10.746094 24 24s-10.746094 24-24 24zm168-104c-.054688 14.546875-9.914063 27.226562-24 30.863281v-81.085937c6.269531-3.621094 9.328124-11.003906 7.453124-18-1.871093-6.992188-8.210937-11.859375-15.453124-11.859375-7.242188 0-13.582032 4.867187-15.457032 11.859375-1.871094 6.996094 1.183594 14.378906 7.457032 18v81.085937c-10.328126-2.640625-18.65625-10.265625-22.191407-20.324219-3.535156-10.058593-1.8125-21.214843 4.589844-29.738281l-12.796875-9.601562c-5.351562 7.167969-8.5625 15.703125-9.265625 24.617187-9.429687-5.277344-15.550781-14.964844-16.265625-25.75-.714844-10.78125 4.078125-21.191406 12.730469-27.667968l-9.601563-12.796876c-3.9375 2.976563-7.394531 6.539063-10.246094 10.566407-8.347656-4.378907-14.308593-12.25-16.265624-21.472657-1.957032-9.21875.296874-18.832031 6.144531-26.222656 12.410156 7.535156 26.648437 11.519532 41.167969 11.527344v-16c-33.644532-.199219-61.386719-26.414062-63.496094-59.988281-2.105469-33.578125 22.140625-63.054688 55.496094-67.460938.105468 14.839844 7.121093 28.777344 18.976562 37.707031l9.671875-12.746093c-9.785156-7.390625-14.46875-19.734375-12.050781-31.757813 2.421875-12.019531 11.519531-21.589844 23.402344-24.617187v81.085937c-6.273438 3.621094-9.328126 11.003906-7.457032 18 1.875 6.992188 8.214844 11.859375 15.457032 11.859375 7.242187 0 13.582031-4.867187 15.453124-11.859375 1.875-6.996094-1.183593-14.378906-7.453124-18v-81.085937c14.085937 3.636719 23.945312 16.316406 24 30.863281zm0 0" fill="#231f20"/></svg>