<svg height="464pt" viewBox="0 0 464 464" width="464pt" xmlns="http://www.w3.org/2000/svg"><path d="m384 96v272c-.027344 8.824219-7.175781 15.972656-16 16h-272c-8.824219-.027344-15.972656-7.175781-16-16v-240l48-48h240c8.824219.027344 15.972656 7.175781 16 16zm0 0" fill="#c6c5ca"/><path d="m305.519531 190.480469c-2.71875-2.707031-5.574219-5.269531-8.558593-7.679688-31.21875-24.96875-73.980469-29.835937-110.007813-12.519531-36.03125 17.3125-58.945313 53.746094-58.953125 93.71875v200h208v-200c.023438-27.585938-10.945312-54.042969-30.480469-73.519531zm0 0" fill="#ffeb99"/><path d="m296 182.097656c-37.582031-29.460937-90.417969-29.460937-128 0v89.902344c.027344 8.824219 7.175781 15.972656 16 16h96c8.824219-.027344 15.972656-7.175781 16-16zm0 0" fill="#fff"/><g fill="#57565c"><path d="m160 24h16v56h-16zm0 0"/><path d="m240 24h16v56h-16zm0 0"/><path d="m320 24h16v56h-16zm0 0"/><path d="m384 152h56v16h-56zm0 0"/><path d="m384 232h56v16h-56zm0 0"/><path d="m384 320h56v16h-56zm0 0"/><path d="m24 152h56v16h-56zm0 0"/><path d="m24 232h56v16h-56zm0 0"/><path d="m24 320h56v16h-56zm0 0"/></g><path d="m344 136c-8.835938 0-16-7.164062-16-16s7.164062-16 16-16 16 7.164062 16 16-7.164062 16-16 16zm0-16" fill="#fff"/><path d="m264 16c0 8.835938-7.164062 16-16 16s-16-7.164062-16-16 7.164062-16 16-16 16 7.164062 16 16zm0 0" fill="#ffda44"/><path d="m32 328c0 8.835938-7.164062 16-16 16s-16-7.164062-16-16 7.164062-16 16-16 16 7.164062 16 16zm0 0" fill="#ffda44"/><path d="m32 160c0 8.835938-7.164062 16-16 16s-16-7.164062-16-16 7.164062-16 16-16 16 7.164062 16 16zm0 0" fill="#ffda44"/><path d="m464 328c0 8.835938-7.164062 16-16 16s-16-7.164062-16-16 7.164062-16 16-16 16 7.164062 16 16zm0 0" fill="#ffda44"/><path d="m464 160c0 8.835938-7.164062 16-16 16s-16-7.164062-16-16 7.164062-16 16-16 16 7.164062 16 16zm0 0" fill="#ffda44"/><path d="m32 240c0 8.835938-7.164062 16-16 16s-16-7.164062-16-16 7.164062-16 16-16 16 7.164062 16 16zm0 0" fill="#d80027"/><path d="m464 240c0 8.835938-7.164062 16-16 16s-16-7.164062-16-16 7.164062-16 16-16 16 7.164062 16 16zm0 0" fill="#d80027"/><path d="m344 16c0 8.835938-7.164062 16-16 16s-16-7.164062-16-16 7.164062-16 16-16 16 7.164062 16 16zm0 0" fill="#d80027"/><path d="m184 16c0 8.835938-7.164062 16-16 16s-16-7.164062-16-16 7.164062-16 16-16 16 7.164062 16 16zm0 0" fill="#d80027"/><path d="m164 312c11.046875 0 20 8.953125 20 20v32c0 11.046875-8.953125 20-20 20s-20-8.953125-20-20v-32c0-11.046875 8.953125-20 20-20zm0 0" fill="#fff2bb"/></svg>