<svg height="464pt" viewBox="0 0 464 464" width="464pt" xmlns="http://www.w3.org/2000/svg"><g fill="#d8d7da"><path d="m176 152h-16v-80c0-4.417969-3.582031-8-8-8h-48v-16h48c13.253906 0 24 10.746094 24 24zm0 0"/><path d="m304 152h-16v-80c0-13.253906 10.746094-24 24-24h48v16h-48c-4.417969 0-8 3.582031-8 8zm0 0"/><path d="m360 416h-56c-7.328125 0-16-13.007812-16-24v-80h16v80c.191406 2.925781 1.28125 5.71875 3.121094 8h52.878906zm-51.632812-14.609375"/><path d="m160 416h-56v-16h56c4.417969 0 8-3.582031 8-8v-80h16v80c0 13.253906-10.746094 24-24 24zm0 0"/></g><path d="m464 408c0 30.929688-25.070312 56-56 56s-56-25.070312-56-56 25.070312-56 56-56 56 25.070312 56 56zm0 0" fill="#d80027"/><path d="m112 56c0 30.929688-25.070312 56-56 56s-56-25.070312-56-56 25.070312-56 56-56 56 25.070312 56 56zm0 0" fill="#d80027"/><path d="m112 408c0 30.929688-25.070312 56-56 56s-56-25.070312-56-56 25.070312-56 56-56 56 25.070312 56 56zm0 0" fill="#ffda44"/><path d="m464 56c0 30.929688-25.070312 56-56 56s-56-25.070312-56-56 25.070312-56 56-56 56 25.070312 56 56zm0 0" fill="#ffda44"/><path d="m48 40h16c4.417969 0 8 3.582031 8 8v16c0 4.417969-3.582031 8-8 8h-16c-4.417969 0-8-3.582031-8-8v-16c0-4.417969 3.582031-8 8-8zm0 0" fill="#fff"/><path d="m48 392h16c4.417969 0 8 3.582031 8 8v16c0 4.417969-3.582031 8-8 8h-16c-4.417969 0-8-3.582031-8-8v-16c0-4.417969 3.582031-8 8-8zm0 0" fill="#fff"/><path d="m400 392h16c4.417969 0 8 3.582031 8 8v16c0 4.417969-3.582031 8-8 8h-16c-4.417969 0-8-3.582031-8-8v-16c0-4.417969 3.582031-8 8-8zm0 0" fill="#fff"/><path d="m400 40h16c4.417969 0 8 3.582031 8 8v16c0 4.417969-3.582031 8-8 8h-16c-4.417969 0-8-3.582031-8-8v-16c0-4.417969 3.582031-8 8-8zm0 0" fill="#fff"/><path d="m296 142.160156c23.617188 18.457032 38.085938 46.230469 39.679688 76.160156 19.734374-13.992187 46.21875-13.734374 65.675781.644532 19.453125 14.375 27.480469 39.617187 19.894531 62.589844-7.582031 22.972656-29.058594 38.476562-53.25 38.445312h-232c-39.765625 0-72-32.234375-72-72s32.234375-72 72-72c1.28125 0 2.480469.160156 3.679688.160156 6.890624-13.234375 16.550781-24.828125 28.320312-34 37.550781-29.546875 90.449219-29.546875 128 0zm0 0" fill="#44ffe8"/></svg>