<svg height="480pt" viewBox="0 0 480.10006 480" width="480pt" xmlns="http://www.w3.org/2000/svg"><path d="m472.050781 416.050781c0 30.925781-25.074219 56-56 56-30.929687 0-56-25.074219-56-56 0-30.929687 25.070313-56 56-56 30.925781 0 56 25.070313 56 56zm0 0" fill="#d80027"/><path d="m120.050781 64.050781c0 30.925781-25.074219 56-56 56-30.929687 0-56-25.074219-56-56 0-30.929687 25.070313-56 56-56 30.925781 0 56 25.070313 56 56zm0 0" fill="#d80027"/><path d="m120.050781 416.050781c0 30.925781-25.074219 56-56 56-30.929687 0-56-25.074219-56-56 0-30.929687 25.070313-56 56-56 30.925781 0 56 25.070313 56 56zm0 0" fill="#ffda44"/><path d="m472.050781 64.050781c0 30.925781-25.074219 56-56 56-30.929687 0-56-25.074219-56-56 0-30.929687 25.070313-56 56-56 30.925781 0 56 25.070313 56 56zm0 0" fill="#ffda44"/><path d="m304.050781 150.210938c23.613281 18.457031 38.085938 46.230468 39.679688 76.160156 19.730469-13.996094 46.21875-13.734375 65.675781.640625 19.453125 14.378906 27.476562 39.621093 19.894531 62.59375-7.582031 22.972656-29.058593 38.476562-53.25 38.445312h-232c-39.765625 0-72-32.234375-72-72s32.234375-72 72-72c1.277344 0 2.480469.160157 3.679688.160157 6.890625-13.234376 16.550781-24.832032 28.320312-34 37.550781-29.546876 90.449219-29.546876 128 0zm0 0" fill="#44ffe8"/><path d="m416.050781 352.050781c-32.222656.054688-59.394531 24.03125-63.449219 56h-37.429687c-1.84375-2.28125-2.933594-5.074219-3.121094-8v-64h64c35.34375 0 64-28.65625 64-64 0-35.347656-28.65625-64-64-64-8.839843-.011719-17.585937 1.824219-25.671875 5.390625-4.398437-26.203125-17.988281-49.984375-38.328125-67.078125v-66.3125c0-4.417969 3.582031-8 8-8h32.550781c4.222657 33.523438 33.78125 57.988281 67.507813 55.875 33.722656-2.117187 59.992187-30.085937 59.992187-63.875 0-33.789062-26.269531-61.757812-59.992187-63.875-33.726563-2.117187-63.285156 22.347657-67.507813 55.875h-32.550781c-13.253906 0-24 10.746094-24 24v55.070313c-34.628906-20.058594-77.335937-20.097656-112-.09375v-54.976563c0-13.253906-10.746093-24-24-24h-32.554687c-4.222656-33.527343-33.78125-57.992187-67.503906-55.875-33.722657 2.117188-59.992188 30.085938-59.992188 63.875 0 33.789063 26.269531 61.757813 59.992188 63.875 33.722656 2.113281 63.28125-22.351562 67.503906-55.875h32.554687c4.417969 0 8 3.582031 8 8v66.269531c-9.972656 8.390626-18.410156 18.449219-24.9375 29.730469-44.183593.257813-79.789062 36.285157-79.53125 80.46875.257813 44.179688 36.285157 79.789063 80.46875 79.53125h32v64c0 4.417969-3.582031 8-8 8h-40.554687c-4.222656-33.527343-33.78125-57.992187-67.503906-55.875-33.722657 2.117188-59.992188 30.085938-59.992188 63.875 0 33.789063 26.269531 61.757813 59.992188 63.875 33.722656 2.113281 63.28125-22.351562 67.503906-55.875h40.554687c13.253907 0 24-10.746093 24-24v-64h104v64c0 10.992188 8.671875 24 16 24h40.550781c4.289063 34.042969 34.664063 58.648438 68.855469 55.773438 34.191407-2.871094 60.035157-32.199219 58.585938-66.480469s-29.679688-61.320312-63.992188-61.292969zm0-336c26.507813 0 48 21.488281 48 48 0 26.507813-21.492187 48-48 48-26.511719 0-48-21.492187-48-48 .027344-26.5 21.5-47.972656 48-48zm-352 96c-26.511719 0-48-21.492187-48-48 0-26.511719 21.488281-48 48-48 26.507813 0 48 21.488281 48 48-.027343 26.496094-21.503906 47.972657-48 48zm0 352c-26.511719 0-48-21.492187-48-48 0-26.511719 21.488281-48 48-48 26.507813 0 48 21.488281 48 48-.027343 26.496094-21.503906 47.972657-48 48zm80-144c-35.347656 0-64-28.65625-64-64 0-35.347656 28.652344-64 64-64 .65625 0 1.289063.046875 1.925781.09375l1.371094.082031c3.148438.238282 6.125-1.46875 7.511719-4.304687 19.855469-38.441406 63.003906-58.820313 105.308594-49.734375 42.304687 9.085938 73.28125 45.382812 75.601562 88.589844.15625 2.914062 1.878907 5.511718 4.503907 6.78125 2.625 1.269531 5.734374 1.011718 8.113281-.675782 16.917969-11.984374 39.621093-11.753906 56.289062.578126 16.671875 12.328124 23.539063 33.96875 17.03125 53.65625-6.507812 19.6875-24.921875 32.96875-45.65625 32.933593zm272 144c-26.511719 0-48-21.492187-48-48 0-26.511719 21.488281-48 48-48 26.507813 0 48 21.488281 48 48-.027343 26.496094-21.503906 47.972657-48 48zm0 0"/><path d="m56.050781 48.050781h16c4.417969 0 8 3.582031 8 8v16c0 4.417969-3.582031 8-8 8h-16c-4.417969 0-8-3.582031-8-8v-16c0-4.417969 3.582031-8 8-8zm0 0"/><path d="m56.050781 400.050781h16c4.417969 0 8 3.582031 8 8v16c0 4.417969-3.582031 8-8 8h-16c-4.417969 0-8-3.582031-8-8v-16c0-4.417969 3.582031-8 8-8zm0 0"/><path d="m408.050781 400.050781h16c4.417969 0 8 3.582031 8 8v16c0 4.417969-3.582031 8-8 8h-16c-4.417969 0-8-3.582031-8-8v-16c0-4.417969 3.582031-8 8-8zm0 0"/><path d="m408.050781 48.050781h16c4.417969 0 8 3.582031 8 8v16c0 4.417969-3.582031 8-8 8h-16c-4.417969 0-8-3.582031-8-8v-16c0-4.417969 3.582031-8 8-8zm0 0"/></svg>