<svg height="464pt" viewBox="0 0 464 464" width="464pt" xmlns="http://www.w3.org/2000/svg"><g fill="#d8d7da"><path d="m224 40h16v104h-16zm0 0"/><path d="m120 205.441406h-16v-45.441406c0-4.417969-3.582031-8-8-8h-56c-13.253906 0-24-10.746094-24-24v-40h16v40c0 4.417969 3.582031 8 8 8h56c13.253906 0 24 10.746094 24 24zm0 0"/><path d="m360 197.441406h-16v-37.441406c0-13.253906 10.746094-24 24-24h56c4.417969 0 8-3.582031 8-8v-48h16v48c0 13.253906-10.746094 24-24 24h-56c-4.417969 0-8 3.582031-8 8zm0 0"/></g><path d="m464 272c-.011719 49.902344-38.269531 91.464844-88 95.601562v.398438h-312c-35.347656 0-64-28.652344-64-64s28.652344-64 64-64c5.429688.015625 10.835938.742188 16.078125 2.160156 0-.71875-.078125-1.441406-.078125-2.160156-.042969-21.632812 12.429688-41.339844 32-50.558594 7.484375-3.613281 15.691406-5.472656 24-5.441406 2.707031.011719 5.40625.226562 8.078125.640625 19.335937-30.828125 53.402344-49.277344 89.785156-48.621094 36.382813.652344 69.765625 20.316407 87.976563 51.820313 29.738281-16.308594 65.878906-15.714844 95.066406 1.566406 29.1875 17.277344 47.089844 48.675781 47.09375 82.59375zm0 0" fill="#44ffe8"/><path d="m40.960938 55.039062c8.066406 8.089844 9.296874 20.75 2.9375 30.242188-6.355469 9.492188-18.53125 13.171875-29.082032 8.792969-10.550781-4.378907-16.539062-15.601563-14.308594-26.804688 2.234376-11.203125 12.070313-19.269531 23.492188-19.269531 6.363281 0 12.46875 2.53125 16.960938 7.039062zm0 0" fill="#ffda44"/><path d="m456.960938 55.039062c8.066406 8.089844 9.296874 20.75 2.9375 30.242188-6.355469 9.492188-18.53125 13.171875-29.082032 8.792969-10.550781-4.378907-16.539062-15.601563-14.308594-26.804688 2.234376-11.203125 12.070313-19.269531 23.492188-19.269531 6.363281 0 12.46875 2.53125 16.960938 7.039062zm0 0" fill="#9cdd05"/><path d="m248.960938 7.039062c8.066406 8.089844 9.296874 20.75 2.9375 30.242188-6.355469 9.492188-18.53125 13.171875-29.082032 8.792969-10.550781-4.378907-16.539062-15.601563-14.308594-26.804688 2.234376-11.203125 12.070313-19.269531 23.492188-19.269531 6.363281 0 12.46875 2.53125 16.960938 7.039062zm0 0" fill="#d80027"/><path d="m305.519531 238.480469c-2.71875-2.707031-5.574219-5.269531-8.558593-7.679688-31.21875-24.96875-73.980469-29.835937-110.007813-12.519531-36.03125 17.3125-58.945313 53.746094-58.953125 93.71875v152h208v-152c.023438-27.585938-10.945312-54.042969-30.480469-73.519531zm0 0" fill="#ffeb99"/><path d="m296 230.097656c-37.582031-29.460937-90.417969-29.460937-128 0v89.902344c.027344 8.824219 7.175781 15.972656 16 16h96c8.824219-.027344 15.972656-7.175781 16-16zm0 0" fill="#fff"/></svg>