<svg height="512pt" viewBox="-61 0 512 512" width="512pt" xmlns="http://www.w3.org/2000/svg"><path d="m360 106.199219-10.199219 134.800781-70.5 30h-168.601562l-70.5-30-10.199219-134.800781c-.601562-8.097657 5.398438-15.597657 13.800781-16.199219h302.398438c8.402343.601562 14.402343 8.101562 13.800781 16.199219zm0 0" fill="#ff7816"/><path d="m360 106.199219-10.199219 134.800781-70.5 30h-84.300781v-181h151.199219c8.402343.601562 14.402343 8.101562 13.800781 16.199219zm0 0" fill="#ff4b00"/><path d="m342.898438 331-9.296876 121-138.601562 30-138.601562-30-9.296876-121 63.597657-30h168.601562zm0 0" fill="#ff7816"/><path d="m279.300781 301 63.597657 30-9.296876 121-138.601562 30v-181zm0 0" fill="#ff4b00"/><path d="m351.597656 88.5h-313.195312c-7.5-3.898438-10.503906-12.898438-6.902344-20.097656l30-60c2.699219-5.101563 7.800781-8.402344 13.5-8.402344h240c5.699219 0 10.800781 3.300781 13.5 8.402344l30 60c3.601562 7.199218.597656 16.199218-6.902344 20.097656zm0 0" fill="#663325"/><path d="m349.800781 241-6.902343 90h-63.597657c-19.5 18.898438-50.402343 30-84.300781 30s-64.800781-11.101562-84.300781-30h-63.597657l-6.902343-90h70.5c19.5-18.898438 50.402343-30 84.300781-30s64.800781 11.101562 84.300781 30zm0 0" fill="#ffcebf"/><path d="m333.601562 452-1.5 18.601562c-1.800781 23.398438-21.601562 41.398438-44.703124 41.398438h-184.800782c-23.097656 0-42.898437-18-44.699218-41.398438l-1.5-18.601562zm0 0" fill="#ff4b00"/><path d="m195 452h138.601562l-1.5 18.601562c-1.800781 23.398438-21.601562 41.398438-44.703124 41.398438h-92.398438zm0 0" fill="#dd3400"/><path d="m279.300781 241h70.5l-6.902343 90h-63.597657c-19.5 18.898438-50.402343 30-84.300781 30v-150c33.898438 0 64.800781 11.101562 84.300781 30zm0 0" fill="#ffa78f"/><path d="m351.597656 88.5h-156.597656v-88.5h120c5.699219 0 10.800781 3.300781 13.5 8.402344l30 60c3.601562 7.199218.597656 16.199218-6.902344 20.097656zm0 0" fill="#552001"/><path d="m390 90v15c0 8.402344-6.597656 15-15 15h-360c-8.402344 0-15-6.597656-15-15v-15c0-16.5 13.5-30 30-30h330c16.5 0 30 13.5 30 30zm0 0" fill="#804231"/><path d="m390 90v15c0 8.402344-6.597656 15-15 15h-180v-60h165c16.5 0 30 13.5 30 30zm0 0" fill="#663325"/></svg>