<svg id="Capa_1" enable-background="new 0 0 512 512" height="512" viewBox="0 0 512 512" width="512" xmlns="http://www.w3.org/2000/svg"><g><path d="m372.706 166.654c-8.332 0-18.458 1.019-26.209 2.926v41.072c7.435-3.155 17.637-4.901 26.209-4.901 34.245 0 62.106 27.86 62.106 62.105v42.16c0 34.245-27.86 62.106-62.106 62.106-8.573 0-18.774-1.747-26.209-4.901v26.639c0 4.818-.529 9.516-1.508 14.052 8.206 2.155 18.844 3.307 27.718 3.307 55.803 0 101.203-45.399 101.203-101.202v-42.16c-.001-55.804-45.401-101.203-101.204-101.203z" fill="#b1dbfc"/><g fill="#8bcaff"><path d="m387.877 207.632c.047-13.332.777-26.506 2.157-39.488-5.633-.976-11.421-1.49-17.329-1.49-8.332 0-18.458 1.019-26.21 2.926v41.072c7.436-3.155 17.637-4.902 26.21-4.902 5.233 0 10.314.658 15.172 1.882z"/><path d="m387.877 370.24c-4.858 1.224-9.939 1.882-15.171 1.882-8.573 0-18.774-1.747-26.21-4.902v26.639c0 4.818-.528 9.516-1.508 14.052 8.206 2.155 18.844 3.307 27.718 3.307 5.907 0 11.696-.514 17.329-1.49-1.38-12.983-2.111-26.156-2.158-39.488z"/></g><g><path d="m59.985 469.806c.603 22.193 18.929 42.194 41.26 42.194h223.468c22.332 0 40.657-20.001 41.261-42.194z" fill="#dfebfa"/></g><path d="m137.622 469.806h-77.637c.604 22.193 18.929 42.194 41.26 42.194h77.637c-22.331 0-40.656-20.001-41.26-42.194z" fill="#b1dbfc"/><path d="m77.433 165.653v167.886l18.492 104.83h237.278c9.562-11.573 15.323-28.417 15.323-44.511v-228.205z" fill="#dfebfa"/><path d="m125.808 165.653h-48.375v167.886l18.492 104.83h48.375l-18.492-104.83c0-9.148 0-162.02 0-167.886z" fill="#b1dbfc"/><g><path d="m242.467 88.629c-4.204 0-7.611-3.407-7.611-7.611 0-8.439 3.128-13.088 5.412-16.483 1.818-2.701 2.819-4.189 2.819-7.983 0-3.796-1.001-5.284-2.82-7.987-2.284-3.395-5.412-8.045-5.412-16.484 0-8.44 3.128-13.089 5.412-16.484 1.818-2.703 2.82-4.191 2.82-7.986 0-4.204 3.408-7.611 7.611-7.611 4.204 0 7.612 3.407 7.612 7.611 0 8.44-3.128 13.089-5.412 16.484-1.818 2.703-2.82 4.191-2.82 7.986s1.001 5.283 2.82 7.986c2.284 3.395 5.412 8.045 5.412 16.485 0 8.439-3.128 13.088-5.412 16.483-1.818 2.701-2.819 4.189-2.819 7.983 0 4.204-3.408 7.611-7.612 7.611z" fill="#b1dbfc"/></g><g><path d="m302.568 88.629c-4.204 0-7.612-3.407-7.612-7.611 0-8.439 3.128-13.088 5.412-16.483 1.818-2.701 2.819-4.189 2.819-7.983 0-3.796-1.001-5.284-2.82-7.987-2.284-3.395-5.412-8.045-5.412-16.484 0-8.44 3.128-13.089 5.412-16.484 1.818-2.703 2.82-4.191 2.82-7.986 0-4.204 3.408-7.611 7.612-7.611s7.611 3.407 7.611 7.611c0 8.44-3.128 13.089-5.412 16.484-1.818 2.703-2.82 4.191-2.82 7.986s1.001 5.283 2.82 7.986c2.284 3.395 5.412 8.045 5.412 16.485 0 8.439-3.128 13.088-5.412 16.483-1.818 2.701-2.819 4.189-2.819 7.983 0 4.204-3.408 7.611-7.611 7.611z" fill="#b1dbfc"/></g><g><path d="m182.367 88.629c-4.204 0-7.612-3.407-7.612-7.611 0-8.439 3.128-13.088 5.412-16.483 1.818-2.701 2.819-4.189 2.819-7.983 0-3.796-1.001-5.284-2.82-7.987-2.284-3.395-5.412-8.045-5.412-16.484 0-8.44 3.128-13.089 5.412-16.484 1.818-2.703 2.82-4.191 2.82-7.986 0-4.204 3.408-7.611 7.611-7.611 4.204 0 7.611 3.407 7.611 7.611 0 8.44-3.128 13.089-5.412 16.484-1.818 2.703-2.82 4.191-2.82 7.986s1.001 5.283 2.82 7.986c2.284 3.395 5.412 8.045 5.412 16.485 0 8.439-3.128 13.088-5.412 16.483-1.818 2.701-2.819 4.189-2.819 7.983.001 4.204-3.407 7.611-7.61 7.611z" fill="#b1dbfc"/></g><g><path d="m122.265 88.629c-4.204 0-7.611-3.407-7.611-7.611 0-8.439 3.128-13.088 5.412-16.483 1.818-2.701 2.819-4.189 2.819-7.983 0-3.796-1.001-5.284-2.82-7.987-2.284-3.395-5.412-8.045-5.412-16.484 0-8.44 3.128-13.089 5.412-16.484 1.818-2.703 2.82-4.191 2.82-7.986 0-4.204 3.408-7.611 7.612-7.611s7.611 3.407 7.611 7.611c0 8.44-3.128 13.089-5.412 16.484-1.818 2.703-2.82 4.191-2.82 7.986s1.001 5.283 2.82 7.986c2.284 3.395 5.412 8.045 5.412 16.485 0 8.439-3.128 13.088-5.412 16.483-1.818 2.701-2.819 4.189-2.819 7.983 0 4.204-3.408 7.611-7.612 7.611z" fill="#b1dbfc"/></g><path d="m375.521 436.34h-325.082c-6.791 0-12.347 5.556-12.347 12.347v10.802c0 6.791 5.556 12.347 12.347 12.347h325.083c6.791 0 12.347-5.556 12.347-12.347v-10.802c0-6.791-5.557-12.347-12.348-12.347z" fill="#b1dbfc"/><path d="m115.729 459.489v-10.802c0-6.791 5.556-12.347 12.347-12.347h-77.637c-6.791 0-12.347 5.556-12.347 12.347v10.802c0 6.791 5.556 12.347 12.347 12.347h77.637c-6.791 0-12.347-5.556-12.347-12.347z" fill="#8bcaff"/><path d="m334.886 118.785h-243.812c-7.502 0-13.641 6.138-13.641 13.641v35.257h271.093v-35.257c0-7.503-6.138-13.641-13.64-13.641z" fill="#b1dbfc"/><path d="m334.886 118.785h-243.812c-7.502 0-13.641 6.138-13.641 13.641v35.257h271.093v-35.257c0-7.503-6.138-13.641-13.64-13.641z" fill="#b1dbfc"/><path d="m139.28 118.785h-48.206c-7.502 0-13.641 6.138-13.641 13.641v35.257h48.206v-35.257c.001-7.503 6.139-13.641 13.641-13.641z" fill="#8bcaff"/><path d="m177.906 328.7c-18.371 0-34.144 13.387-40.99 32.509 2.34 6.536 3.643 13.739 3.643 21.311s-1.303 14.774-3.643 21.31c6.847 19.123 22.619 32.51 40.99 32.51 24.65 0 44.634-24.096 44.634-53.82s-19.983-53.82-44.634-53.82z" fill="#bc7c63"/><path d="m162.317 382.52c0-23.591 12.593-43.623 30.111-50.891-4.554-1.889-9.436-2.93-14.523-2.93-18.371 0-34.143 13.387-40.99 32.509 2.34 6.536 3.643 13.739 3.643 21.311s-1.303 14.774-3.643 21.31c6.847 19.122 22.62 32.51 40.99 32.51 5.086 0 9.968-1.04 14.523-2.93-17.517-7.266-30.111-27.298-30.111-50.889z" fill="#ab6b51"/><g><path d="m177.907 418.83c-1.975 0-3.947-.763-5.439-2.285-2.941-3.003-2.891-7.823.112-10.764 2.027-2.023 6.114-7.533 5.657-11.502-.08-.692-.323-2.799-4.339-5.286-8.726-5.406-11.068-12.077-11.497-16.722-1.108-12.004 9.201-21.769 10.38-22.842 3.108-2.832 7.922-2.607 10.753.502 2.824 3.1 2.607 7.898-.479 10.731-1.944 1.809-5.839 6.683-5.494 10.231.169 1.737 1.634 3.473 4.354 5.158 8.537 5.289 10.942 11.935 11.455 16.577 1.368 12.365-8.956 22.872-10.138 24.03-1.481 1.448-3.404 2.172-5.325 2.172z" fill="#ab6b51"/></g><ellipse cx="96.572" cy="382.52" fill="#bc7c63" rx="45.28" ry="53.82"/><path d="m79.738 382.52c0-23.816 13.02-44.005 31.057-51.095-4.474-1.759-9.252-2.725-14.223-2.725-25.007 0-45.28 24.096-45.28 53.82s20.273 53.82 45.28 53.82c4.971 0 9.749-.966 14.223-2.725-18.037-7.09-31.057-27.279-31.057-51.095z" fill="#ab6b51"/><g><path d="m95.926 418.83c-1.975 0-3.947-.763-5.439-2.285-2.941-3.003-2.891-7.823.112-10.764 2.027-2.023 6.114-7.533 5.657-11.502-.08-.692-.323-2.799-4.339-5.286-8.726-5.406-11.068-12.077-11.497-16.722-1.108-12.004 9.201-21.769 10.381-22.842 3.106-2.832 7.921-2.607 10.752.502 2.824 3.1 2.607 7.898-.479 10.731-1.944 1.809-5.839 6.683-5.493 10.231.169 1.737 1.634 3.473 4.353 5.158 8.538 5.289 10.942 11.935 11.455 16.577 1.368 12.365-8.956 22.872-10.138 24.03-1.481 1.448-3.404 2.172-5.325 2.172z" fill="#ab6b51"/></g></g></svg>