<svg height="464pt" viewBox="0 0 464 464.01451" width="464pt" xmlns="http://www.w3.org/2000/svg"><path d="m232.007812 416.015625h-104v-16h96v-104h16v112c0 4.417969-3.582031 8-8 8zm0 0" fill="#78b9eb"/><path d="m224.007812 304.015625h16v16h-16zm0 0" fill="#3d9ae2"/><path d="m176.007812 192.015625h-104c-4.417968 0-8-3.582031-8-8v-96h16v88h96zm0 0" fill="#78b9eb"/><path d="m240.007812 144.015625h-16v-72c0-4.417969 3.582032-8 8-8h88v16h-80zm0 0" fill="#78b9eb"/><path d="m384.007812 344.015625h-16v-104h-80v-16h96zm0 0" fill="#78b9eb"/><path d="m437.207031 88.015625c-.558593 1.578125-1.199219 3.128906-1.917969 4.640625l18.957032 18.957031-22.640625 22.640625-18.957031-18.960937c-1.511719.722656-3.0625 1.363281-4.640626 1.921875v26.800781h-32v-26.800781c-1.582031-.558594-3.128906-1.199219-4.640624-1.921875l-18.960938 18.960937-22.640625-22.640625 18.960937-18.957031c-.722656-1.511719-1.363281-3.0625-1.917968-4.640625h-26.800782v-32h26.800782c.554687-1.582031 1.195312-3.128906 1.917968-4.640625l-18.960937-18.960938 22.640625-22.640624 18.960938 18.960937c1.511718-.722656 3.058593-1.363281 4.640624-1.917969v-26.800781h32v26.800781c1.578126.554688 3.128907 1.195313 4.640626 1.917969l18.957031-18.960937 22.640625 22.640624-18.957032 18.960938c.71875 1.511719 1.359376 3.058594 1.917969 4.640625h26.800781v32zm0 0" fill="#ff5023"/><path d="m320.007812 464.015625v-88h144v88zm0 0" fill="#ffdaaa"/><path d="m464.007812 328.015625v48h-144v-32h72l16-16zm0 0" fill="#ffeb99"/><path d="m416.007812 72.015625c0 13.253906-10.746093 24-24 24-13.253906 0-24-10.746094-24-24 0-13.257813 10.746094-24 24-24 13.253907 0 24 10.742187 24 24zm0 0" fill="#ffda44"/><path d="m128.007812 360.015625h-40v-40zm0 0" fill="#ff7956"/><path d="m128.007812 408.015625v56h-127.9999995v-144h87.9999995v40h40zm0 0" fill="#ffbcab"/><path d="m128.007812 40.015625c13.253907 0 24 10.742187 24 24 0 13.253906-10.746093 24-24 24h-104c-13.253906 0-23.9999995-10.746094-23.9999995-24 0-13.257813 10.7460935-24 23.9999995-24 3.371094.003906 6.699219.738281 9.757813 2.160156-1.121094-3.273437-1.714844-6.703125-1.757813-10.160156-.042968-16.125 11.941407-29.75 27.9375-31.765625 15.996094-2.015625 30.984376 8.214844 34.941407 23.84375.402343 0 .71875-.078125 1.121093-.078125 10.824219-.011719 20.292969 7.285156 23.039063 17.757813 2.847656-1.15625 5.886719-1.753907 8.960937-1.757813zm0 0" fill="#2488ff"/><path d="m288.007812 152.015625c0-8.835937-25.074218-16-56-16-30.929687 0-56 7.164063-56 16s25.070313 16 56 16c30.925782 0 56-7.164063 56-16zm0 0" fill="#44ffe8"/><path d="m288.007812 248.015625v48c0 8.800781-25.039062 16-56 16-30.960937 0-56-7.199219-56-16v-48c0 8.800781 25.039063 16 56 16 30.960938 0 56-7.199219 56-16zm0 0" fill="#5aaae7"/><path d="m288.007812 233.132812v14.882813c0 8.800781-25.039062 16-56 16-30.960937 0-56-7.199219-56-16v-48c0 8.800781 25.039063 16 56 16 30.960938 0 56-7.199219 56-16zm0 0" fill="#00b6bd"/><path d="m288.007812 152.015625v48c0 8.800781-25.039062 16-56 16-30.960937 0-56-7.199219-56-16v-48c0 8.800781 25.039063 16 56 16 30.960938 0 56-7.199219 56-16zm0 0" fill="#00ddc2"/><path d="m344.007812 400.015625h32v16h-32zm0 0" fill="#e0e0e2"/><path d="m64.007812 88.015625h16v8h-16zm0 0" fill="#3d9ae2"/><g fill="#1a6fb0"><path d="m24.007812 344.015625h40v16h-40zm0 0"/><path d="m24.007812 376.015625h80v16h-80zm0 0"/><path d="m24.007812 408.015625h16v16h-16zm0 0"/><path d="m56.007812 408.015625h48v16h-48zm0 0"/></g></svg>