<?xml version="1.0" encoding="utf-8"?>
<!-- Generator: Adobe Illustrator 18.0.0, SVG Export Plug-In . SVG Version: 6.00 Build 0)  -->
<!DOCTYPE svg PUBLIC "-//W3C//DTD SVG 1.1//EN" "http://www.w3.org/Graphics/SVG/1.1/DTD/svg11.dtd">
<svg version="1.1" id="Layer_1" xmlns="http://www.w3.org/2000/svg" xmlns:xlink="http://www.w3.org/1999/xlink" x="0px" y="0px"
	 width="1400px" height="1400px" viewBox="0 0 1400 1400" enable-background="new 0 0 1400 1400" xml:space="preserve">
<rect fill="#29AEB7" width="1400" height="1400"/>
<g>
	<g>
		<g>
			<g>
				<path fill="#F1F2F2" d="M947.9,602.4H815.4c-9,0-16.3-7.3-16.3-16.3V339.2c0-9,7.3-16.3,16.3-16.3h132.6c9,0,16.3,7.3,16.3,16.3
					v246.9C964.2,595.1,956.9,602.4,947.9,602.4z"/>
			</g>
			<rect x="817.5" y="339.9" fill="#6D6E71" width="128.2" height="219.4"/>
			<g>
				<circle fill="#E6E7E8" cx="881.6" cy="580.9" r="12"/>
			</g>
		</g>
		<rect x="838.3" y="373.2" fill="#F1F2F2" width="86.6" height="138.8"/>
		<rect x="851.1" y="388.9" width="61.1" height="5.9"/>
		<rect x="851.1" y="403.7" width="61.1" height="5.9"/>
		<rect x="851.1" y="418.5" width="61.1" height="5.9"/>
		<rect x="851.1" y="433.3" width="61.1" height="5.9"/>
		<rect x="851.1" y="448" width="61.1" height="5.9"/>
		<rect x="851.1" y="462.8" width="61.1" height="5.9"/>
		<rect x="851.1" y="477.6" width="61.1" height="5.9"/>
		<rect x="851.1" y="492.4" width="61.1" height="5.9"/>
	</g>
	<g>
		<g>
			<path fill="#172A4B" d="M898.8,772.6H744.1h-86H503.3c-10.9,0-19.8,8.9-19.8,19.8v221v19.8h19.8h154.8h86h154.8h19.8v-19.8v-221
				C918.6,781.5,909.8,772.6,898.8,772.6z"/>
		</g>
		<g>
			<rect x="501.1" y="794.3" fill="#F1F2F2" width="397.7" height="218.8"/>
		</g>
		<g>
			<rect x="446.6" y="1033.2" fill="#F1F2F2" width="506.8" height="14.6"/>
		</g>
		<g>
			<path fill="#172A4B" d="M464.2,1056.6h197.9h75.8h197.9c10.7,0,17.6-8.8,17.6-8.8H446.6C446.6,1047.8,453.5,1056.6,464.2,1056.6z
				"/>
		</g>
	</g>
	<path fill="#EA911B" d="M608.5,772.6h49.8v-42.3c0-13.8-11.1-24.9-24.9-24.9l0,0c-13.8,0-24.9,11.1-24.9,24.9V772.6z"/>
	<path fill="#F99F18" d="M658.3,987.7h154.5l55-55V748.9c0-24-19.5-43.5-43.5-43.5H700h-41.7h-24.9c13.8,0,24.9,11.1,24.9,24.9v42.3
		V987.7z"/>
	<path fill="#F1F2F2" d="M825.7,974.7l29-29V748.9c0-16.8-13.7-30.5-30.5-30.5H669.4c1.2,3.7,1.9,7.7,1.9,11.9v244.3H825.7z"/>
	<rect x="693.2" y="750.3" fill="#172A4B" width="139.7" height="10.5"/>
	<rect x="693.2" y="776.4" fill="#172A4B" width="139.7" height="10.5"/>
	<rect x="693.2" y="802.5" fill="#172A4B" width="139.7" height="10.5"/>
	<rect x="693.2" y="828.6" fill="#172A4B" width="139.7" height="10.5"/>
	<rect x="693.2" y="854.7" fill="#172A4B" width="139.7" height="10.5"/>
	<rect x="693.2" y="880.8" fill="#172A4B" width="139.7" height="10.5"/>
	<rect x="693.2" y="906.9" fill="#172A4B" width="139.7" height="10.5"/>
	<polygon fill="#F99F18" points="812.7,987.7 867.8,932.6 812.7,932.6 	"/>
	<path fill="#E4390E" d="M892,678.5l7.2-7.2c-5.7-7.9-12.6-14.9-20.6-20.6l-7.2,7.2c-8.8-6-18.8-10.2-29.6-12.3v-10.2
		c-4.7-0.8-9.6-1.2-14.6-1.2s-9.8,0.4-14.6,1.2v10.2c-10.8,2-20.8,6.3-29.6,12.3l-7.2-7.2c-7.9,5.7-14.9,12.6-20.6,20.6l7.2,7.2
		c-6,8.8-10.2,18.8-12.3,29.6H740c-0.8,4.7-1.2,9.6-1.2,14.6c0,5,0.4,9.8,1.2,14.6h10.2c2,10.8,6.3,20.8,12.3,29.6l-7.2,7.2
		c5.7,7.9,12.6,14.9,20.6,20.6l7.2-7.2c8.8,6,18.8,10.2,29.6,12.3v10.2c4.7,0.8,9.6,1.2,14.6,1.2s9.8-0.4,14.6-1.2v-10.2
		c10.8-2,20.8-6.3,29.6-12.3l7.2,7.2c7.9-5.7,14.9-12.6,20.6-20.6l-7.2-7.2c6-8.8,10.2-18.8,12.3-29.6h10.2
		c0.8-4.7,1.2-9.6,1.2-14.6c0-5-0.4-9.8-1.2-14.6h-10.2C902.2,697.3,898,687.3,892,678.5z M827.2,768c-25,0-45.3-20.3-45.3-45.3
		c0-25,20.3-45.3,45.3-45.3s45.3,20.3,45.3,45.3C872.6,747.7,852.3,768,827.2,768z"/>
	<path fill="#F99F18" d="M900.3,581l-6.6-3.6c-4.4,5.6-7.9,12-10.2,18.7l6.6,3.6c-2.4,7.4-3.3,15.3-2.5,23.4l-7.2,2.1
		c0.4,3.5,1.1,7,2.2,10.5c1,3.5,2.3,6.8,3.8,10l7.2-2.1c3.7,7.2,8.7,13.4,14.7,18.3l-3.6,6.6c5.6,4.4,12,7.9,18.7,10.2l3.6-6.6
		c7.4,2.4,15.3,3.3,23.4,2.5l2.1,7.2c3.5-0.4,7-1.1,10.5-2.2c3.5-1,6.8-2.3,10-3.8l-2.1-7.2c7.2-3.7,13.4-8.7,18.3-14.7l6.6,3.6
		c4.4-5.6,7.9-12,10.2-18.7l-6.6-3.6c2.4-7.4,3.3-15.3,2.5-23.4l7.2-2.1c-0.4-3.5-1.1-7-2.2-10.5c-1-3.5-2.3-6.8-3.8-10l-7.2,2.1
		c-3.7-7.2-8.7-13.4-14.7-18.3l3.6-6.6c-5.6-4.4-12-7.9-18.7-10.2l-3.6,6.6c-7.4-2.4-15.3-3.3-23.4-2.5l-2.1-7.2
		c-3.5,0.4-7,1.1-10.5,2.2c-3.5,1-6.8,2.3-10,3.8l2.1,7.2C911.4,569.9,905.3,575,900.3,581z M976.7,608.1
		c5.2,17.6-4.9,36.1-22.5,41.3c-17.6,5.2-36.1-4.9-41.3-22.5c-5.2-17.6,4.9-36.1,22.5-41.3C953,580.4,971.5,590.4,976.7,608.1z"/>
	<g>
		<rect x="179.5" y="761.2" fill="#BCBEC0" width="221.5" height="283.4"/>
		<rect x="196.3" y="744.5" fill="#D1D3D4" width="221.5" height="283.4"/>
		<polygon fill="#E6E7E8" points="398.7,727.7 213.1,727.7 213.1,1011.1 434.6,1011.1 434.6,763.6 		"/>
		<polygon fill="#F1F2F2" points="229.9,710.9 229.9,994.3 451.4,994.3 451.4,780.4 381.9,710.9 		"/>
		<polygon fill="#172A4B" points="381.9,780.4 451.4,780.4 381.9,710.9 		"/>
		<g>
			<rect x="254.9" y="802.2" width="172.2" height="5.1"/>
			<rect x="254.9" y="823.3" width="172.2" height="5.1"/>
			<rect x="254.9" y="844.4" width="172.2" height="5.1"/>
			<rect x="254.9" y="865.5" width="172.2" height="5.1"/>
			<rect x="254.9" y="886.6" width="172.2" height="5.1"/>
			<rect x="254.9" y="907.7" width="172.2" height="5.1"/>
			<rect x="254.9" y="928.8" width="172.2" height="5.1"/>
			<rect x="254.9" y="949.9" width="172.2" height="5.1"/>
		</g>
		<g>
			<path fill="#F4D4B8" d="M381.9,980.1l0-7.7c0,0,0,0,0,0v-44.5c0-5.7-4.4-10.6-10.1-10.8c-2.1-0.1-4,0.4-5.7,1.4v18.1h-1.5v-17
				v-0.2c0-4.5-2.8-8.6-7.2-10c-3.3-1-6.4-0.5-8.9,1.1v19.4h-1.7v-18c-1.4-4.1-5.3-7.1-9.9-7.1c-1.7,0-3.4,0.4-4.8,1.2v20.5h-1.9
				v-19.2v-15.3c0-5.6-4.2-10.5-9.8-10.8c-6.1-0.4-11.2,4.4-11.2,10.5v43.8v14.5h-1.5v-12.3c0-2.1-1.7-3.9-3.8-3.9c0,0,0,0,0,0h-7.2
				c-1,0-1.9,0.8-1.9,1.9v29.4c-0.1,1.2-0.3,9.3,9.6,19.3c8.6,8.7,19.3,18,22,20.4v9.2c0,1,0.8,1.9,1.9,1.9h41.2
				c1,0,1.9-0.8,1.9-1.9v-14.2C382.2,990.6,381.9,980.5,381.9,980.1z"/>
			<g>
				<rect id="XMLID_1_" x="314.9" y="1007.9" fill="#E4390E" width="61.4" height="52.6"/>
			</g>
		</g>
	</g>
	<g>
		<path fill="#172A4B" d="M742.7,387.1h-432c-3.8,0-6.9,3.1-6.9,6.9v233.1l0,0h21.7h424.2V394C749.7,390.2,746.6,387.1,742.7,387.1z
			"/>
		<rect x="325.4" y="408.3" fill="#F1F2F2" width="402.6" height="190.2"/>
		<path fill="#E6E7E8" d="M303.8,627.2V658c0,3.8,3.1,6.9,6.9,6.9h432c3.8,0,6.9-3.1,6.9-6.9v-30.8H303.8z"/>
		<polygon fill="#D1D3D4" points="477.4,664.9 471.5,714.5 526.7,714.5 581.9,714.5 576.1,664.9 		"/>
		<path fill="#F1F2F2" d="M584.8,727.4H468.7c-3.5,0-6.3-2.8-6.3-6.3l0,0c0-3.5,2.8-6.3,6.3-6.3h116.1c3.5,0,6.3,2.8,6.3,6.3l0,0
			C591.1,724.6,588.3,727.4,584.8,727.4z"/>
		<g>
			<rect x="355.4" y="437.4" fill="#172A4B" width="99.7" height="132"/>
			<rect x="373.3" y="462.6" fill="#F1F2F2" width="66.2" height="6"/>
			<rect x="373.3" y="480" fill="#F1F2F2" width="66.2" height="6"/>
			<rect x="373.3" y="497.4" fill="#F1F2F2" width="66.2" height="6"/>
			<rect x="373.3" y="514.8" fill="#F1F2F2" width="66.2" height="6"/>
			<rect x="373.3" y="532.1" fill="#F1F2F2" width="66.2" height="6"/>
		</g>
		<g>
			<rect x="476.9" y="437.4" fill="#172A4B" width="99.7" height="132"/>
			<rect x="494.7" y="462.6" fill="#F1F2F2" width="66.2" height="6"/>
			<rect x="494.7" y="480" fill="#F1F2F2" width="66.2" height="6"/>
			<rect x="494.7" y="497.4" fill="#F1F2F2" width="66.2" height="6"/>
			<rect x="494.7" y="514.8" fill="#F1F2F2" width="66.2" height="6"/>
			<rect x="494.7" y="532.1" fill="#F1F2F2" width="66.2" height="6"/>
		</g>
		<g>
			<rect x="598.3" y="437.4" fill="#172A4B" width="99.7" height="132"/>
			<rect x="616.2" y="462.6" fill="#F1F2F2" width="66.2" height="6"/>
			<rect x="616.2" y="480" fill="#F1F2F2" width="66.2" height="6"/>
			<rect x="616.2" y="497.4" fill="#F1F2F2" width="66.2" height="6"/>
			<rect x="616.2" y="514.8" fill="#F1F2F2" width="66.2" height="6"/>
			<rect x="616.2" y="532.1" fill="#F1F2F2" width="66.2" height="6"/>
		</g>
	</g>
	<g>
		<polygon fill="#F1F2F2" points="535,359 527,359 527,321.7 741.8,321.7 741.8,329.7 535,329.7 		"/>
	</g>
	<polygon fill="#F1F2F2" points="738.5,304 738.5,347.4 760.2,325.7 	"/>
	<path fill="#F99F18" d="M370,361.4l5.9-5.9c-4.6-6.4-10.2-12.1-16.7-16.7l-5.9,5.9c-7.1-4.8-15.2-8.3-24-9.9v-8.3
		c-3.8-0.6-7.8-1-11.8-1s-8,0.3-11.8,1v8.3c-8.8,1.6-16.9,5.1-24,9.9l-5.9-5.9c-6.4,4.6-12.1,10.2-16.7,16.7l5.9,5.9
		c-4.8,7.1-8.3,15.2-9.9,24h-8.3c-0.6,3.8-1,7.8-1,11.8s0.3,8,1,11.8h8.3c1.6,8.8,5.1,16.9,9.9,24l-5.9,5.9
		c4.6,6.4,10.2,12.1,16.7,16.7l5.9-5.9c7.1,4.8,15.2,8.3,24,9.9v8.3c3.8,0.6,7.8,1,11.8,1s8-0.3,11.8-1v-8.3
		c8.8-1.6,16.9-5.1,24-9.9l5.9,5.9c6.4-4.6,12.1-10.2,16.7-16.7L370,433c4.8-7.1,8.3-15.2,9.9-24h8.3c0.6-3.8,1-7.8,1-11.8
		s-0.3-8-1-11.8h-8.3C378.3,376.6,374.8,368.5,370,361.4z M317.5,433.9c-20.3,0-36.7-16.4-36.7-36.7s16.4-36.7,36.7-36.7
		c20.3,0,36.7,16.4,36.7,36.7S337.8,433.9,317.5,433.9z"/>
	<path fill="#E4390E" d="M457,283.4l3.7-5.3c-4.4-4.3-9.4-7.9-15-10.6l-3.7,5.3c-6.1-2.8-12.8-4.4-19.7-4.5l-1.1-6.4
		c-3,0-6.1,0.3-9.2,0.8c-3.1,0.5-6.1,1.3-8.9,2.3l1.1,6.4c-6.5,2.4-12.3,6.1-17.1,10.8l-5.3-3.7c-4.3,4.4-7.9,9.4-10.6,15l5.3,3.7
		c-2.8,6.1-4.4,12.8-4.5,19.7l-6.4,1.1c0,3,0.3,6.1,0.8,9.2c0.5,3.1,1.3,6.1,2.3,8.9l6.4-1.1c2.4,6.5,6.1,12.3,10.8,17.1l-3.7,5.3
		c4.4,4.3,9.4,7.9,15,10.6l3.7-5.3c6.1,2.8,12.8,4.4,19.7,4.5l1.1,6.4c3,0,6.1-0.3,9.2-0.8c3.1-0.5,6.1-1.3,8.9-2.3l-1.1-6.4
		c6.5-2.4,12.3-6.1,17.1-10.8l5.3,3.7c4.3-4.4,7.9-9.4,10.6-15l-5.3-3.7c2.8-6.1,4.4-12.8,4.5-19.7l6.4-1.1c0-3-0.3-6.1-0.8-9.2
		c-0.5-3.1-1.3-6.1-2.3-8.9l-6.4,1.1C465.3,294,461.6,288.2,457,283.4z M426.2,345.9c-15.6,2.7-30.4-7.8-33-23.4s7.8-30.4,23.4-33
		c15.6-2.7,30.4,7.8,33,23.4C452.3,328.5,441.8,343.3,426.2,345.9z"/>
	<path fill="#172A4B" d="M337.9,226.2l1.7-5.8c-5.2-2.5-10.8-4.1-16.5-4.7l-1.7,5.8c-6.2-0.6-12.6,0.1-18.8,2.2l-2.9-5.3
		c-2.7,1-5.3,2.1-7.9,3.6c-2.6,1.4-4.9,3-7.2,4.8l2.9,5.3c-5,4.2-9,9.2-11.8,14.8l-5.8-1.7c-2.5,5.2-4.1,10.8-4.7,16.5l5.8,1.7
		c-0.6,6.2,0.1,12.6,2.2,18.8l-5.3,2.9c1,2.7,2.1,5.3,3.6,7.9c1.4,2.6,3,4.9,4.8,7.2l5.3-2.9c4.2,5,9.2,9,14.8,11.8l-1.7,5.8
		c5.2,2.5,10.8,4.1,16.5,4.7l1.7-5.8c6.2,0.6,12.6-0.1,18.8-2.2l2.9,5.3c2.7-1,5.3-2.1,7.9-3.6c2.6-1.4,4.9-3,7.2-4.8l-2.9-5.3
		c5-4.2,9-9.2,11.8-14.8l5.8,1.7c2.5-5.2,4.1-10.8,4.7-16.5l-5.8-1.7c0.6-6.2-0.1-12.6-2.2-18.8l5.3-2.9c-1-2.7-2.1-5.3-3.6-7.9
		c-1.4-2.6-3-4.9-4.8-7.2l-5.3,2.9C348.6,233,343.5,229,337.9,226.2z M330.2,291c-12.9,7.2-29.2,2.6-36.4-10.4
		c-7.2-12.9-2.6-29.2,10.4-36.4c12.9-7.2,29.2-2.6,36.4,10.4C347.8,267.5,343.2,283.8,330.2,291z"/>
	<g>
		<g>
			
				<rect x="605.9" y="584.7" transform="matrix(0.823 -0.568 0.568 0.823 -232.532 453.8108)" fill="#58595B" width="12.1" height="30.7"/>
		</g>
		<g>
			<path fill="#F99F18" d="M529.4,480.2c-31.7,21.9-39.7,65.4-17.8,97.1c21.9,31.7,65.4,39.7,97.1,17.8
				c31.7-21.9,39.7-65.4,17.8-97.1C604.6,466.2,561.1,458.3,529.4,480.2z M602.1,585.4c-26.4,18.2-62.6,11.6-80.9-14.8
				C503,544.2,509.6,508,536,489.8c26.4-18.2,62.6-11.6,80.9,14.8C635.1,531,628.5,567.2,602.1,585.4z"/>
		</g>
		<g>
			<path fill="#E4390E" d="M675.2,691.4L675.2,691.4c-6.6,4.6-15.7,2.9-20.3-3.7l-49.5-71.8l24-16.5l49.5,71.8
				C683.5,677.7,681.8,686.8,675.2,691.4z"/>
		</g>
	</g>
	<g>
		<g>
			<rect x="970" y="713.8" fill="#D1D3D4" width="214.9" height="137.3"/>
		</g>
		<g>
			<rect x="989" y="736.3" fill="#FFFFFF" width="214.9" height="137.3"/>
		</g>
		<g>
			<polygon fill="#E4390E" points="1097.9,757.4 1084.9,726.6 962.5,726.6 950.2,755.5 950.2,1009.3 1217.9,1009.3 1217.9,757.4 			
				"/>
		</g>
	</g>
	<path fill="#18355E" d="M794,573.2l-5-0.8c-1.5,4.6-2.3,9.4-2.3,14.3l5,0.8c0.1,5.3,1.4,10.5,3.7,15.5l-4.1,3
		c1.1,2.1,2.3,4.2,3.8,6.2c1.4,2,3,3.8,4.7,5.5l4.1-3c4,3.8,8.6,6.5,13.6,8.3l-0.8,5c4.6,1.5,9.4,2.3,14.3,2.3l0.8-5
		c5.3-0.1,10.5-1.4,15.5-3.7l3,4.1c2.1-1.1,4.2-2.3,6.2-3.8c2-1.4,3.8-3,5.5-4.7l-3-4.1c3.8-4,6.5-8.6,8.3-13.6l5,0.8
		c1.5-4.6,2.3-9.4,2.3-14.3l-5-0.8c-0.1-5.3-1.4-10.5-3.7-15.5l4.1-3c-1.1-2.1-2.3-4.2-3.8-6.2c-1.4-2-3-3.8-4.7-5.5l-4.1,3
		c-4-3.8-8.6-6.5-13.6-8.3l0.8-5c-4.6-1.5-9.4-2.3-14.3-2.3l-0.8,5c-5.3,0.1-10.5,1.4-15.5,3.7l-3-4.1c-2.1,1.1-4.2,2.3-6.2,3.8
		s-3.8,3-5.5,4.7l3,4.1C798.6,563.6,795.8,568.3,794,573.2z M848.8,573.2c7.3,10.1,5.1,24.1-5,31.4c-10.1,7.3-24.1,5.1-31.4-5
		c-7.3-10.1-5.1-24.1,5-31.4S841.5,563.1,848.8,573.2z"/>
	<g>
		<g>
			<path fill="#18355E" d="M1086.8,645h-50.3v-25.1c0-13.9,11.3-25.1,25.1-25.1s25.1,11.3,25.1,25.1V645z M1044.5,637h34.3v-17.1
				c0-9.5-7.7-17.1-17.1-17.1s-17.1,7.7-17.1,17.1V637z"/>
		</g>
		<g>
			<path fill="#F1F2F2" d="M1061.6,697.4L1061.6,697.4c-18.2,0-32.9-14.8-32.9-33l0-26.5c0-2.7,2.2-5,5-5l55.9,0c2.7,0,5,2.2,5,5
				l0,26.5C1094.6,682.6,1079.8,697.4,1061.6,697.4z"/>
		</g>
		<path fill="#18355E" d="M1067.7,653.4c0-3.3-2.7-6-6-6c-3.3,0-6,2.7-6,6c0,2.6,1.7,4.8,4,5.7l-4,17.8l6,0l6,0l-4-17.8
			C1066,658.2,1067.7,656,1067.7,653.4z"/>
	</g>
	<path fill="#E4390E" d="M1061.6,494.6c0-18.9-15.9-34.1-35.1-32.8c-16.4,1.1-29.7,14.5-30.6,30.9c-0.3,5.4,0.7,10.5,2.7,15.1l0,0
		l0,0c0.2,0.6,0.5,1.1,0.8,1.7l27.2,51.4c0.9,1.7,3.4,1.7,4.3,0l27.2-51.4c0.3-0.5,0.5-1.1,0.8-1.7l0,0l0,0
		C1060.6,503.7,1061.6,499.3,1061.6,494.6z M1028.7,512.8c-9.1,0-16.4-7.3-16.4-16.4c0-9.1,7.3-16.4,16.4-16.4s16.4,7.3,16.4,16.4
		C1045.1,505.5,1037.8,512.8,1028.7,512.8z"/>
	<g>
		<g>
			<path fill="#F1F2F2" d="M881.6,292.8c-0.5,0-1-0.4-1-1l-0.2-6c0-0.6,0.4-1,1-1c0.6,0,1,0.4,1,1l0.2,6
				C882.7,292.3,882.2,292.7,881.6,292.8C881.7,292.8,881.7,292.8,881.6,292.8z"/>
		</g>
		<g>
			<path fill="#F1F2F2" d="M880.6,268.9c-0.5,0-1-0.4-1-1l-0.2-6c0-0.3,0.1-0.5,0.3-0.7c0.2-0.2,0.4-0.3,0.7-0.3h6c0.6,0,1,0.4,1,1
				c0,0.6-0.4,1-1,1h-5l0.2,5C881.7,268.4,881.2,268.9,880.6,268.9C880.7,268.9,880.7,268.9,880.6,268.9z"/>
		</g>
		<g>
			<path fill="#F1F2F2" d="M1111.5,262.9H1099c-0.6,0-1-0.4-1-1c0-0.6,0.4-1,1-1h12.5c0.6,0,1,0.4,1,1
				C1112.5,262.4,1112.1,262.9,1111.5,262.9z M1086.5,262.9H1074c-0.6,0-1-0.4-1-1c0-0.6,0.4-1,1-1h12.5c0.6,0,1,0.4,1,1
				C1087.5,262.4,1087.1,262.9,1086.5,262.9z M1061.5,262.9H1049c-0.6,0-1-0.4-1-1c0-0.6,0.4-1,1-1h12.5c0.6,0,1,0.4,1,1
				C1062.5,262.4,1062.1,262.9,1061.5,262.9z M1036.5,262.9H1024c-0.6,0-1-0.4-1-1c0-0.6,0.4-1,1-1h12.5c0.6,0,1,0.4,1,1
				C1037.5,262.4,1037.1,262.9,1036.5,262.9z M1011.5,262.9H999c-0.6,0-1-0.4-1-1c0-0.6,0.4-1,1-1h12.5c0.6,0,1,0.4,1,1
				C1012.5,262.4,1012,262.9,1011.5,262.9z M986.5,262.9H974c-0.6,0-1-0.4-1-1c0-0.6,0.4-1,1-1h12.5c0.6,0,1,0.4,1,1
				C987.5,262.4,987,262.9,986.5,262.9z M961.4,262.9h-12.5c-0.6,0-1-0.4-1-1c0-0.6,0.4-1,1-1h12.5c0.6,0,1,0.4,1,1
				C962.4,262.4,962,262.9,961.4,262.9z M936.4,262.9h-12.5c-0.6,0-1-0.4-1-1c0-0.6,0.4-1,1-1h12.5c0.6,0,1,0.4,1,1
				C937.4,262.4,937,262.9,936.4,262.9z M911.4,262.9h-12.5c-0.6,0-1-0.4-1-1c0-0.6,0.4-1,1-1h12.5c0.6,0,1,0.4,1,1
				C912.4,262.4,912,262.9,911.4,262.9z"/>
		</g>
		<g>
			<path fill="#F1F2F2" d="M1130.1,268.9c-0.6,0-1-0.4-1-1v-5h-5c-0.6,0-1-0.4-1-1c0-0.6,0.4-1,1-1h6c0.6,0,1,0.4,1,1v6
				C1131.1,268.4,1130.6,268.9,1130.1,268.9z"/>
		</g>
		<g>
			<path fill="#F1F2F2" d="M1130.1,566.6c-0.6,0-1-0.4-1-1v-12.4c0-0.6,0.4-1,1-1s1,0.4,1,1v12.4
				C1131.1,566.1,1130.6,566.6,1130.1,566.6z M1130.1,541.8c-0.6,0-1-0.4-1-1v-12.4c0-0.6,0.4-1,1-1s1,0.4,1,1v12.4
				C1131.1,541.3,1130.6,541.8,1130.1,541.8z M1130.1,516.9c-0.6,0-1-0.4-1-1v-12.4c0-0.6,0.4-1,1-1s1,0.4,1,1v12.4
				C1131.1,516.5,1130.6,516.9,1130.1,516.9z M1130.1,492.1c-0.6,0-1-0.4-1-1v-12.4c0-0.6,0.4-1,1-1s1,0.4,1,1v12.4
				C1131.1,491.7,1130.6,492.1,1130.1,492.1z M1130.1,467.3c-0.6,0-1-0.4-1-1v-12.4c0-0.6,0.4-1,1-1s1,0.4,1,1v12.4
				C1131.1,466.9,1130.6,467.3,1130.1,467.3z M1130.1,442.5c-0.6,0-1-0.4-1-1v-12.4c0-0.6,0.4-1,1-1s1,0.4,1,1v12.4
				C1131.1,442.1,1130.6,442.5,1130.1,442.5z M1130.1,417.7c-0.6,0-1-0.4-1-1v-12.4c0-0.6,0.4-1,1-1s1,0.4,1,1v12.4
				C1131.1,417.3,1130.6,417.7,1130.1,417.7z M1130.1,392.9c-0.6,0-1-0.4-1-1v-12.4c0-0.6,0.4-1,1-1s1,0.4,1,1v12.4
				C1131.1,392.5,1130.6,392.9,1130.1,392.9z M1130.1,368.1c-0.6,0-1-0.4-1-1v-12.4c0-0.6,0.4-1,1-1s1,0.4,1,1v12.4
				C1131.1,367.7,1130.6,368.1,1130.1,368.1z M1130.1,343.3c-0.6,0-1-0.4-1-1v-12.4c0-0.6,0.4-1,1-1s1,0.4,1,1v12.4
				C1131.1,342.9,1130.6,343.3,1130.1,343.3z M1130.1,318.5c-0.6,0-1-0.4-1-1v-12.4c0-0.6,0.4-1,1-1s1,0.4,1,1v12.4
				C1131.1,318.1,1130.6,318.5,1130.1,318.5z M1130.1,293.7c-0.6,0-1-0.4-1-1v-12.4c0-0.6,0.4-1,1-1s1,0.4,1,1v12.4
				C1131.1,293.3,1130.6,293.7,1130.1,293.7z"/>
		</g>
		<g>
			<path fill="#F1F2F2" d="M1130.1,585c-0.6,0-1-0.4-1-1v-6c0-0.6,0.4-1,1-1s1,0.4,1,1v6C1131.1,584.5,1130.6,585,1130.1,585z"/>
		</g>
	</g>
	<path fill="#F99F18" d="M1165,707.3l-5.8-3.1c-3.9,4.9-6.9,10.5-8.9,16.4l5.8,3.1c-2.1,6.5-2.9,13.4-2.2,20.4l-6.3,1.8
		c0.4,3,1,6.1,1.9,9.2c0.9,3,2,6,3.4,8.7l6.3-1.8c3.2,6.3,7.6,11.7,12.9,16l-3.1,5.8c4.9,3.9,10.5,6.9,16.4,8.9l3.1-5.8
		c6.5,2.1,13.4,2.9,20.4,2.2l1.8,6.3c3-0.4,6.1-1,9.2-1.9c3-0.9,6-2,8.7-3.4l-1.8-6.3c6.3-3.2,11.7-7.6,16-12.9l5.8,3.1
		c3.9-4.9,6.9-10.4,8.9-16.4l-5.8-3.1c2.1-6.5,2.9-13.4,2.2-20.4l6.3-1.8c-0.4-3-1-6.1-1.9-9.2c-0.9-3-2-6-3.4-8.7l-6.3,1.8
		c-3.2-6.3-7.6-11.7-12.9-16l3.1-5.8c-4.9-3.9-10.4-6.9-16.4-8.9l-3.1,5.8c-6.5-2.1-13.4-2.9-20.4-2.2l-1.8-6.3
		c-3,0.4-6.1,1-9.2,1.9c-3,0.9-6,2-8.7,3.4l1.8,6.3C1174.7,697.6,1169.3,702,1165,707.3z M1231.7,730.9c4.5,15.4-4.3,31.5-19.7,36
		c-15.4,4.5-31.5-4.3-36-19.7c-4.5-15.4,4.3-31.5,19.7-36C1211,706.7,1227.2,715.5,1231.7,730.9z"/>
	<path fill="#18355E" d="M1129.3,635.4l-3.6-2c-2.4,3.1-4.3,6.5-5.6,10.2l3.6,2c-1.3,4-1.8,8.4-1.4,12.8l-3.9,1.2
		c0.2,1.9,0.6,3.8,1.2,5.7s1.3,3.7,2.1,5.5l3.9-1.2c2,3.9,4.8,7.3,8.1,10l-2,3.6c3.1,2.4,6.5,4.3,10.2,5.6l2-3.6
		c4,1.3,8.4,1.8,12.8,1.4l1.2,3.9c1.9-0.2,3.8-0.6,5.7-1.2c1.9-0.6,3.7-1.3,5.5-2.1l-1.2-3.9c3.9-2,7.3-4.8,10-8.1l3.6,2
		c2.4-3.1,4.3-6.5,5.6-10.2l-3.6-2c1.3-4,1.8-8.4,1.4-12.8l3.9-1.2c-0.2-1.9-0.6-3.8-1.2-5.7c-0.6-1.9-1.3-3.7-2.1-5.5l-3.9,1.2
		c-2-3.9-4.8-7.3-8.1-10l2-3.6c-3.1-2.4-6.5-4.3-10.2-5.6l-2,3.6c-4-1.3-8.4-1.8-12.8-1.4l-1.2-3.9c-1.9,0.2-3.8,0.6-5.7,1.2
		c-1.9,0.6-3.7,1.3-5.5,2.1l1.2,3.9C1135.4,629.4,1132,632.1,1129.3,635.4z M1171.1,650.2c2.8,9.6-2.7,19.7-12.3,22.6
		s-19.7-2.7-22.6-12.3c-2.8-9.6,2.7-19.7,12.3-22.6C1158.1,635.1,1168.2,640.6,1171.1,650.2z"/>
	<g>
		<g>
			<path fill="#F1F2F2" d="M213.1,670.3c-0.6,0-1-0.4-1-1v-6c0-0.6,0.4-1,1-1c0.6,0,1,0.4,1,1v6
				C214.1,669.9,213.7,670.3,213.1,670.3z"/>
		</g>
		<g>
			<path fill="#F1F2F2" d="M213.1,653.4c-0.6,0-1-0.4-1-1v-10.9c0-0.6,0.4-1,1-1c0.6,0,1,0.4,1,1v10.9
				C214.1,653,213.7,653.4,213.1,653.4z M213.1,631.7c-0.6,0-1-0.4-1-1v-10.9c0-0.6,0.4-1,1-1c0.6,0,1,0.4,1,1v10.9
				C214.1,631.2,213.7,631.7,213.1,631.7z M213.1,609.9c-0.6,0-1-0.4-1-1V598c0-0.6,0.4-1,1-1c0.6,0,1,0.4,1,1v10.9
				C214.1,609.5,213.7,609.9,213.1,609.9z M213.1,588.1c-0.6,0-1-0.4-1-1v-10.9c0-0.6,0.4-1,1-1c0.6,0,1,0.4,1,1v10.9
				C214.1,587.7,213.7,588.1,213.1,588.1z M213.1,566.4c-0.6,0-1-0.4-1-1v-10.9c0-0.6,0.4-1,1-1c0.6,0,1,0.4,1,1v10.9
				C214.1,565.9,213.7,566.4,213.1,566.4z"/>
		</g>
		<g>
			<path fill="#F1F2F2" d="M213.1,544.6c-0.6,0-1-0.4-1-1v-6c0-0.6,0.4-1,1-1h6c0.6,0,1,0.4,1,1s-0.4,1-1,1h-5v5
				C214.1,544.2,213.7,544.6,213.1,544.6z"/>
		</g>
		<g>
			<path fill="#F1F2F2" d="M245.9,538.6h-13.4c-0.6,0-1-0.4-1-1s0.4-1,1-1h13.4c0.6,0,1,0.4,1,1S246.4,538.6,245.9,538.6z"/>
		</g>
		<g>
			<path fill="#F1F2F2" d="M265.3,538.6h-6c-0.6,0-1-0.4-1-1s0.4-1,1-1h6c0.6,0,1,0.4,1,1S265.8,538.6,265.3,538.6z"/>
		</g>
	</g>
</g>
</svg>
