<svg height="464pt" viewBox="0 0 464 464" width="464pt" xmlns="http://www.w3.org/2000/svg"><path d="m464 70.640625v377.359375c-.027344 8.824219-7.175781 15.972656-16 16h-432c-8.824219-.027344-15.9726562-7.175781-16-16v-408c.0273438-8.824219 7.175781-15.972656 16-16h401.359375c4.265625 0 8.351563 1.699219 11.359375 4.71875l30.5625 30.5625c3.019531 3.007812 4.71875 7.09375 4.71875 11.359375zm0 0" fill="#ffeb99"/><path d="m232 24v72h-80c-8.824219-.027344-15.972656-7.175781-16-16v-56zm0 0" fill="#c6c5ca"/><path d="m392 24v88c-.027344 8.824219-7.175781 15.972656-16 16h-128c-8.824219-.027344-15.972656-7.175781-16-16v-96c.027344-8.824219 7.175781-15.9726562 16-16h128c8.824219.0273438 15.972656 7.175781 16 16zm0 0" fill="#007579"/><path d="m352 24c4.417969 0 8 3.582031 8 8v64c0 4.417969-3.582031 8-8 8s-8-3.582031-8-8v-64c0-4.417969 3.582031-8 8-8zm0 0" fill="#d8d7da"/><path d="m32 408h16c4.417969 0 8 3.582031 8 8v16c0 4.417969-3.582031 8-8 8h-16c-4.417969 0-8-3.582031-8-8v-16c0-4.417969 3.582031-8 8-8zm0 0" fill="#fff"/><path d="m416 408h16c4.417969 0 8 3.582031 8 8v16c0 4.417969-3.582031 8-8 8h-16c-4.417969 0-8-3.582031-8-8v-16c0-4.417969 3.582031-8 8-8zm0 0" fill="#fff"/><path d="m368 248c30.929688 0 56 25.070312 56 56s-25.070312 56-56 56h-232c-39.765625 0-72-32.234375-72-72s32.234375-72 72-72c1.28125 0 2.480469.160156 3.679688.160156 21.535156-41.636718 68.285156-63.691406 114.113281-53.835937 45.828125 9.859375 79.375 49.1875 81.886719 95.996093 9.445312-6.703124 20.738281-10.308593 32.320312-10.320312zm0 0" fill="#00e7f0"/><path d="m296 352-64 80-64-80h40v-104h48v104zm0 0" fill="#d80027"/></svg>