<svg height="464pt" viewBox="0 0 464 464" width="464pt" xmlns="http://www.w3.org/2000/svg"><path d="m368 136v240c-.027344 8.824219-7.175781 15.972656-16 16h-240c-8.824219-.027344-15.972656-7.175781-16-16v-288c.027344-8.824219 7.175781-15.972656 16-16h192zm0 0" fill="#ffeb99"/><path d="m368 136h-48c-8.824219-.027344-15.972656-7.175781-16-16v-48zm0 0" fill="#ffcd00"/><path d="m232 152v80h-80c-.015625-11.019531 2.273438-21.917969 6.71875-32 12.703125-29.152344 41.480469-48.003906 73.28125-48zm0 0" fill="#b2fa09"/><path d="m312 232c0 44.183594-35.816406 80-80 80s-80-35.816406-80-80h80v-80c44.183594 0 80 35.816406 80 80zm0 0" fill="#44ffe8"/><path d="m264 416c-4.417969 0-8-3.582031-8-8v-130.214844c6.273438-3.621094 9.328125-11.003906 7.453125-18-1.871094-6.992187-8.210937-11.859375-15.453125-11.859375s-13.582031 4.867188-15.453125 11.859375c-1.875 6.996094 1.179687 14.378906 7.453125 18v130.214844c0 13.253906 10.746094 24 24 24h128v-16zm0 0" fill="#d8d7da"/><path d="m200 184c-5.691406.015625-10.945312 3.066406-13.785156 8h-130.214844c-4.417969 0-8-3.582031-8-8v-112h-16v112c0 13.253906 10.746094 24 24 24h130.214844c3.886718 6.730469 12.050781 9.695312 19.351562 7.027344 7.300782-2.671875 11.628906-10.203125 10.253906-17.851563-1.371093-7.652343-8.046874-13.210937-15.820312-13.175781zm0 0" fill="#d8d7da"/><path d="m80 40c0 22.089844-17.910156 40-40 40s-40-17.910156-40-40 17.910156-40 40-40 40 17.910156 40 40zm0 0" fill="#ffda44"/><path d="m32 24h16c4.417969 0 8 3.582031 8 8v16c0 4.417969-3.582031 8-8 8h-16c-4.417969 0-8-3.582031-8-8v-16c0-4.417969 3.582031-8 8-8zm0 0" fill="#fff"/><path d="m464 424c0 22.089844-17.910156 40-40 40s-40-17.910156-40-40 17.910156-40 40-40 40 17.910156 40 40zm0 0" fill="#d80027"/><path d="m416 408h16c4.417969 0 8 3.582031 8 8v16c0 4.417969-3.582031 8-8 8h-16c-4.417969 0-8-3.582031-8-8v-16c0-4.417969 3.582031-8 8-8zm0 0" fill="#fff"/></svg>