<svg height="512" viewBox="0 0 64 64" width="512" xmlns="http://www.w3.org/2000/svg"><path d="m52 26v7l-19 19h-1-6l6-6-20-20v-8l4 4 13-13h6l-16 16 17 17z" fill="#44ffe8"/><path d="m29 9-13 13-4-4v-9z" fill="#ffda44"/><path d="m52 9v17l-16 16-17-17 16-16z" fill="#64c37d"/><path d="m52 33v19h-19z" fill="#57a4ff"/><path d="m32 46-6 6h-14v-26z" fill="#91dc5a"/><path d="m39.96 27.04c2.3.18 4.04.99 4.04 1.96 0 1.1-2.24 2-5 2s-5-.9-5-2c0-.97 1.74-1.78 4.04-1.96.58.6.96.96.96.96s.38-.36.96-.96z" fill="#d80027"/><ellipse cx="39" cy="29" fill="#d80027" rx="5" ry="2"/><path d="m45 19c0 2.47-3.35 6.28-5.04 8.04-.58.6-.96.96-.96.96s-.38-.36-.96-.96c-1.69-1.76-5.04-5.57-5.04-8.04a6 6 0 0 1 12 0z" fill="#ff5023"/><circle cx="39" cy="19" fill="#ffda44" r="2"/><path d="m52 52v8a2.006 2.006 0 0 1 -2 2h-36a2.006 2.006 0 0 1 -2-2v-8z" fill="#e0e0e2"/><circle cx="32" cy="57" fill="#ffda44" r="2"/><path d="m52 5v4h-40v-4a2.006 2.006 0 0 1 2-2h36a2.006 2.006 0 0 1 2 2z" fill="#e0e0e2"/><path d="m15 5h10v2h-10z" fill="#fff"/></svg>