<svg height="461pt" viewBox="-30 0 461 461.76" width="461pt" xmlns="http://www.w3.org/2000/svg"><path d="m320.378906 253.761719h64c8.835938 0 16 7.160156 16 16v64c0 8.835937-7.164062 16-16 16h-64c-8.835937 0-16-7.164063-16-16v-64c0-8.839844 7.164063-16 16-16zm0 0" fill="#ffda44"/><path d="m288.378906 45.761719v118.476562c0 5.859375-3.1875 11.253907-8.320312 14.082031l-72 39.28125c-2.363282 1.257813-5 1.917969-7.679688 1.917969v-128c2.679688 0 5.316406-.660156 7.679688-1.917969zm0 0" fill="#007579"/><path d="m288.378906 45.761719-80.320312 43.839843c-4.796875 2.558594-10.558594 2.558594-15.359375 0l-80.320313-43.839843 80.320313-43.839844c4.800781-2.5625 10.5625-2.5625 15.359375 0zm0 0" fill="#9bfbff"/><path d="m168.378906 365.761719h64c8.835938 0 16 7.160156 16 16v64c0 8.835937-7.164062 16-16 16h-64c-8.835937 0-16-7.164063-16-16v-64c0-8.839844 7.164063-16 16-16zm0 0" fill="#d80027"/><path d="m200.378906 93.761719v125.757812c-2.675781 0-5.316406-.660156-7.679687-1.917969l-72-39.28125c-5.128907-2.828124-8.316407-8.222656-8.320313-14.082031v-118.476562l80.320313 43.839843c2.363281 1.257813 5.003906 1.917969 7.679687 1.917969zm0 0" fill="#00d7df"/><path d="m16.378906 253.761719h64c8.835938 0 16 7.160156 16 16v64c0 8.835937-7.164062 16-16 16h-64c-8.835937 0-16-7.164063-16-16v-64c0-8.839844 7.164063-16 16-16zm0 0" fill="#ccfc5c"/><g fill="#d8d7da"><path d="m216.378906 293.761719h88v16h-88zm0 0"/><path d="m96.378906 293.761719h88v16h-88zm0 0"/><path d="m192.378906 317.761719h16v48h-16zm0 0"/><path d="m192.378906 237.761719h16v48h-16zm0 0"/></g><path d="m48.378906 317.761719c-8.835937 0-16-7.164063-16-16 0-8.839844 7.164063-16 16-16 8.835938 0 16 7.160156 16 16 0 8.835937-7.164062 16-16 16zm0-16" fill="#fff"/><path d="m200.378906 429.761719c-8.835937 0-16-7.164063-16-16 0-8.839844 7.164063-16 16-16 8.835938 0 16 7.160156 16 16 0 8.835937-7.164062 16-16 16zm0-16" fill="#fff"/><path d="m352.378906 317.761719c-8.835937 0-16-7.164063-16-16 0-8.839844 7.164063-16 16-16 8.835938 0 16 7.160156 16 16 0 8.835937-7.164062 16-16 16zm0-16" fill="#fff"/><path d="m224.378906 301.761719c0 13.253906-10.742187 24-24 24-13.253906 0-24-10.746094-24-24 0-13.257813 10.746094-24 24-24 13.257813 0 24 10.742187 24 24zm0 0" fill="#ff5023"/><path d="m128.378906 77.761719c4.417969 0 8 3.578125 8 8v16c0 4.417969-3.582031 8-8 8-4.417968 0-8-3.582031-8-8v-16c0-4.421875 3.582032-8 8-8zm0 0" fill="#55e4ea"/></svg>