<svg height="512" viewBox="0 0 64 64" width="512" xmlns="http://www.w3.org/2000/svg"><g id="Cafe-coffee-cup-hot-4" data-name="Cafe-coffee-cup-hot"><path d="m61 55v2a4 4 0 0 1 -4 4h-50a4 4 0 0 1 -4-4v-2z" fill="#e0e0e2"/><path d="m49 19v6.01l-34-.01v-6z" fill="#754c29"/><path d="m61 24v21a2.006 2.006 0 0 1 -2 2h-10v-5h7v-15l-7 .02v-5.02h10a2.006 2.006 0 0 1 2 2z" fill="#b39a7c"/><path d="m49 25.01v25.99a4 4 0 0 1 -4 4h-26a4 4 0 0 1 -4-4v-26z" fill="#a78966"/><g fill="#e0e0e2"><path d="m19 16h-2a5.006 5.006 0 0 1 5-5h2a3 3 0 0 0 3-3h2a5.006 5.006 0 0 1 -5 5h-2a3 3 0 0 0 -3 3z"/><path d="m43 15h-2a5.006 5.006 0 0 1 5-5h2a3 3 0 0 0 3-3h2a5.006 5.006 0 0 1 -5 5h-2a3 3 0 0 0 -3 3z"/><path d="m35 10h-2a5.006 5.006 0 0 1 5-5h2a3 3 0 0 0 3-3h2a5.006 5.006 0 0 1 -5 5h-2a3 3 0 0 0 -3 3z"/></g><rect fill="#fff" height="2" rx="1" width="10" x="5" y="56"/></g></svg>