<svg height="464pt" viewBox="-88 0 464 464" width="464pt" xmlns="http://www.w3.org/2000/svg"><path d="m56 432v32h72v-32zm0 0" fill="#6c6b6f"/><path d="m160 464h72v-32h-72zm0 0" fill="#6c6b6f"/><path d="m56 456h72v8h-72zm0 0" fill="#414042"/><path d="m160 456h72v8h-72zm0 0" fill="#414042"/><path d="m216 88v-8h-24v-32h24v-24h-24v-24h-96v24h-24v24h24v32h-24v8h-72v48h16v106.800781c-11.832031 5.609375-18.191406 18.671875-15.316406 31.449219 2.875 12.773438 14.222656 21.847656 27.316406 21.847656s24.441406-9.074218 27.316406-21.847656c2.875-12.777344-3.484375-25.839844-15.316406-31.449219v-106.800781h32v104h16v192h-32v32h72v-224h32v224h72v-32h-32v-192h16v-104h32v106.800781c-11.832031 5.609375-18.191406 18.671875-15.316406 31.449219 2.875 12.773438 14.222656 21.847656 27.316406 21.847656s24.441406-9.074218 27.316406-21.847656c2.875-12.777344-3.484375-25.839844-15.316406-31.449219v-106.800781h16v-48zm0 0" fill="#ff5023"/><path d="m248 242.800781c7.5625-3.734375 16.4375-3.734375 24 0v-106.800781h-24zm0 0" fill="#acabb1"/><path d="m28 240c4.160156.019531 8.261719.976562 12 2.800781v-106.800781h-24v106.800781c3.738281-1.824219 7.839844-2.78125 12-2.800781zm0 0" fill="#acabb1"/><path d="m72 80h144v160h-144zm0 0" fill="#ff5023"/><path d="m96 0v80h96v-80zm0 0" fill="#d80027"/><path d="m88 240h40v192h-40zm0 0" fill="#a7a9ac"/><path d="m160 240h40v192h-40zm0 0" fill="#a7a9ac"/><g fill="#78b9eb"><path d="m72 136v-48h-72v48zm0 0"/><path d="m248 136h40v-48h-72v48zm0 0"/><path d="m72 24h24v24h-24zm0 0"/><path d="m192 24h24v24h-24zm0 0"/></g><path d="m16 242.800781c-11.832031 5.609375-18.191406 18.671875-15.316406 31.449219 2.875 12.773438 14.222656 21.847656 27.316406 21.847656s24.441406-9.074218 27.316406-21.847656c2.875-12.777344-3.484375-25.839844-15.316406-31.449219-7.5625-3.734375-16.4375-3.734375-24 0zm0 0" fill="#ff9811"/><path d="m248 242.800781c-11.832031 5.609375-18.191406 18.671875-15.316406 31.449219 2.875 12.773438 14.222656 21.847656 27.316406 21.847656s24.441406-9.074218 27.316406-21.847656c2.875-12.777344-3.484375-25.839844-15.316406-31.449219-7.5625-3.734375-16.4375-3.734375-24 0zm0 0" fill="#ff9811"/><path d="m96 104h96v24h-96zm0 0" fill="#ffda44"/><path d="m96 64h96v16h-96zm0 0" fill="#941216"/><path d="m72 184h144v56h-144zm0 0" fill="#ff633b"/><path d="m216 88h72v16h-72zm0 0" fill="#5a8bb0"/><path d="m0 88h72v16h-72zm0 0" fill="#5a8bb0"/><path d="m128 32h-8c-4.417969 0-8-3.582031-8-8s3.582031-8 8-8h8c4.417969 0 8 3.582031 8 8s-3.582031 8-8 8zm0 0" fill="#f1f2f2"/><path d="m168 32h-8c-4.417969 0-8-3.582031-8-8s3.582031-8 8-8h8c4.417969 0 8 3.582031 8 8s-3.582031 8-8 8zm0 0" fill="#f1f2f2"/><path d="m184 168h-80c-4.417969 0-8-3.582031-8-8s3.582031-8 8-8h80c4.417969 0 8 3.582031 8 8s-3.582031 8-8 8zm0 0" fill="#6d6e71"/><path d="m104 160h80c2.808594.035156 5.386719 1.558594 6.777344 4 .761718-1.199219 1.1875-2.582031 1.222656-4 0-4.417969-3.582031-8-8-8h-80c-4.417969 0-8 3.582031-8 8 .035156 1.417969.460938 2.800781 1.222656 4 1.390625-2.441406 3.96875-3.964844 6.777344-4zm0 0" fill="#29292a"/><path d="m88 24h8v24h-8zm0 0" fill="#69a2ce"/><path d="m192 24h8v24h-8zm0 0" fill="#69a2ce"/><path d="m72 184h144v8h-144zm0 0" fill="#ef4136"/></svg>