<svg height="471pt" viewBox="-4 0 471 471.83438" width="471pt" xmlns="http://www.w3.org/2000/svg"><path d="m413.058594 177.332031c32.222656 6.542969 54.246094 36.4375 50.941406 69.148438-3.304688 32.714843-30.863281 57.601562-63.742188 57.570312h-328c-34.261718-.074219-63.722656-24.285156-70.441406-57.878906-6.71875-33.597656 11.164063-67.273437 42.761719-80.523437-2.871094-6.835938-4.339844-14.179688-4.320313-21.597657 0-30.929687 25.074219-56 56-56 4.671876-.03125 9.324219.558594 13.839844 1.757813 18.015625-57.632813 73.863282-94.839844 133.992188-89.261719s108.179687 52.417969 115.289062 112.382813c2.925782-.578126 5.898438-.871094 8.878906-.878907 15.820313.011719 30.617188 7.8125 39.570313 20.855469 8.949219 13.042969 10.90625 29.660156 5.230469 44.425781zm0 0" fill="#2488ff"/><path d="m412.578125 177.332031c2.128906-5.515625 3.210937-11.375 3.199219-17.28125 0-1.207031-.09375-2.402343-.183594-3.585937-35.015625 51.722656-126.816406 126.65625-366.367188 143.929687 7.273438 2.414063 14.886719 3.648438 22.550782 3.65625h328c32.882812.03125 60.4375-24.855469 63.742187-57.570312 3.304688-32.710938-18.71875-62.605469-50.941406-69.148438zm0 0" fill="#006df0"/><g fill="#e0e0e2"><path d="m223.777344 335.835938h16v96h-16zm0 0"/><path d="m175.777344 407.835938h-96v-16h88v-56h16v64c0 4.417968-3.582032 8-8 8zm0 0"/><path d="m383.777344 407.835938h-96c-4.417969 0-8-3.582032-8-8v-64h16v56h88zm0 0"/></g><path d="m95.777344 399.835938c0 13.253906-10.746094 24-24 24s-24-10.746094-24-24c0-13.257813 10.746094-24 24-24s24 10.742187 24 24zm0 0" fill="#d80027"/><path d="m415.777344 399.835938c0 13.253906-10.746094 24-24 24s-24-10.746094-24-24c0-13.257813 10.746094-24 24-24s24 10.742187 24 24zm0 0" fill="#64c37d"/><path d="m255.777344 447.835938c0 13.253906-10.746094 24-24 24s-24-10.746094-24-24c0-13.257813 10.746094-24 24-24s24 10.742187 24 24zm0 0" fill="#ffda44"/><path d="m127.777344 239.835938h208v32h-208zm0 0" fill="#898890"/><path d="m103.777344 271.835938h256v64h-256zm0 0" fill="#c6c5ca"/><path d="m103.777344 175.835938h256v64h-256zm0 0" fill="#e0e0e2"/><path d="m143.777344 223.835938c-8.835938 0-16-7.164063-16-16 0-8.839844 7.164062-16 16-16 8.835937 0 16 7.160156 16 16 0 8.835937-7.164063 16-16 16zm0-16" fill="#ffda44"/><path d="m143.777344 319.835938c-8.835938 0-16-7.164063-16-16 0-8.839844 7.164062-16 16-16 8.835937 0 16 7.160156 16 16 0 8.835937-7.164063 16-16 16zm0-16" fill="#d80027"/><path d="m127.777344 239.835938h208v8h-208zm0 0" fill="#787680"/><path d="m183.777344 183.835938h32c4.417968 0 8 3.582031 8 8 0 4.417968-3.582032 8-8 8h-32c-4.417969 0-8-3.582032-8-8 0-4.417969 3.582031-8 8-8zm0 0" fill="#fff"/><path d="m183.777344 279.835938h32c4.417968 0 8 3.582031 8 8 0 4.417968-3.582032 8-8 8h-32c-4.417969 0-8-3.582032-8-8 0-4.417969 3.582031-8 8-8zm0 0" fill="#fff"/></svg>