<svg height="464pt" viewBox="-104 0 464 464" width="464pt" xmlns="http://www.w3.org/2000/svg"><path d="m40 0h176v96h-176zm0 0" fill="#e0e0e2"/><path d="m256 96v288c0 13.253906-10.746094 24-24 24h-208c-13.253906 0-24-10.746094-24-24v-288zm0 0" fill="#2488ff"/><path d="m200 408v32h-144v-32zm0 0" fill="#57565c"/><g fill="#acabb1"><path d="m104 440h48v24h-48zm0 0"/><path d="m72 64h32v32h-32zm0 0"/><path d="m152 64h32v32h-32zm0 0"/></g><path d="m184 192v64h-48v-88h-16v88h-48v-64h-16v72c0 4.417969 3.582031 8 8 8h56v56h16v-56h56c4.417969 0 8-3.582031 8-8v-72zm0 0" fill="#e0e0e2"/><path d="m128 128-32 48h64zm0 0" fill="#ffda44"/><path d="m152 344c0 13.253906-10.746094 24-24 24s-24-10.746094-24-24 10.746094-24 24-24 24 10.746094 24 24zm0 0" fill="#ffda44"/><path d="m88 184c0 13.253906-10.746094 24-24 24s-24-10.746094-24-24 10.746094-24 24-24 24 10.746094 24 24zm0 0" fill="#d80027"/><path d="m216 152v48h-48v-48zm0 0" fill="#64c37d"/><path d="m56 408h144v8h-144zm0 0" fill="#3e3d42"/><path d="m104 440h48v8h-48zm0 0" fill="#898890"/><path d="m24 112h40c4.417969 0 8 3.582031 8 8s-3.582031 8-8 8h-40c-4.417969 0-8-3.582031-8-8s3.582031-8 8-8zm0 0" fill="#55a2ff"/></svg>