<svg height="464pt" viewBox="0 0 464 464" width="464pt" xmlns="http://www.w3.org/2000/svg"><path d="m464 200v64l-43.679688 5.441406c-4.875 24.734375-14.609374 48.253906-28.640624 69.199219l26.960937 34.800781-45.199219 45.199219-34.800781-26.960937c-20.945313 14.03125-44.464844 23.765624-69.199219 28.640624l-5.441406 43.679688h-64l-5.441406-43.679688c-24.734375-4.875-48.253906-14.609374-69.199219-28.640624l-34.800781 26.960937-45.199219-45.199219 26.960937-34.800781c-14.03125-20.945313-23.765624-44.464844-28.640624-69.199219l-43.679688-5.441406v-64l43.679688-5.441406c4.875-24.734375 14.609374-48.253906 28.640624-69.199219l-26.960937-34.800781 45.199219-45.199219 34.800781 26.960937c20.945313-14.03125 44.464844-23.765624 69.199219-28.640624l5.441406-43.679688h64l5.441406 43.679688c24.734375 4.875 48.253906 14.609374 69.199219 28.640624l34.800781-26.960937 45.199219 45.199219-26.960937 34.800781c14.03125 20.945313 23.765624 44.464844 28.640624 69.199219zm0 0" fill="#46f8ff"/><path d="m360 232c0 70.691406-57.308594 128-128 128s-128-57.308594-128-128 57.308594-128 128-128 128 57.308594 128 128zm0 0" fill="#3e3d42"/><path d="m72 232s71.632812-88 160-88 160 88 160 88-71.632812 88-160 88-160-88-160-88zm0 0" fill="#ffeb99"/><path d="m216 232-39.039062 32.558594c-11.949219-20.0625-11.949219-45.054688 0-65.117188zm0 0" fill="#fff"/><path d="m232 168c-22.617188.007812-43.542969 11.96875-55.03125 31.449219l39.03125 32.550781-39.03125 32.550781c15.761719 26.679688 48.371094 38.238281 77.414062 27.433594 29.042969-10.800781 46.175782-40.859375 40.671876-71.355469-5.507813-30.492187-32.066407-52.664062-63.054688-52.628906zm0 0" fill="#ff5023"/></svg>